<svg xmlns="http://www.w3.org/2000/svg" width="313.671" height="83.069"><g data-name="Grupo 38" transform="translate(-781.355 -1258.093)"><g fill="#fff"><path data-name="Caminho 321" d="M804 1320.895a7.928 7.928 0 01-4.7 1.228h-4.014v-9.933h4.018a7.959 7.959 0 014.7 1.222 4.768 4.768 0 010 7.484m-8.719-25.779h3.418a6.185 6.185 0 013.9 1.119 4.5 4.5 0 010 6.76 6.166 6.166 0 01-3.9 1.111h-3.418zm16.2 12.818a11.794 11.794 0 00-5.971-21.968c-.351 0-.7.023-1.041.054-.411-.025-.82-.048-1.273-.054h-21.845v45.771h14.773a.06.06 0 00-.012.007l2.467-.007h4.552c.172 0 .32-.012.486-.016l4.145-.012a12.178 12.178 0 003.718-23.774"/><path data-name="Caminho 322" d="M841.96 1285.966v45.77h17.1l12.7.009h3.3v-12.42h-18.1v-33.359z"/><path data-name="Caminho 323" d="M822.15 1285.966v45.779l15.011-.009v-45.77z"/><path data-name="Caminho 324" d="M879.867 1285.958h-11.053v.007h-7.044v28.562h13.3v-14.865a10.011 10.011 0 114.8 19.431v12.657a22.9 22.9 0 000-45.792"/></g><g fill="#fff"><path d="M989.14 1302.591a61.55 61.55 0 003.3-8.633c.7-2.237 3.3-3.712 6.4-3.712 2.319 0 4.147 1.9 3.233 3.361s-1.756 2.882-2.81 4.7c-3.443 6.1-3.864 6.875-9.206 17.747l-2.109 4.217a89.187 89.187 0 00-2.319 4.626c-1.054 2.109-4 3.373-7.1 3.373-3.023 0-5.552-1.688-5.833-3.937-.21-1.828-.491-3.584-.774-5.4-.281-1.9-.634-3.937-.984-5.891s-.634-3.855-.984-5.753l-.281-1.615c-.421-2.59-.561-3.291-1.4-7.3-.07-.365-1.054-4.769-.984-4.7-.634-1.816 1.548-3.431 3.937-3.361h1.685c2.812-.07 4.921 1.685 4.991 3.784.07 1.4.21 3.443.561 6.384a177.839 177.839 0 002.677 18.522l8-16.412zm23.263 8.563l2.039-11.363c.421-2.319.771-4.007 1.054-5.272a5.354 5.354 0 01.14-1.112c.14-1.828-1.9-3.584-4.287-3.093-.774.14-1.478.281-2.462.421a3.405 3.405 0 00-3.373 3.855c.07 2.529-.563 7.088-2.249 16.352l-1.195 6.875c-.491 2.87-.984 4.839-1.335 6.314a3.036 3.036 0 01-.07.351 3.612 3.612 0 003.794 3.642h.561c2.672 0 5.2-1.4 5.342-3.431.215-2.387.776-6.519 2.041-13.537zm20.453-21.892a47.642 47.642 0 011.615-7.027c.491-1.828-2.109-3.163-4.568-2.67-3.023.7-5.129 2.67-5.342 4.919a44.574 44.574 0 01-.634 4.638 3.208 3.208 0 00-3.373 2.529c-.21 1.124.914 2.109 2.319 2.389l-4.428 23.333a29.7 29.7 0 00-.631 4.848 7.407 7.407 0 001.615 4.217c1.054 1.475 4.077 2.822 8.785 2.822a15.962 15.962 0 001.828-.07c2.529-.351 4.358-1.908 4.778-3.666.21-1.195-1.618-2.389-3.514-2.109a6.2 6.2 0 01-1.475.21c-1.545 0-2.672-1.054-2.672-3.654a50.032 50.032 0 011.335-8.855c.21-1.054.563-2.532.844-4.147.351-1.9.774-4.007 1.124-5.9.421-2.109.844-4.217 1.195-5.9.07-.421.14-.634.21-.984.984 0 2.109 0 3.443.07 2.319 0 4.358-.984 4.778-2.529.281-1.4-1.4-2.812-3.514-2.6-.7.07-1.548.07-2.459.07-.351 0-.7.07-1.054.07h-.208zm20.521 0h.21c.351 0 .7-.07 1.054-.07.914 0 1.758 0 2.459-.07 2.109-.21 3.794 1.195 3.514 2.6-.421 1.545-2.459 2.529-4.778 2.529-1.335-.07-2.459-.07-3.443-.07-.07.351-.14.563-.21.984-.353 1.685-.774 3.794-1.195 5.9-.351 1.9-.774 4.007-1.124 5.9-.281 1.615-.631 3.093-.844 4.147a50.03 50.03 0 00-1.335 8.855c0 2.6 1.124 3.654 2.67 3.654a6.2 6.2 0 001.475-.21c1.9-.281 3.726.914 3.514 2.109-.421 1.758-2.249 3.315-4.778 3.666a15.941 15.941 0 01-1.828.07c-4.708 0-7.731-1.347-8.785-2.822a7.4 7.4 0 01-1.615-4.217 29.474 29.474 0 01.634-4.848l4.428-23.333c-1.4-.281-2.529-1.265-2.319-2.389a3.208 3.208 0 013.373-2.529 46.013 46.013 0 00.634-4.638c.21-2.249 2.319-4.217 5.342-4.919 2.459-.491 5.061.844 4.568 2.67a47.547 47.547 0 00-1.618 7.027zm31.838 5.622a14.206 14.206 0 00-4.5-.914c-10.683 0-13.493 15.041-13.493 20.8 0 4.778 1.335 8.222 4.848 8.222 2.039 0 4.638-1.124 7.027-4.638 1.9-2.6 3.093-6.677 4.287-13.7l1.828-9.769zm5.342-4.568l-1.124.421a19.493 19.493 0 00-7.52-1.475 20.013 20.013 0 00-12.3 3.937c-10.26 8.152-12.159 20.944-12.159 24.177 0 8.011 5.762 11.82 11.6 11.82 5.482 0 9.206-4.3 12.088-8.234a36.112 36.112 0 00-.561 4.287c-.14 1.758 1.968 3.233 4.428 3.163 2.389-.07 4.708-1.335 4.708-3.093a98.156 98.156 0 011.548-12.652l1.265-6.887c1.195-6.466 1.968-10.05 2.459-12.369.348-1.9-1.9-3.869-4.43-3.1z" fill-rule="evenodd"/><path d="M1037.075 1335.328a2.531 2.531 0 01-.244.658 2.844 2.844 0 01-.406.566 2.6 2.6 0 01-.544.44 2.573 2.573 0 01-.663.283 1.311 1.311 0 01.588.283 1.048 1.048 0 01.3.467 1.69 1.69 0 01.07.609 3.8 3.8 0 01-.1.706l-.392 1.683h-1.272l.348-1.465a3.765 3.765 0 00.1-.754 1.1 1.1 0 00-.118-.559.778.778 0 00-.4-.343 1.967 1.967 0 00-.745-.114h-.977l-.75 3.238h-1.3l1.814-7.823h2.737a3.527 3.527 0 01.941.118 1.618 1.618 0 01.689.38 1.294 1.294 0 01.363.663 2.183 2.183 0 01-.039.965zm-1.335.162a1.013 1.013 0 00-.162-.929 1.583 1.583 0 00-1.185-.331h-.946l-.609 2.619h.955a2.757 2.757 0 00.6-.07 2.151 2.151 0 00.58-.227 1.581 1.581 0 00.472-.418 1.624 1.624 0 00.293-.643zM1041.801 1339.879a3.256 3.256 0 01-.711.7 3.085 3.085 0 01-.88.435 3.43 3.43 0 01-1 .145 2.457 2.457 0 01-1.086-.222 1.89 1.89 0 01-.733-.609 2.043 2.043 0 01-.353-.912 3.057 3.057 0 01.065-1.134 4.077 4.077 0 01.467-1.185 3.752 3.752 0 01.788-.955 3.67 3.67 0 011.037-.636 3.288 3.288 0 011.238-.235 2.835 2.835 0 01.88.131 1.78 1.78 0 01.68.392 1.542 1.542 0 01.406.646 1.951 1.951 0 01.065.885l-4.454 1.5a2.025 2.025 0 00.031.559 1.159 1.159 0 00.2.462 1.008 1.008 0 00.392.31 1.407 1.407 0 00.592.114 1.655 1.655 0 00.566-.1 1.854 1.854 0 00.5-.271 1.887 1.887 0 00.4-.418 2.032 2.032 0 00.271-.537h1.131a3.405 3.405 0 01-.5.933zm-.6-3.482a1.144 1.144 0 00-.75-.232 1.851 1.851 0 00-.759.147 1.962 1.962 0 00-.592.4 2.5 2.5 0 00-.435.58 3.265 3.265 0 00-.278.689l-.031.131 3.161-1.064a.894.894 0 00-.314-.648zM1047.693 1339.38a1.917 1.917 0 01-.413.846 2.408 2.408 0 01-.689.549 3.013 3.013 0 01-.854.3 4.765 4.765 0 01-.89.087 3.79 3.79 0 01-.955-.114 1.8 1.8 0 01-.723-.358 1.273 1.273 0 01-.4-.624 1.831 1.831 0 010-.924h1.129a.939.939 0 00.184.945 1.369 1.369 0 00.967.3 2.245 2.245 0 00.44-.048 1.892 1.892 0 00.445-.152 1.281 1.281 0 00.37-.271.9.9 0 00.213-.409.637.637 0 00-.012-.4.569.569 0 00-.244-.266 1.658 1.658 0 00-.45-.179c-.181-.046-.387-.1-.619-.148a7.934 7.934 0 01-.82-.218 1.921 1.921 0 01-.6-.3.946.946 0 01-.322-.457 1.258 1.258 0 01.012-.675 1.6 1.6 0 01.336-.68 2.207 2.207 0 01.609-.5 3.243 3.243 0 01.793-.31 3.753 3.753 0 01.912-.109 4.114 4.114 0 01.863.087 1.7 1.7 0 01.684.3 1.2 1.2 0 01.4.554 1.523 1.523 0 01.017.842h-1.086a.8.8 0 00-.2-.815 1.226 1.226 0 00-.825-.261 1.781 1.781 0 00-.592.087 1.424 1.424 0 00-.406.213.939.939 0 00-.244.261.752.752 0 00-.1.244.455.455 0 00.135.472 1.521 1.521 0 00.51.288 4.513 4.513 0 00.646.174c.225.044.409.087.554.131.181.058.358.123.532.2a1.405 1.405 0 01.44.283.986.986 0 01.256.428 1.237 1.237 0 01-.012.629zM1049.466 1341.053a2.7 2.7 0 01-.515-.048.853.853 0 01-.406-.2.754.754 0 01-.222-.414 1.677 1.677 0 01.039-.7l.6-2.575a1.511 1.511 0 00.044-.409.42.42 0 00-.082-.244.355.355 0 00-.2-.121 1.13 1.13 0 00-.288-.034l.684-.946a2.7 2.7 0 01.515.048.832.832 0 01.406.2.761.761 0 01.222.418 1.7 1.7 0 01-.039.706l-.6 2.563a1.238 1.238 0 00-.048.418.432.432 0 00.087.244.339.339 0 00.2.119 1.142 1.142 0 00.288.031l-.684.943zm1.635-7.356a.6.6 0 01-.239.5.846.846 0 01-.532.184.864.864 0 01-.537-.184.635.635 0 010-1 .869.869 0 011.069 0 .6.6 0 01.239.5zM1056.125 1341.053a1.2 1.2 0 01-.8-.218.852.852 0 01-.283-.6 2.99 2.99 0 01-2.184.924 2.458 2.458 0 01-1.086-.222 1.89 1.89 0 01-.733-.609 2.043 2.043 0 01-.353-.912 3.058 3.058 0 01.065-1.134 4.078 4.078 0 01.467-1.185 3.755 3.755 0 01.788-.955 3.673 3.673 0 011.037-.636 3.29 3.29 0 011.238-.235 2.347 2.347 0 01.941.184 1.5 1.5 0 01.658.544l.261-1.129c.073-.3.058-.508-.044-.614a.629.629 0 00-.488-.148l.684-.945a2.228 2.228 0 01.571.065.866.866 0 01.4.218.747.747 0 01.2.418 1.724 1.724 0 01-.056.667l-1.064 4.585a1.417 1.417 0 00-.027.767c.06.155.23.232.505.232l-.689.936zm-.566-3.726a.919.919 0 00-.339-.856 1.255 1.255 0 00-.428-.227 1.679 1.679 0 00-.505-.075 2.359 2.359 0 00-.88.157 2.092 2.092 0 00-.684.44 2.476 2.476 0 00-.488.667 3.769 3.769 0 00-.3.841 2.681 2.681 0 00-.07.8 1.383 1.383 0 00.191.631 1.124 1.124 0 00.467.418 1.693 1.693 0 00.759.152 2.2 2.2 0 001.173-.348 1.935 1.935 0 00.467-.418 1.415 1.415 0 00.271-.559l.372-1.622zM1062.106 1339.879a3.254 3.254 0 01-.711.7 3.022 3.022 0 01-.88.435 3.431 3.431 0 01-1 .145 2.457 2.457 0 01-1.086-.222 1.889 1.889 0 01-.733-.609 2.043 2.043 0 01-.353-.912 3.056 3.056 0 01.065-1.134 4.078 4.078 0 01.467-1.185 3.753 3.753 0 01.788-.955 3.671 3.671 0 011.037-.636 3.288 3.288 0 011.238-.235 2.837 2.837 0 01.88.131 1.779 1.779 0 01.679.392 1.542 1.542 0 01.406.646 1.95 1.95 0 01.065.885l-4.454 1.5a2.025 2.025 0 00.031.559 1.16 1.16 0 00.2.462 1.008 1.008 0 00.392.31 1.407 1.407 0 00.592.114 1.655 1.655 0 00.566-.1 1.855 1.855 0 00.5-.271 1.888 1.888 0 00.4-.418 2.035 2.035 0 00.271-.537h1.129a3.542 3.542 0 01-.5.933zm-.6-3.482a1.144 1.144 0 00-.75-.232 1.851 1.851 0 00-.759.147 1.962 1.962 0 00-.592.4 2.5 2.5 0 00-.435.58 3.264 3.264 0 00-.278.689l-.031.131 3.161-1.064a.885.885 0 00-.314-.648zM1068.282 1341.054a2.363 2.363 0 01-.571-.06.787.787 0 01-.4-.218.762.762 0 01-.2-.418 1.661 1.661 0 01.056-.663l.435-1.869a2.878 2.878 0 00.082-.6 1.227 1.227 0 00-.087-.505.745.745 0 00-.3-.348 1.078 1.078 0 00-.571-.131 1.583 1.583 0 00-.675.14 1.788 1.788 0 00-.537.38 2.328 2.328 0 00-.392.544 2.648 2.648 0 00-.234.641l-.706 3.073h-1.181l.9-3.9c.073-.334.06-.551-.039-.653a.648.648 0 00-.484-.152l.684-.945a1.546 1.546 0 01.566.087.8.8 0 01.336.235.812.812 0 01.162.358 1.94 1.94 0 01.034.45 2.627 2.627 0 01.994-.929 2.739 2.739 0 011.265-.3 1.528 1.528 0 011.3.532 1.64 1.64 0 01.2 1.422l-.435 1.891a1.416 1.416 0 00-.027.767c.061.155.23.23.505.222l-.682.953zM1074.262 1339.879a3.256 3.256 0 01-.711.7 3.022 3.022 0 01-.88.435 3.43 3.43 0 01-1 .145 2.457 2.457 0 01-1.086-.222 1.89 1.89 0 01-.733-.609 2.043 2.043 0 01-.353-.912 3.054 3.054 0 01.065-1.134 4.08 4.08 0 01.467-1.185 3.752 3.752 0 01.788-.955 3.67 3.67 0 011.037-.636 3.289 3.289 0 011.238-.235 2.837 2.837 0 01.88.131 1.779 1.779 0 01.679.392 1.543 1.543 0 01.406.646 1.95 1.95 0 01.065.885h-1.129a1.031 1.031 0 00-.239-.858 1.123 1.123 0 00-.846-.3 1.876 1.876 0 00-.832.179 2.016 2.016 0 00-.626.472 2.724 2.724 0 00-.435.672 4.345 4.345 0 00-.271.783 3.173 3.173 0 00-.082.745 1.522 1.522 0 00.135.641 1.041 1.041 0 00.392.445 1.279 1.279 0 00.7.169 1.656 1.656 0 00.566-.1 1.858 1.858 0 00.5-.271 1.885 1.885 0 00.4-.418 2.035 2.035 0 00.271-.537h1.129a3.541 3.541 0 01-.5.933zM1076.569 1341.053a2.7 2.7 0 01-.515-.048.852.852 0 01-.406-.2.753.753 0 01-.222-.414 1.676 1.676 0 01.039-.7l.6-2.575a1.512 1.512 0 00.043-.409.42.42 0 00-.082-.244.354.354 0 00-.2-.121 1.131 1.131 0 00-.288-.034l.684-.946a2.7 2.7 0 01.515.048.832.832 0 01.406.2.76.76 0 01.222.418 1.7 1.7 0 01-.039.706l-.6 2.563a1.239 1.239 0 00-.048.418.451.451 0 00.087.244.339.339 0 00.2.119 1.142 1.142 0 00.288.031l-.684.943zm1.642-7.356a.6.6 0 01-.239.5.846.846 0 01-.532.184.864.864 0 01-.537-.184.635.635 0 010-1 .869.869 0 011.069 0 .6.6 0 01.239.5zM1083.231 1341.054a1.2 1.2 0 01-.8-.213.845.845 0 01-.278-.592 3.6 3.6 0 01-1.016.684 2.931 2.931 0 01-1.178.227 2.457 2.457 0 01-1.086-.222 1.888 1.888 0 01-.733-.609 2.043 2.043 0 01-.353-.912 3.056 3.056 0 01.065-1.134 4.08 4.08 0 01.467-1.185 3.754 3.754 0 01.788-.955 3.672 3.672 0 011.037-.636 3.288 3.288 0 011.238-.235 2.35 2.35 0 01.941.184 1.5 1.5 0 01.658.544l.131-.6h1.185l-.912 3.975c-.073.3-.056.493.056.592a.664.664 0 00.479.135l-.692.948zm-.566-3.726a.919.919 0 00-.338-.856 1.256 1.256 0 00-.428-.227 1.684 1.684 0 00-.505-.075 2.358 2.358 0 00-.88.157 2.089 2.089 0 00-.684.44 2.474 2.474 0 00-.488.667 3.768 3.768 0 00-.3.842 2.678 2.678 0 00-.07.8 1.384 1.384 0 00.191.631 1.124 1.124 0 00.467.418 1.693 1.693 0 00.759.152 2.2 2.2 0 001.173-.348 1.935 1.935 0 00.467-.418 1.418 1.418 0 00.271-.559l.372-1.623zM1085.478 1341.053a2.7 2.7 0 01-.515-.048.853.853 0 01-.406-.2.755.755 0 01-.223-.414 1.677 1.677 0 01.039-.7l1.108-4.781a1.238 1.238 0 00.048-.418.458.458 0 00-.087-.244.333.333 0 00-.2-.114 1.284 1.284 0 00-.288-.027l.684-.945a2.7 2.7 0 01.515.048.842.842 0 01.406.2.752.752 0 01.223.418 1.7 1.7 0 01-.039.706l-1.107 4.769a1.238 1.238 0 00-.048.418.449.449 0 00.087.244.321.321 0 00.2.114 1.28 1.28 0 00.288.027l-.684.948z"/></g><path d="M1026.677 1273.076a14.983 14.983 0 11-14.983-14.983 14.983 14.983 0 0114.983 14.983z" fill="none"/><path d="M996.999 1276.014a9.067 9.067 0 01.566-3.864 2.469 2.469 0 00-.672-1.388 14.875 14.875 0 00.106 5.252zM997.4 1277.593v-.019a9.216 9.216 0 01-.077-.256c.024.088.048.183.077.275zM996.888 1270.761a.035.035 0 000-.017zM997.03 1276.181a3.26 3.26 0 01-.031-.167.172.172 0 000 .034c.01.043.022.087.031.133zM1001.649 1280.437a.385.385 0 00-.092.527.368.368 0 00.515.1.385.385 0 00.092-.527.368.368 0 00-.515-.1zM1003.378 1283.638a.383.383 0 00-.094.527.367.367 0 00.515.1.382.382 0 00.089-.527.362.362 0 00-.51-.1zM1001.722 1282.384a.306.306 0 00-.073.421.293.293 0 00.411.085.308.308 0 00.073-.423.293.293 0 00-.411-.083zM1001.738 1275.156a.392.392 0 00.549.111.412.412 0 00.1-.563.39.39 0 00-.549-.111.411.411 0 00-.1.563zM1003.242 1280.071a.389.389 0 00-.549-.111.412.412 0 00-.1.563.39.39 0 00.549.111.406.406 0 00.1-.563zM1021.386 1283.685a25.311 25.311 0 00-1.722 1.18.8.8 0 00.261.75 14.967 14.967 0 001.973-1.545.779.779 0 00-.512-.385zM1024.271 1278.708a2.42 2.42 0 011.241-.43 1.763 1.763 0 00-.278-1.262 1.655 1.655 0 00-2.331-.472 1.738 1.738 0 00-.418 2.389 1.707 1.707 0 00.984.706 2.53 2.53 0 01.802-.931z" fill="#fff" fill-rule="evenodd"/><path d="M1023.747 1282.004c.1-.138.2-.278.3-.421a1.855 1.855 0 01.629-2.208 1.686 1.686 0 01.759-.3c.07-.16.135-.319.2-.481a2.161 2.161 0 00-1.216.389 2.328 2.328 0 00-.672 3.021z" fill="#fff" fill-rule="evenodd"/><path d="M1024.279 1281.237a14.933 14.933 0 00.987-1.78 1.4 1.4 0 00-.4.193 1.505 1.505 0 00-.587 1.587zM1010.596 1275.77a2.1 2.1 0 00-.5 2.882 2 2 0 002.81.571 2.1 2.1 0 00.5-2.88 2 2 0 00-2.81-.573zM1023.788 1269.56a2.684 2.684 0 010-2.866 2.519 2.519 0 01.677-.706 2.478 2.478 0 00-3.722 1.074 3.918 3.918 0 01-2.169-1.922c.723-.239 1.717.464 1.717.464a5.067 5.067 0 00-1.736-1.647 3.8 3.8 0 01-1.857-.247 4.992 4.992 0 011.828 2.827 7.874 7.874 0 002.2.568 2.7 2.7 0 00.213 2.447.632.632 0 01.065-.046 2.48 2.48 0 012.784.054z" fill="#fff" fill-rule="evenodd"/><path d="M1025.166 1266.7a2.7 2.7 0 01.406 2.017 2.626 2.626 0 01-.45 1.028.894.894 0 00-1.216-.2.529.529 0 00-.068.06c-.017-.012-.031-.031-.051-.044.012.019.029.034.039.051a.938.938 0 00-.213 1.1c-.017.012-.036.017-.053.029l.06-.015a1.188 1.188 0 00.058.109.9.9 0 001.262.256.924.924 0 00.387-.754 2.579 2.579 0 011.074.414c.031 0 .065-.012.1-.019a14.9 14.9 0 00-.537-2.242 15.059 15.059 0 00-1.173-2.694 2.582 2.582 0 00-.324.191 2.644 2.644 0 01.699.713z" fill="#fff" fill-rule="evenodd"/><path d="M1026.499 1270.733a1.273 1.273 0 01-.1.019c.036.027.075.053.111.082zM1026.539 1273.455a2.61 2.61 0 01-1.652-1.182 2.553 2.553 0 01-1.112 1.681 2.4 2.4 0 01-.9.358 2.566 2.566 0 002.624 1.2 2.476 2.476 0 001.059-.467 15.509 15.509 0 00.123-1.56l-.142-.03zM1023.558 1270.743a2.564 2.564 0 01-2.58-1.124c-.015-.022-.027-.048-.044-.07a2.648 2.648 0 00-.687 3.569 2.563 2.563 0 002.624 1.195 2.759 2.759 0 01-.365-.936 2.619 2.619 0 011.052-2.634zM1003.074 1270.779a.385.385 0 00-.092.527.367.367 0 00.515.1.385.385 0 00.092-.527.364.364 0 00-.515-.1zM1002.576 1272.099a.291.291 0 00-.411-.082.3.3 0 00-.073.421.291.291 0 00.411.082.309.309 0 00.073-.421zM1018.928 1268.929a.409.409 0 00-.1.561.389.389 0 00.549.111.411.411 0 00.1-.563.393.393 0 00-.549-.109zM1008.38 1265.91a.411.411 0 00-.1.563.39.39 0 00.549.111.412.412 0 00.1-.563.394.394 0 00-.549-.111zM1002.297 1270.285a.411.411 0 00.1-.563.394.394 0 00-.549-.111.414.414 0 00-.1.563.392.392 0 00.549.111zM1003.865 1269.77a.409.409 0 00-.1.561.39.39 0 00.549.111.409.409 0 00.1-.561.39.39 0 00-.549-.111zM1006.239 1268.511a.308.308 0 00-.075.421.294.294 0 00.411.085.311.311 0 00.075-.423.29.29 0 00-.411-.083zM1009.752 1267.111a.308.308 0 00-.075.421.291.291 0 00.411.082.3.3 0 00.073-.421.288.288 0 00-.409-.082zM1003.446 1260.579l.029.015zM1004.266 1260.271c.027-.087.056-.174.087-.252-.024.012-.046.027-.07.041-.005.069-.01.139-.017.211zM1003.949 1260.264zM1003.357 1260.9a2.593 2.593 0 01-.264-.082l-.128.087a2.09 2.09 0 01.392-.005zM1003.7 1260.412c.082-.051.164-.1.249-.15-.087.046-.167.099-.249.15zM1003.441 1260.576c.031-.019.06-.044.092-.063-.027.022-.061.042-.092.063zM1002.96 1260.905c-.094.068-.186.135-.278.206l.283-.213s-.003.007-.005.007zM1003.436 1260.579c-.116.077-.232.157-.348.237.114-.08.23-.16.346-.237zM1003.947 1260.254v.007c.111-.068.22-.138.334-.2-.114.063-.223.128-.334.193zM1004.353 1260.02c.135-.077.276-.147.416-.22v-.007c-.14.075-.276.15-.416.227zM1004.356 1261.483a.591.591 0 00.143-.81.564.564 0 00-.791-.162.594.594 0 00-.143.813.565.565 0 00.791.159z" fill="#fff" fill-rule="evenodd"/><path d="M1001.325 1265.459a2.047 2.047 0 00.767.326 2.319 2.319 0 00.285.027 1.305 1.305 0 00-.232 1.55 1.483 1.483 0 001-1.6 2.444 2.444 0 00.805-.351 1.4 1.4 0 00.776 1.717 1.579 1.579 0 00-.411-2.014 2.558 2.558 0 00.735-1.4 3.439 3.439 0 00.048-.588c.232.3.462.45.631.271.244-.261-.106-.808-.547-1.315.585.467 1.209.82 1.34.433.118-.343-.418-.7-1.018-.977.713.181 1.419.244 1.386-.167-.031-.368-.658-.467-1.311-.472.718-.133 1.381-.375 1.187-.738-.174-.324-.781-.15-1.374.121.578-.414 1.069-.9.808-1.156-.348.138-.694.288-1.03.452-.065.068-.128.14-.191.213l.092-.164c-.1.051-.206.109-.307.162a1.183 1.183 0 01-.213.609c.218-.254.462-.464.607-.351.162.128-.094.382-.4.6.3-.14.607-.227.7-.063.1.184-.237.307-.6.375.331 0 .651.053.665.237.017.21-.341.179-.7.087.3.143.576.322.517.5-.068.2-.384.017-.682-.22.222.256.4.534.278.667-.14.15-.36-.147-.539-.486.1.326.157.653-.012.721-.189.075-.271-.283-.3-.667-.036.339-.116.655-.3.648-.2-.012-.135-.372-.01-.73-.167.29-.37.544-.532.459-.181-.1.022-.4.28-.665-.271.193-.556.339-.672.193-.131-.164.177-.348.522-.484-.326.06-.643.07-.694-.109-.155.118-.312.235-.464.358a5.8 5.8 0 00.445-.063c-.68.268-1.286.631-1.03.953.227.285.791 0 1.323-.38-.51.532-.912 1.124-.554 1.311.322.167.718-.334 1.047-.907-.247.706-.377 1.417.022 1.439.355.019.515-.607.585-1.274.051.67.189 1.3.479 1.33a2.044 2.044 0 01-2.36 1.446 1.713 1.713 0 01-1.318-1.973.236.236 0 00-.181-.273.207.207 0 00-.177.041l-.06.068a.242.242 0 00-.027.077 2.218 2.218 0 00.6 1.93 1.09 1.09 0 00-1.262.863 1.232 1.232 0 001.578-.597zm3.439-2.841h-.036l-.051-.177c.024.065.059.121.087.177zM1013.002 1258.293c.056-.039.111-.082.162-.126a14.936 14.936 0 00-2.866-.01 2.226 2.226 0 002.704.136zM1015.351 1262.027a4.984 4.984 0 01.268-3.071 10.04 10.04 0 00-.235-.4l-.2-.051q-.192-.047-.384-.087a3.953 3.953 0 01.007 1.758c-.713-.3-1.037-1.492-1.037-1.492a5.406 5.406 0 00.126 1.818 4.1 4.1 0 011.455 1.525zM1019.766 1261.609a8.237 8.237 0 00.546-.791c-.1-.07-.2-.138-.3-.206a3.641 3.641 0 01-1.7.684 2.044 2.044 0 01.711-1.286 6.763 6.763 0 00-.167-.089 4.689 4.689 0 00-1.407.788 3.931 3.931 0 01-.779 1.62 4.563 4.563 0 013.096-.72z" fill="#fff" fill-rule="evenodd"/><path d="M1015.57 1263.923a.859.859 0 00.455-.152.943.943 0 00.227-1.294.9.9 0 00-1.262-.256.953.953 0 00-.169.157 4.99 4.99 0 01-.924-1.874 7.281 7.281 0 00-3.359-.994 3.879 3.879 0 012.4 1.91c-.716.264-1.729-.413-1.729-.413a5.38 5.38 0 00.849.948 4.33 4.33 0 012.711.493.936.936 0 00-.155.665 4.755 4.755 0 01-2.556-1.158 7.506 7.506 0 00-2.445.742 3.709 3.709 0 012.974.515c-.5.585-1.7.484-1.7.484a4.977 4.977 0 001.683.505 3.9 3.9 0 012.043-1.057.987.987 0 00.145.37.918.918 0 00.75.413 4.749 4.749 0 01-2.092 2.462 8.17 8.17 0 00-.1 2.781 3.8 3.8 0 011.386-2.718 2.532 2.532 0 01-.075 1.814 4.9 4.9 0 001.262-2.3 4.054 4.054 0 01-.319-2.043zM1016.262 1262.175a4.73 4.73 0 011.2-1.468 5.822 5.822 0 00.155-1.4c-.239-.1-.481-.2-.728-.29a3.533 3.533 0 01-.559.856 1.8 1.8 0 01-.3-1.141 8.375 8.375 0 00-.271-.077c-.051.1-.089.2-.133.3a4.815 4.815 0 01.636 3.22zM1016.918 1263.389a4.834 4.834 0 011.635.566 6.908 6.908 0 003.3-1.456v1.891l1.671-.505a15.059 15.059 0 00-1.649-1.8l-.027-.024V1262.48a3.672 3.672 0 01-2.938.1c.37-.682 1.555-.837 1.555-.837a5.129 5.129 0 00-.7-.128 4.369 4.369 0 01-2.847 1.774z" fill="#fff" fill-rule="evenodd"/><path d="M1014.927 1263.848a4.624 4.624 0 01-2.353.353 7.558 7.558 0 00-1.756 2.764 3.647 3.647 0 012.5-1.683c.022.788-.912 1.543-.912 1.543a4.962 4.962 0 001.018-.435 4.253 4.253 0 011.503-2.542z" fill="#fff" fill-rule="evenodd"/><path d="M1015.948 1263.883a5.2 5.2 0 01-.051 2.084 5.635 5.635 0 00.728 1.212q-.207.573-.462 1.122a.918.918 0 00-.193-.073c-1.236-.3-2.191 1.773-2.858 4.046.278-2.66.143-5.24-1.248-4.972-1.24.242-1.277 2.556-.972 4.926-.81-2.561-1.961-4.88-3.112-4.043-.808.588-.428 2.041.365 3.634-1.369-1.521-2.72-2.483-3.344-1.5-.687 1.079.883 2.764 2.733 4.239-2.329-1.243-4.725-2.058-4.943-.619-.131.866.783 1.55 2.084 2.082a13.366 13.366 0 01-3.18-.256c-.329-.068-.651-.15-.967-.247a8.358 8.358 0 00.206-7.1 4.732 4.732 0 001.163.4 5.849 5.849 0 006.826-4.708 1.938 1.938 0 002.225 1.666 2.118 2.118 0 00-2.169-1.956c.017-.092.031-.186.044-.276a1.329 1.329 0 001.843-.474 1.46 1.46 0 00-1.792-.092 7.6 7.6 0 00-1.173-4.338c-.152.041-.3.087-.455.135a7.234 7.234 0 011.047 5.182 5.35 5.35 0 01-6.316 4.406 4.251 4.251 0 01-1.6-.689c-.085-.155-.14-.239-.14-.239a1.173 1.173 0 00-.1.053 4.566 4.566 0 01-1.4-1.922 9.06 9.06 0 00-.278.5 5.036 5.036 0 001.241 1.647 7.446 7.446 0 00-2.665 2.307c-.051.242-.094.486-.133.728a2.083 2.083 0 01.849.967 11.071 11.071 0 012.138-3.18 30.051 30.051 0 00-1.666 4.026 4.941 4.941 0 012.839-1.388 6.321 6.321 0 00-3.072 2.117c-.106.37-.206.747-.29 1.124a5.5 5.5 0 012.791-2.043 6.649 6.649 0 00-2.962 2.9 9.325 9.325 0 00-.128 2.3 15.087 15.087 0 002.164 4.314 16.183 16.183 0 002.568 2.13c-2.522-2.377-1.163-6.626-.721-7.8a13.629 13.629 0 004.326.177c.329.1.667.2 1.011.285-2.6-.16-5.1.1-4.72 1.516.336 1.26 2.585 1.192 4.858.767-2.416.953-4.57 2.244-3.664 3.385.808 1.018 2.812 0 4.7-1.344-1.809 1.893-3.24 3.99-1.968 4.657 1.137.595 2.546-1.182 3.719-3.219-.88 2.5-1.342 5.035.077 5.112 1.265.068 1.833-2.162 2.08-4.529.2 2.674.793 5.2 2.106 4.667 1.173-.469.8-2.759.075-5.042a14.41 14.41 0 001.874 2.858c-.077.672-.14 1.349-.184 2.022.16-.044.317-.092.474-.14.036-.488.08-.982.133-1.473a1.9 1.9 0 00.573.346 1.233 1.233 0 00-.355.653s1.083.484 1.734-.883a1.978 1.978 0 00-.421-.065 1.557 1.557 0 00.048-1.528.381.381 0 00-.118-.288 9.094 9.094 0 00-.991-1.606 22.1 22.1 0 01.07-.4c1.736 1.228 3.361 1.925 3.755.776.326-.95-.759-1.922-2.259-2.776a1.46 1.46 0 00.372-.334 5.687 5.687 0 002.517-.012c.087.235.193.491.322.762a1.757 1.757 0 00-.053 2.031 2.07 2.07 0 00.488.525c0 .012-.012.022-.017.034a.38.38 0 00.254.469.42.42 0 00.109.015c.085-.085.164-.172.247-.259.022-.022.041-.046.06-.068s.034-.034.051-.053q.192-.207.377-.421c.1-.116.2-.235.293-.353.073-.089.148-.177.218-.268a2.66 2.66 0 01-.261-2.227 1.619 1.619 0 00-1.4.222c-.01.007-.017.017-.027.024q-.156-.345-.261-.646a.81.81 0 00.281-.728c-.1-1.18-1.944-1.581-4.019-1.654.012-.053.027-.1.039-.152 2.273-.5 4.171-1.313 3.543-2.488-.614-1.149-2.774-.534-4.877.43 2.121-1.516 3.908-3.3 2.769-4.193-1.016-.8-2.723.677-4.241 2.454 1.069-1.86 1.867-3.792 1.383-4.633a14.1 14.1 0 00.45-1.037 8.075 8.075 0 001.545 1.33 3.979 3.979 0 01-1.158-2.875c.757.148 1.306 1.25 1.306 1.25a5.863 5.863 0 00-.133-.757 4.313 4.313 0 01-2.574-2.648zm-17.218 15.107a1.019 1.019 0 001.579.089s-.96 1.122-1.589-.089a2.578 2.578 0 01-.725-.143 3.037 3.037 0 002.849-1.32 2.338 2.338 0 01-2.114 1.463zm-.215-.791a10.659 10.659 0 001.785-2.271 10.736 10.736 0 001.081.281c-1.439 2.84-2.866 1.992-2.866 1.992zm17.89 3.85a21.215 21.215 0 00-.556-.663c.2.157.394.31.592.457l-.036.207zm1.214-2.452a1.017 1.017 0 00-.1.1c-.058-.029-.114-.058-.174-.085 0-.027.012-.053.017-.077.087.027.172.046.257.063zm-.174-2.447c0 .012-.007.027-.01.039h-.172zm-1.683-2.986c.578.452-.329 1.359-1.4 2.128 1.069-.491 2.162-.8 2.476-.218.351.653-.844 1.091-2.14 1.332 1.178.007 2.309.186 2.363.846.061.74-1.211.631-2.5.3 1.079.5 2.048 1.141 1.835 1.763-.237.7-1.366.06-2.418-.781.791.912 1.427 1.9.984 2.37-.5.53-1.279-.522-1.913-1.727.365 1.158.556 2.321-.039 2.561-.665.268-.967-1.013-1.069-2.37-.126 1.2-.413 2.334-1.057 2.3-.721-.039-.486-1.323-.039-2.595-.595 1.033-1.311 1.937-1.889 1.635-.648-.339.08-1.4 1-2.365-.96.684-1.976 1.2-2.387.682-.459-.578.631-1.236 1.86-1.719-1.156.215-2.295.251-2.467-.389-.191-.718 1.074-.849 2.4-.769-1.149-.293-2.213-.742-2.113-1.393.109-.73 1.325-.317 2.508.314-.938-.747-1.736-1.6-1.386-2.152.317-.5 1-.01 1.7.764-.4-.808-.595-1.548-.186-1.845.585-.423 1.17.752 1.579 2.053-.155-1.2-.135-2.379.493-2.5.706-.135.776 1.175.634 2.525.336-1.153.822-2.208 1.448-2.055.7.174.244 1.39-.423 2.551.765-.902 1.63-1.649 2.146-1.245zM1020.862 1264.063a.309.309 0 00-.073.423.291.291 0 00.411.082.308.308 0 00.075-.421.3.3 0 00-.413-.084z" fill="#fff" fill-rule="evenodd"/><path d="M1009.675 1260.594a.408.408 0 00.1-.561.392.392 0 00-.549-.111.412.412 0 00-.1.563.391.391 0 00.549.109zM1023.147 1264.421a.409.409 0 00-.1.561.389.389 0 00.549.111.408.408 0 00.1-.561.394.394 0 00-.549-.111zM1007.482 1265.244c.041-.742-.554-.684-.609-.677a.566.566 0 00-.423-.416 16.884 16.884 0 00-1.257.858.577.577 0 00.416.665.61.61 0 00.4.776c.4.118.428-.044.549-.215a.54.54 0 00.8-.372.468.468 0 00-.034-.329.451.451 0 00.158-.29zm-.9.314a.368.368 0 01-.52-.106.391.391 0 01.092-.534.369.369 0 01.52.106.385.385 0 01-.092.534z" fill="#fff" fill-rule="evenodd"/><rect data-name="Retângulo 68" width="2" height="40" rx="1" transform="translate(933 1289)" fill="#fff"/></g></svg>