<svg width="57" height="37" viewBox="0 0 57 37" fill="none" xmlns="http://www.w3.org/2000/svg">
<path fill-rule="evenodd" clip-rule="evenodd" d="M10.0781 19.6773C10.6608 18.4432 11.1496 17.1671 11.5405 15.8598C11.8507 14.8706 13.0028 14.2183 14.3766 14.2183C15.4042 14.2183 16.2143 15.0585 15.8092 15.7046C15.4042 16.3507 15.0311 16.979 14.564 17.783C13.0383 20.4804 12.8517 20.8231 10.4845 25.6308L9.54988 27.4956C9.18757 28.1674 8.8449 28.8496 8.52225 29.5412C8.05518 30.4739 6.74967 31.0328 5.37593 31.0328C4.03631 31.0328 2.91561 30.2864 2.79108 29.2918C2.69802 28.4835 2.57351 27.707 2.4481 26.9039C2.32358 26.0637 2.16714 25.1629 2.01204 24.2989C1.85695 23.4348 1.73109 22.5941 1.57599 21.7548L1.45146 21.0407C1.2649 19.8954 1.20288 19.5854 0.831083 17.8126C0.800063 17.6512 0.364009 15.7037 0.395029 15.7342C0.114077 14.9311 1.08102 14.217 2.13968 14.2479H2.88637C4.13248 14.217 5.06705 14.9931 5.09807 15.9213C5.12909 16.5404 5.19115 17.4438 5.34669 18.7443C5.59779 21.4934 5.99377 24.2274 6.53298 26.9349L10.0781 19.6773ZM20.3869 23.464L21.2905 18.4392C21.477 17.4137 21.6321 16.6673 21.7575 16.1079C21.7609 15.9423 21.7817 15.7774 21.8196 15.6161C21.8816 14.8078 20.9776 14.0312 19.9198 14.2484C19.5768 14.3103 19.2649 14.3726 18.8288 14.4345C18.6139 14.4347 18.4015 14.4807 18.2058 14.5693C18.0101 14.658 17.8357 14.7874 17.6942 14.9488C17.5526 15.1102 17.4473 15.2999 17.3852 15.5052C17.3231 15.7105 17.3057 15.9267 17.3341 16.1392C17.3651 17.2576 17.0846 19.2736 16.3375 23.3703L15.8079 26.4104C15.5903 27.6796 15.3719 28.5503 15.2163 29.2025C15.209 29.2548 15.1987 29.3067 15.1853 29.3578C15.1832 29.5756 15.2258 29.7915 15.3104 29.9923C15.395 30.1931 15.5199 30.3745 15.6774 30.5253C15.8349 30.6761 16.0216 30.7933 16.2261 30.8694C16.4306 30.9456 16.6486 30.9793 16.8666 30.9683H17.1152C18.2993 30.9683 19.4195 30.3492 19.4824 29.451C19.5777 28.3955 19.8263 26.5683 20.3869 23.4649V23.464ZM29.4504 13.7832C29.61 12.7308 29.8492 11.6921 30.1661 10.6758C30.3837 9.86743 29.2315 9.27706 28.1418 9.49507C26.8022 9.80461 25.869 10.6758 25.7746 11.6703C25.717 12.3584 25.6232 13.043 25.4937 13.7212C25.1512 13.6961 24.8111 13.7955 24.5363 14.001C24.2616 14.2066 24.0707 14.5045 23.9989 14.8396C23.9059 15.3367 24.404 15.7722 25.0266 15.8961L23.0644 26.2141C22.9123 26.9198 22.8188 27.6368 22.7847 28.3579C22.823 29.0387 23.0732 29.6906 23.5004 30.2227C23.9675 30.8749 25.3071 31.4706 27.3934 31.4706C27.6638 31.4757 27.9342 31.4654 28.2035 31.4396C29.3242 31.2844 30.1346 30.5959 30.3208 29.8185C30.4138 29.2901 29.6038 28.7621 28.7636 28.8859C28.5503 28.943 28.3308 28.9741 28.11 28.9788C27.4253 28.9788 26.9259 28.5127 26.9259 27.3629C27.0054 26.0426 27.2034 24.7322 27.5175 23.4472C27.6105 22.9811 27.767 22.3275 27.8915 21.6133C28.047 20.7732 28.2345 19.8414 28.3896 19.0043C28.5762 18.0717 28.7636 17.1395 28.9191 16.3953C28.9501 16.2091 28.9811 16.115 29.0122 15.9602C29.4482 15.9602 29.9468 15.9602 30.5379 15.9911C31.5656 15.9911 32.4691 15.556 32.6553 14.8728C32.7798 14.2537 32.0348 13.6293 31.098 13.723C30.7878 13.754 30.4121 13.754 30.0084 13.754C29.8528 13.754 29.6982 13.7849 29.5413 13.7849H29.4491L29.4504 13.7832ZM38.5441 13.7832H38.6372C38.7928 13.7832 38.9474 13.7522 39.1043 13.7522C39.5093 13.7522 39.8833 13.7522 40.194 13.7212C41.1285 13.6284 41.8753 14.2497 41.7512 14.871C41.5646 15.5542 40.6615 15.9893 39.6339 15.9893C39.0423 15.9584 38.5441 15.9584 38.1081 15.9584C38.0771 16.1136 38.0461 16.2074 38.015 16.3935C37.8586 17.1387 37.6721 18.0712 37.4855 19.0025C37.33 19.8427 37.1425 20.7745 36.9874 21.6116C36.8629 22.3257 36.7078 22.9794 36.6134 23.4454C36.2993 24.7304 36.1013 26.0409 36.0218 27.3612C36.0218 28.5109 36.5199 28.977 37.205 28.977C37.4258 28.9724 37.6452 28.9412 37.8586 28.8841C38.7006 28.7599 39.5098 29.2883 39.4158 29.8168C39.2292 30.5942 38.4192 31.2827 37.2985 31.4379C37.0293 31.4637 36.7588 31.474 36.4884 31.4688C34.4021 31.4688 33.0625 30.8732 32.5954 30.2209C32.168 29.6889 31.9178 29.037 31.8798 28.3562C31.9137 27.635 32.0077 26.9179 32.1607 26.2123L34.1229 15.8943C33.5025 15.77 33.0023 15.3349 33.0953 14.8378C33.1671 14.5027 33.3579 14.2048 33.6327 13.9992C33.9074 13.7937 34.2475 13.6943 34.59 13.7195C34.7185 13.0411 34.8122 12.3565 34.871 11.6685C34.964 10.674 35.8986 9.80377 37.2382 9.49334C38.3279 9.27622 39.481 9.86653 39.2625 10.674C38.945 11.6902 38.7053 12.729 38.5455 13.7814L38.5441 13.7832ZM52.6529 16.2693C52.0145 16.0275 51.341 15.891 50.6587 15.8651C45.9247 15.8651 44.6795 22.5163 44.6795 25.063C44.6795 27.1759 45.271 28.6988 46.8278 28.6988C47.7313 28.6988 48.8831 28.2018 49.9418 26.6479C50.7837 25.4981 51.3124 23.6953 51.8415 20.5897L52.6516 16.2697L52.6529 16.2693ZM55.0201 14.2493L54.522 14.4355C53.4654 14.0002 52.3327 13.7784 51.1896 13.7832C49.2299 13.7465 47.3132 14.3587 45.739 15.5241C41.1924 19.129 40.3508 24.7857 40.3508 26.2154C40.3508 29.7579 42.9042 31.4423 45.4913 31.4423C47.9206 31.4423 49.5708 29.5408 50.8479 27.8012C50.7272 28.4276 50.6442 29.0606 50.5994 29.6969C50.5373 30.4743 51.4715 31.1266 52.5616 31.0956C53.6203 31.0647 54.6479 30.5053 54.6479 29.7278C54.7549 27.85 54.984 25.9812 55.3339 24.133L55.8945 21.0876C56.424 18.2283 56.7666 16.6434 56.9841 15.6179C57.1384 14.7777 56.1422 13.907 55.021 14.2471L55.0201 14.2493Z" fill="white"/>
<path d="M31.32 34.154C31.2977 34.2555 31.2613 34.3534 31.2119 34.445C31.1625 34.5354 31.102 34.6195 31.032 34.6953C30.9608 34.7707 30.8797 34.8361 30.7909 34.8898C30.6994 34.9451 30.6005 34.9872 30.4971 35.015C30.5932 35.0341 30.6828 35.0772 30.7577 35.1401C30.8198 35.1958 30.8657 35.2671 30.8906 35.3466C30.9173 35.4338 30.9279 35.525 30.9217 35.616C30.9167 35.7212 30.9019 35.8257 30.8774 35.9281L30.7036 36.6724H30.1399L30.2942 36.0245C30.3202 35.9152 30.335 35.8034 30.3385 35.6911C30.3432 35.6055 30.3251 35.5203 30.2862 35.4439C30.2466 35.3743 30.1839 35.3207 30.1089 35.2922C30.0032 35.2544 29.8911 35.2372 29.7788 35.2418H29.3458L29.0135 36.6737H28.4374L29.2413 33.2143H30.4541C30.5948 33.2129 30.7351 33.2305 30.8711 33.2665C30.9852 33.2966 31.0901 33.3543 31.1764 33.4346C31.2581 33.5141 31.3141 33.6162 31.3373 33.7277C31.3636 33.8695 31.3576 34.0153 31.32 34.1544V34.154ZM30.7284 34.2256C30.7508 34.1565 30.7559 34.083 30.7434 34.0114C30.7309 33.9398 30.7011 33.8724 30.6567 33.8148C30.5833 33.7567 30.4991 33.7138 30.4089 33.6886C30.3187 33.6635 30.2244 33.6566 30.1315 33.6684H29.7123L29.4425 34.8266H29.8656C29.9551 34.826 30.0443 34.8157 30.1315 34.7957C30.2216 34.7748 30.3082 34.741 30.3886 34.6953C30.47 34.6483 30.5411 34.5854 30.5977 34.5104C30.6614 34.4263 30.7057 34.3292 30.7276 34.2261L30.7284 34.2256ZM33.4143 36.1665C33.3259 36.2852 33.2196 36.3896 33.0992 36.476C32.9804 36.5605 32.8487 36.6255 32.7093 36.6684C32.5655 36.7115 32.4162 36.7331 32.2661 36.7325C32.1003 36.7368 31.9357 36.7032 31.7849 36.6343C31.6554 36.5737 31.5435 36.481 31.4601 36.365C31.376 36.2452 31.3223 36.1068 31.3036 35.9618C31.2817 35.7943 31.2915 35.6242 31.3325 35.4603C31.3735 35.2759 31.4433 35.0991 31.5394 34.9363C31.6315 34.7772 31.7496 34.6344 31.8886 34.5139C32.025 34.3953 32.1803 34.3003 32.3481 34.2327C32.5226 34.1631 32.7089 34.1278 32.8968 34.1288C33.029 34.1275 33.1605 34.147 33.2867 34.1867C33.3988 34.2214 33.5018 34.2806 33.588 34.36C33.671 34.4387 33.7329 34.537 33.7679 34.6457C33.8075 34.7722 33.8174 34.9061 33.7967 35.0371L31.823 35.7004C31.8161 35.783 31.8207 35.8662 31.8367 35.9476C31.8509 36.0214 31.8812 36.0911 31.9254 36.1519C31.9708 36.2114 32.0306 36.2586 32.0991 36.289C32.1818 36.3245 32.2714 36.3417 32.3614 36.3394C32.447 36.3394 32.5318 36.3244 32.6122 36.2952C32.6918 36.2669 32.7665 36.2264 32.8338 36.1754C32.902 36.1232 32.9618 36.0608 33.0111 35.9905C33.0627 35.9177 33.1031 35.8377 33.1311 35.753H33.6323C33.5805 35.9012 33.5057 36.0404 33.4108 36.1656L33.4143 36.1665ZM33.1485 34.6267C33.0533 34.5545 32.9355 34.5182 32.8161 34.5241C32.7007 34.5219 32.586 34.5441 32.4797 34.5891C32.3822 34.6316 32.2932 34.6915 32.2174 34.766C32.141 34.8417 32.0761 34.9281 32.0246 35.0225C31.9721 35.119 31.9307 35.2213 31.9014 35.3272L31.8877 35.3851L33.2885 34.9146C33.2864 34.8598 33.273 34.8061 33.2491 34.7567C33.2251 34.7074 33.1912 34.6636 33.1493 34.6281L33.1485 34.6267ZM36.0253 35.9458C35.9964 36.0838 35.9335 36.2123 35.8423 36.3199C35.7564 36.4189 35.6528 36.5012 35.5369 36.5627C35.4182 36.6257 35.2907 36.6704 35.1585 36.6953C35.0286 36.7205 34.8965 36.7334 34.7641 36.7338C34.6215 36.735 34.4793 36.7181 34.3409 36.6834C34.2235 36.6555 34.1139 36.6014 34.0205 36.5251C33.9353 36.4527 33.8736 36.3567 33.8433 36.2492C33.8083 36.1152 33.8083 35.9745 33.8433 35.8406H34.3436C34.3181 35.9111 34.3122 35.9872 34.3266 36.0608C34.3409 36.1343 34.375 36.2027 34.4251 36.2585C34.5457 36.3557 34.699 36.4032 34.8536 36.3911C34.9192 36.3905 34.9845 36.3834 35.0486 36.3699C35.1169 36.3558 35.1831 36.3332 35.2458 36.3027C35.3072 36.2729 35.3628 36.2323 35.4098 36.1829C35.4564 36.1318 35.489 36.0694 35.5042 36.002C35.5215 35.944 35.5196 35.882 35.4989 35.8251C35.4766 35.7752 35.4386 35.7339 35.3907 35.7075C35.3285 35.6715 35.2613 35.6448 35.1913 35.6283C35.1111 35.608 35.0198 35.5841 34.917 35.5629C34.7943 35.5372 34.6729 35.5051 34.5536 35.4665C34.4579 35.4382 34.3679 35.3932 34.2877 35.3338C34.2209 35.2823 34.1711 35.2119 34.145 35.1317C34.1195 35.0336 34.1214 34.9304 34.1504 34.8332C34.1752 34.7225 34.2262 34.6194 34.2993 34.5325C34.3752 34.4433 34.4666 34.3684 34.5691 34.3114C34.6797 34.2505 34.7979 34.2044 34.9205 34.1744C35.0528 34.1418 35.1885 34.1256 35.3247 34.1261C35.4532 34.1255 35.5814 34.1384 35.7071 34.1646C35.8168 34.1859 35.9203 34.2312 36.0103 34.2973C36.0919 34.3601 36.1534 34.4452 36.1875 34.5423C36.225 34.6632 36.2277 34.7922 36.1951 34.9146H35.7138C35.7339 34.8522 35.7363 34.7855 35.7206 34.7219C35.705 34.6582 35.6719 34.6002 35.6252 34.5542C35.5214 34.4727 35.3914 34.4317 35.2595 34.4388C35.1705 34.4368 35.0819 34.4497 34.9972 34.4772C34.9326 34.4987 34.8718 34.5305 34.8173 34.5714C34.7742 34.6026 34.7375 34.6418 34.7092 34.6868C34.6882 34.7199 34.6732 34.7565 34.6649 34.7947C34.6538 34.8316 34.6535 34.8708 34.6641 34.9078C34.6747 34.9448 34.6958 34.9781 34.7247 35.0035C34.7911 35.0602 34.8678 35.1034 34.9507 35.1308C35.044 35.1635 35.1397 35.1893 35.2369 35.2078C35.3366 35.2273 35.4182 35.2463 35.4825 35.2657C35.5627 35.2914 35.6411 35.3201 35.7182 35.3541C35.7905 35.3833 35.8566 35.4257 35.9132 35.4793C35.9666 35.5316 36.0057 35.5968 36.0267 35.6686C36.0489 35.7602 36.0471 35.856 36.0213 35.9467L36.0253 35.9458ZM36.811 36.6856C36.7344 36.6859 36.658 36.6788 36.5828 36.6644C36.5159 36.6516 36.4538 36.6211 36.4029 36.576C36.3514 36.527 36.3169 36.4628 36.3045 36.3929C36.2883 36.2896 36.2942 36.1842 36.3218 36.0834L36.5877 34.9447C36.6024 34.8855 36.6089 34.8247 36.6071 34.7638C36.6066 34.7249 36.5939 34.6872 36.5708 34.6559C36.5481 34.6286 36.5169 34.6098 36.4822 34.6024C36.4405 34.592 36.3976 34.5869 36.3546 34.5874L36.6577 34.1691C36.7342 34.1688 36.8107 34.1759 36.8859 34.1903C36.9529 34.2026 37.0152 34.2332 37.0658 34.2787C37.1175 34.3283 37.1519 34.393 37.1642 34.4635C37.1804 34.5677 37.1745 34.674 37.1469 34.7757L36.881 35.9091C36.8634 35.9691 36.8562 36.0316 36.8598 36.094C36.8613 36.133 36.8747 36.1707 36.8983 36.2019C36.9207 36.2293 36.9521 36.2479 36.9869 36.2545C37.0287 36.2644 37.0716 36.2691 37.1145 36.2682L36.8115 36.6852L36.811 36.6856ZM37.5355 33.4328C37.537 33.4754 37.5281 33.5177 37.5097 33.5562C37.4913 33.5947 37.4638 33.6282 37.4296 33.6539C37.3627 33.7071 37.2794 33.7357 37.1939 33.7352C37.1076 33.7356 37.0238 33.707 36.9559 33.6539C36.9223 33.6276 36.8951 33.594 36.8764 33.5557C36.8577 33.5174 36.848 33.4754 36.848 33.4328C36.848 33.3902 36.8577 33.3481 36.8764 33.3098C36.8951 33.2715 36.9223 33.2379 36.9559 33.2117C37.0236 33.159 37.1069 33.1304 37.1928 33.1304C37.2786 33.1304 37.362 33.159 37.4296 33.2117C37.4638 33.2373 37.4913 33.2708 37.5097 33.3093C37.5281 33.3478 37.537 33.3901 37.5355 33.4328ZM39.7619 36.6856C39.636 36.6966 39.5103 36.6624 39.4073 36.5892C39.3697 36.5556 39.3392 36.5149 39.3177 36.4693C39.2962 36.4237 39.284 36.3743 39.2819 36.3239C39.1571 36.4543 39.0068 36.5578 38.8404 36.628C38.6739 36.6983 38.4949 36.7339 38.3141 36.7325C38.1483 36.7368 37.9837 36.7032 37.8329 36.6343C37.7033 36.5737 37.5915 36.481 37.508 36.365C37.4239 36.2452 37.3703 36.1068 37.3516 35.9618C37.3298 35.7943 37.3395 35.6242 37.3804 35.4603C37.4215 35.2759 37.4913 35.0991 37.5874 34.9363C37.6796 34.7772 37.7976 34.6345 37.9366 34.5139C38.073 34.3954 38.2283 34.3003 38.3961 34.2327C38.5705 34.1631 38.7569 34.1278 38.9447 34.1288C39.0879 34.127 39.2298 34.1547 39.3617 34.2101C39.4802 34.2605 39.5815 34.3441 39.6533 34.4507L39.769 33.9515C39.8013 33.8188 39.7947 33.7268 39.7495 33.6799C39.72 33.6546 39.6855 33.6357 39.6483 33.6244C39.611 33.6131 39.5718 33.6098 39.5332 33.6145L39.8363 33.1966C39.9215 33.1952 40.0066 33.2049 40.0894 33.2254C40.156 33.2411 40.2172 33.2744 40.2666 33.3218C40.3151 33.3725 40.3461 33.4372 40.3552 33.5066C40.3664 33.6056 40.3579 33.7058 40.3304 33.8016L39.8589 35.8291C39.8237 35.9389 39.8196 36.0563 39.847 36.1683C39.8736 36.2368 39.9489 36.2708 40.0708 36.2708L39.7654 36.6848L39.7619 36.6856ZM39.511 35.038C39.5216 34.9673 39.5132 34.8951 39.4869 34.8286C39.4605 34.7621 39.417 34.7038 39.3608 34.6594C39.3047 34.614 39.2403 34.5799 39.1712 34.5591C39.0987 34.5367 39.0232 34.5255 38.9474 34.5259C38.8141 34.524 38.6818 34.5476 38.5574 34.5953C38.4446 34.6398 38.3416 34.7059 38.2543 34.7899C38.1662 34.8754 38.0931 34.9751 38.038 35.0848C37.9791 35.2031 37.9345 35.328 37.9051 35.4568C37.8771 35.5725 37.8666 35.6917 37.8741 35.8105C37.8793 35.909 37.9084 36.0047 37.9587 36.0895C38.0088 36.1695 38.0805 36.2336 38.1657 36.2744C38.2711 36.3224 38.3862 36.3454 38.502 36.3416C38.6864 36.3404 38.8666 36.287 39.0218 36.1877C39.1004 36.1377 39.1703 36.0753 39.2288 36.0029C39.2867 35.9304 39.3277 35.8459 39.3489 35.7557L39.5137 35.0384L39.511 35.038ZM42.4123 36.1665C42.3238 36.2852 42.2176 36.3896 42.0972 36.476C41.9786 36.5609 41.8469 36.6259 41.7073 36.6684C41.5635 36.7115 41.4142 36.7331 41.2641 36.7325C41.0983 36.7368 40.9337 36.7032 40.7829 36.6343C40.6533 36.5738 40.5415 36.481 40.4581 36.365C40.374 36.2452 40.3203 36.1068 40.3016 35.9618C40.2797 35.7943 40.2895 35.6242 40.3304 35.4603C40.3715 35.2759 40.4413 35.0991 40.5374 34.9363C40.6295 34.7772 40.7475 34.6345 40.8865 34.5139C41.023 34.3953 41.1783 34.3003 41.3461 34.2327C41.5205 34.1631 41.7068 34.1278 41.8947 34.1288C42.0269 34.1275 42.1585 34.1471 42.2847 34.1867C42.3966 34.2214 42.4994 34.2807 42.5855 34.36C42.6686 34.4387 42.7304 34.537 42.7655 34.6457C42.8051 34.7722 42.815 34.9061 42.7943 35.0371L40.8206 35.7004C40.8136 35.783 40.8183 35.8662 40.8343 35.9476C40.8485 36.0214 40.8787 36.0911 40.9229 36.1519C40.9684 36.2114 41.0281 36.2586 41.0966 36.289C41.1794 36.3245 41.2689 36.3417 41.359 36.3394C41.4445 36.3394 41.5294 36.3244 41.6098 36.2952C41.6894 36.2668 41.7641 36.2264 41.8314 36.1754C41.8996 36.1232 41.9594 36.0608 42.0086 35.9905C42.0602 35.9177 42.1006 35.8377 42.1287 35.753H42.629C42.5763 35.9008 42.5016 36.0399 42.4074 36.1656L42.4123 36.1665ZM42.1464 34.6267C42.0512 34.5545 41.9335 34.5182 41.8141 34.5241C41.6986 34.5219 41.584 34.5441 41.4777 34.5891C41.3801 34.6316 41.2912 34.6915 41.2154 34.766C41.139 34.8417 41.074 34.9281 41.0226 35.0225C40.97 35.119 40.9287 35.2213 40.8994 35.3272L40.8857 35.3851L42.2865 34.9146C42.2847 34.8598 42.2714 34.806 42.2474 34.7566C42.2234 34.7072 42.1893 34.6634 42.1473 34.6281L42.1464 34.6267ZM45.1491 36.6861C45.064 36.6875 44.9791 36.6786 44.8961 36.6596C44.8288 36.6456 44.7671 36.612 44.7189 36.5631C44.6708 36.5122 44.6398 36.4476 44.6302 36.3783C44.6186 36.2799 44.627 36.1802 44.655 36.0851L44.8478 35.2587C44.8693 35.1717 44.8814 35.0828 44.8841 34.9933C44.8872 34.917 44.8741 34.8409 44.8456 34.77C44.8186 34.706 44.7721 34.6522 44.7126 34.6161C44.6353 34.5739 44.5477 34.5538 44.4596 34.5582C44.3565 34.5566 44.2544 34.5778 44.1605 34.6201C44.0714 34.6609 43.9908 34.7179 43.9225 34.7881C43.8533 34.8595 43.7948 34.9406 43.7488 35.0287C43.7021 35.1183 43.6673 35.2136 43.6451 35.3122L43.3323 36.6711H42.8089L43.2077 34.9464C43.2401 34.7987 43.2344 34.7028 43.1905 34.6577C43.1611 34.6327 43.1269 34.6138 43.0901 34.6023C43.0532 34.5907 43.0144 34.5867 42.976 34.5904L43.2791 34.1726C43.3644 34.1697 43.4494 34.1828 43.5299 34.2111C43.5878 34.2322 43.639 34.268 43.6788 34.315C43.7153 34.3611 43.74 34.4155 43.7506 34.4733C43.7633 34.5388 43.7684 34.6056 43.7657 34.6723C43.8738 34.4991 44.0257 34.3574 44.2062 34.2615C44.3796 34.173 44.5719 34.1275 44.7667 34.1288C44.8746 34.1192 44.9832 34.1355 45.0835 34.1765C45.1837 34.2174 45.2726 34.2817 45.3428 34.364C45.4044 34.4553 45.4444 34.5593 45.4597 34.6683C45.4751 34.7772 45.4654 34.8882 45.4314 34.9929L45.2387 35.8291C45.2035 35.9389 45.1993 36.0563 45.2267 36.1683C45.2537 36.2368 45.3286 36.27 45.4505 36.2664L45.1483 36.6878L45.1491 36.6861ZM47.7991 36.1665C47.7106 36.2852 47.6044 36.3896 47.4841 36.476C47.3654 36.5609 47.2337 36.6259 47.0941 36.6684C46.9504 36.7115 46.801 36.7331 46.651 36.7325C46.4851 36.7368 46.3205 36.7032 46.1697 36.6343C46.0401 36.5737 45.9283 36.481 45.8449 36.365C45.7608 36.2452 45.7071 36.1068 45.6885 35.9618C45.6665 35.7943 45.6763 35.6242 45.7172 35.4603C45.7583 35.2759 45.8281 35.0991 45.9242 34.9363C46.0164 34.7772 46.1343 34.6344 46.2734 34.5139C46.4098 34.3953 46.5651 34.3003 46.7329 34.2327C46.9074 34.1631 47.0937 34.1278 47.2815 34.1288C47.4138 34.1275 47.5454 34.1471 47.6715 34.1867C47.7835 34.2214 47.8862 34.2807 47.9724 34.36C48.0554 34.4387 48.1172 34.537 48.1523 34.6457C48.1919 34.7722 48.2018 34.9061 48.1811 35.0371H47.6808C47.6927 34.9699 47.6893 34.9011 47.671 34.8354C47.6527 34.7697 47.6198 34.709 47.5749 34.6577C47.5249 34.611 47.4658 34.5751 47.4013 34.5523C47.3368 34.5295 47.2683 34.5202 47.2 34.525C47.0727 34.5229 46.9465 34.5499 46.8313 34.6041C46.726 34.6549 46.6318 34.7259 46.5539 34.8129C46.4753 34.9019 46.4104 35.0021 46.3611 35.11C46.3101 35.2214 46.2699 35.3373 46.241 35.4563C46.2159 35.5643 46.2037 35.6749 46.2047 35.7857C46.2038 35.8834 46.2242 35.9802 46.2645 36.0692C46.3021 36.1502 46.3625 36.2186 46.4383 36.266C46.5323 36.32 46.64 36.3459 46.7484 36.3407C46.834 36.3407 46.9189 36.3257 46.9993 36.2965C47.0788 36.2681 47.1536 36.2277 47.2208 36.1766C47.2891 36.1245 47.3489 36.0622 47.3981 35.9918C47.4497 35.919 47.4902 35.839 47.5182 35.7544H48.0185C47.9657 35.9022 47.891 36.0413 47.7969 36.1669L47.7991 36.1665ZM48.8214 36.6856C48.7449 36.6859 48.6684 36.6788 48.5932 36.6644C48.5263 36.6517 48.4642 36.6211 48.4133 36.576C48.3618 36.527 48.3273 36.4628 48.315 36.3929C48.2988 36.2897 48.3046 36.1842 48.3322 36.0834L48.5981 34.9447C48.6127 34.8855 48.6191 34.8247 48.6172 34.7638C48.6167 34.7249 48.604 34.6872 48.5808 34.6559C48.5582 34.6286 48.527 34.6097 48.4922 34.6024C48.4505 34.592 48.4076 34.5869 48.3646 34.5874L48.6677 34.1691C48.7443 34.1688 48.8207 34.1759 48.8959 34.1903C48.9629 34.2026 49.0252 34.2332 49.0758 34.2787C49.1275 34.3283 49.1619 34.393 49.1742 34.4635C49.1904 34.5677 49.1846 34.674 49.1569 34.7757L48.891 35.9091C48.8734 35.9691 48.8662 36.0316 48.8697 36.094C48.8717 36.1329 48.8852 36.1704 48.9083 36.2019C48.9307 36.2293 48.9621 36.2479 48.9969 36.2545C49.0387 36.2644 49.0816 36.2691 49.1246 36.2682L48.8214 36.6852V36.6856ZM49.5491 33.4328C49.5506 33.4754 49.5417 33.5177 49.5233 33.5562C49.5048 33.5947 49.4774 33.6282 49.4432 33.6539C49.3762 33.7071 49.293 33.7357 49.2074 33.7352C49.1212 33.7356 49.0373 33.707 48.9694 33.6539C48.9358 33.6276 48.9086 33.594 48.8899 33.5557C48.8712 33.5174 48.8615 33.4754 48.8615 33.4328C48.8615 33.3902 48.8712 33.3481 48.8899 33.3098C48.9086 33.2715 48.9358 33.2379 48.9694 33.2117C49.0371 33.159 49.1205 33.1304 49.2063 33.1304C49.2921 33.1304 49.3755 33.159 49.4432 33.2117C49.4774 33.2373 49.5048 33.2708 49.5233 33.3093C49.5417 33.3478 49.5506 33.3901 49.5491 33.4328ZM51.7736 36.6861C51.648 36.6976 51.5224 36.6642 51.4192 36.5919C51.3822 36.5586 51.3523 36.5183 51.3311 36.4734C51.31 36.4284 51.298 36.3797 51.2959 36.3301C51.1643 36.4559 51.012 36.5581 50.8457 36.6326C50.6805 36.7016 50.5028 36.7358 50.3237 36.733C50.1579 36.7373 49.9933 36.7037 49.8425 36.6348C49.7129 36.5742 49.601 36.4815 49.5176 36.3655C49.4335 36.2457 49.3798 36.1073 49.3612 35.9622C49.3393 35.7947 49.3491 35.6246 49.39 35.4607C49.4311 35.2763 49.5009 35.0995 49.5969 34.9367C49.6891 34.7776 49.8071 34.6349 49.9462 34.5144C50.0826 34.3958 50.2379 34.3007 50.4057 34.2331C50.5801 34.1635 50.7664 34.1282 50.9543 34.1292C51.0974 34.1275 51.2394 34.1552 51.3713 34.2106C51.4898 34.2609 51.5911 34.3445 51.6629 34.4512L51.7209 34.1859H52.246L51.8419 35.9436C51.8096 36.0763 51.8171 36.1616 51.8667 36.2054C51.9271 36.252 52.0032 36.2734 52.079 36.2651L51.7723 36.6843L51.7736 36.6861ZM51.5229 35.0384C51.5334 34.9678 51.5251 34.8955 51.4988 34.8291C51.4725 34.7626 51.4292 34.7043 51.3731 34.6599C51.317 34.6145 51.2526 34.5804 51.1834 34.5595C51.1109 34.5372 51.0355 34.526 50.9596 34.5264C50.8264 34.5245 50.694 34.548 50.5697 34.5958C50.4568 34.6402 50.3538 34.7063 50.2665 34.7903C50.1784 34.8758 50.1053 34.9756 50.0503 35.0853C49.9913 35.2037 49.9467 35.3287 49.9173 35.4576C49.8892 35.5733 49.8788 35.6926 49.8863 35.8114C49.8916 35.9099 49.9206 36.0056 49.9709 36.0904C50.021 36.1704 50.0928 36.2345 50.1779 36.2753C50.2833 36.3233 50.3985 36.3463 50.5143 36.3425C50.6986 36.3413 50.8789 36.2879 51.0341 36.1886C51.1126 36.1386 51.1826 36.0762 51.241 36.0037C51.2989 35.9312 51.3399 35.8468 51.3611 35.7566L51.5259 35.0388L51.5229 35.0384ZM52.7694 36.6856C52.6928 36.6859 52.6164 36.6788 52.5412 36.6644C52.4743 36.6516 52.4122 36.6211 52.3613 36.576C52.3096 36.527 52.275 36.4629 52.2624 36.3929C52.2463 36.2896 52.2522 36.1842 52.2797 36.0834L52.7707 33.9692C52.7883 33.9092 52.7955 33.8467 52.792 33.7843C52.7898 33.7454 52.7764 33.708 52.7534 33.6764C52.7309 33.6497 52.6994 33.6318 52.6648 33.626C52.6228 33.6173 52.58 33.6133 52.5372 33.6141L52.8403 33.1962C52.9168 33.1959 52.9933 33.203 53.0685 33.2174C53.1354 33.2299 53.1977 33.2605 53.2484 33.3059C53.3004 33.3552 53.3351 33.4201 53.3472 33.4907C53.3635 33.5948 53.3576 33.7012 53.33 33.8029L52.8394 35.9118C52.8218 35.9717 52.8146 36.0342 52.8181 36.0966C52.8201 36.1356 52.8335 36.1731 52.8567 36.2045C52.879 36.2317 52.9105 36.2496 52.9453 36.2549C52.9873 36.2637 53.0301 36.2677 53.0729 36.2668L52.7698 36.6861L52.7694 36.6856Z" fill="white"/>
<path fill-rule="evenodd" clip-rule="evenodd" d="M13.5608 7.92468C13.519 7.3437 13.6046 6.76061 13.8116 6.21598C13.7805 5.98491 13.6762 5.76979 13.5138 5.60217C13.3912 6.37298 13.4072 7.15943 13.5608 7.92468ZM13.7385 8.62292V8.6145C13.7265 8.57693 13.7151 8.5392 13.7043 8.5013C13.715 8.54021 13.7256 8.58223 13.7385 8.62292ZM13.5116 5.60174C13.5122 5.59927 13.5122 5.59671 13.5116 5.59424V5.60174ZM13.5745 7.99853C13.5693 7.97403 13.5647 7.94941 13.5608 7.92468C13.5603 7.92968 13.5603 7.93469 13.5608 7.93969C13.5652 7.9587 13.5705 7.97818 13.5745 7.99853ZM15.6213 9.88055C15.5856 9.90655 15.5614 9.94536 15.5538 9.98884C15.5462 10.0323 15.5558 10.077 15.5806 10.1136C15.5925 10.1316 15.608 10.1471 15.626 10.159C15.644 10.171 15.6642 10.1793 15.6854 10.1834C15.7067 10.1875 15.7285 10.1874 15.7497 10.183C15.7709 10.1786 15.791 10.17 15.8088 10.1578C15.8446 10.1318 15.8688 10.093 15.8764 10.0495C15.884 10.006 15.8744 9.96131 15.8496 9.92476C15.8376 9.90677 15.8222 9.89135 15.8042 9.87937C15.7862 9.86738 15.766 9.85908 15.7447 9.85497C15.7235 9.85085 15.7017 9.851 15.6805 9.8554C15.6593 9.85979 15.6392 9.86833 15.6213 9.88055ZM16.3875 11.296C16.3515 11.3217 16.3269 11.3605 16.3191 11.4041C16.3114 11.4476 16.321 11.4925 16.3459 11.5291C16.3578 11.5472 16.3732 11.5626 16.3912 11.5746C16.4092 11.5866 16.4294 11.595 16.4507 11.5991C16.4719 11.6032 16.4938 11.6031 16.515 11.5986C16.5362 11.5942 16.5563 11.5856 16.5741 11.5733C16.6099 11.5473 16.6341 11.5084 16.6415 11.4648C16.6488 11.4213 16.6388 11.3766 16.6135 11.3403C16.6018 11.3223 16.5866 11.3069 16.5688 11.2949C16.551 11.2829 16.531 11.2746 16.5099 11.2704C16.4889 11.2663 16.4671 11.2665 16.4461 11.2709C16.4251 11.2753 16.4052 11.2838 16.3875 11.296ZM15.6537 10.7415C15.625 10.7622 15.6056 10.7932 15.5996 10.828C15.5935 10.8628 15.6013 10.8986 15.6213 10.9277C15.6307 10.9423 15.6429 10.9548 15.6571 10.9646C15.6714 10.9745 15.6875 10.9813 15.7045 10.9848C15.7214 10.9883 15.739 10.9884 15.756 10.985C15.773 10.9817 15.7891 10.975 15.8035 10.9653C15.8322 10.9444 15.8516 10.9133 15.8577 10.8783C15.8637 10.8434 15.8559 10.8075 15.8358 10.7782C15.8264 10.7637 15.8142 10.7513 15.7999 10.7415C15.7856 10.7318 15.7695 10.725 15.7525 10.7216C15.7356 10.7182 15.7181 10.7182 15.7011 10.7216C15.6841 10.725 15.668 10.7318 15.6537 10.7415ZM15.6608 7.54525C15.6734 7.5646 15.6897 7.58124 15.7088 7.59421C15.7279 7.60719 15.7495 7.61625 15.7721 7.62083C15.7948 7.6254 15.8181 7.62537 15.8408 7.62083C15.8634 7.61628 15.8849 7.60728 15.9041 7.59432C15.9423 7.56661 15.9683 7.52518 15.9766 7.47875C15.9848 7.43232 15.9747 7.38452 15.9484 7.34536C15.9359 7.32592 15.9196 7.30918 15.9005 7.29613C15.8814 7.28309 15.8598 7.27399 15.8372 7.26941C15.8145 7.26483 15.7911 7.26485 15.7684 7.26947C15.7457 7.27408 15.7242 7.28322 15.7051 7.29629C15.6668 7.32393 15.6407 7.36535 15.6325 7.41181C15.6242 7.45828 15.6343 7.50613 15.6608 7.54525ZM16.3273 9.71872C16.3148 9.69922 16.2986 9.68241 16.2795 9.66933C16.2604 9.65625 16.2388 9.64714 16.2161 9.64255C16.1934 9.63797 16.17 9.63801 16.1473 9.64266C16.1246 9.64731 16.1031 9.65646 16.084 9.6696C16.0458 9.69731 16.0198 9.73874 16.0115 9.78517C16.0032 9.8316 16.0133 9.8794 16.0397 9.91856C16.0522 9.938 16.0685 9.95474 16.0876 9.96779C16.1067 9.98083 16.1282 9.98993 16.1509 9.99451C16.1736 9.99908 16.197 9.99906 16.2197 9.99445C16.2423 9.98984 16.2639 9.98075 16.283 9.96768C16.3218 9.9404 16.3482 9.8989 16.3565 9.85227C16.3648 9.80564 16.3543 9.75766 16.3273 9.71872ZM24.3676 11.3169C24.1062 11.4803 23.8516 11.6543 23.6045 11.8386C23.5932 11.8992 23.5979 11.9616 23.6182 12.0198C23.6385 12.078 23.6736 12.1298 23.7202 12.1703C24.0303 11.9673 24.3227 11.7388 24.5945 11.4871C24.571 11.4443 24.5385 11.4069 24.4994 11.3776C24.4603 11.3482 24.4154 11.3276 24.3676 11.3169ZM25.6461 9.11597C25.8083 9.00322 25.9986 8.93738 26.196 8.9258C26.2272 8.73092 26.1832 8.53151 26.0728 8.36775C26.0198 8.28512 25.9507 8.21397 25.8696 8.15852C25.7885 8.10307 25.697 8.06447 25.6006 8.045C25.5043 8.02553 25.405 8.02557 25.3087 8.04517C25.2123 8.06476 25.1209 8.10346 25.0399 8.15901C24.8771 8.27628 24.7667 8.45236 24.7321 8.64969C24.6975 8.84702 24.7414 9.05001 24.8546 9.21546C24.9569 9.36921 25.112 9.4803 25.2907 9.52768C25.3734 9.36339 25.4955 9.22198 25.6461 9.11597Z" fill="white"/>
<path fill-rule="evenodd" clip-rule="evenodd" d="M25.4139 10.5736C25.4582 10.5126 25.5025 10.4507 25.5468 10.3874C25.4767 10.2171 25.4661 10.0281 25.5167 9.85103C25.5672 9.67392 25.676 9.51894 25.8256 9.41104C25.9251 9.34 26.0406 9.29442 26.1619 9.27836C26.193 9.2076 26.2217 9.13731 26.2505 9.06567C26.0577 9.06755 25.8698 9.12752 25.7117 9.23771C25.5066 9.38529 25.363 9.60288 25.3081 9.84915C25.2532 10.0954 25.2909 10.3532 25.4139 10.5736Z" fill="white"/>
<path fill-rule="evenodd" clip-rule="evenodd" d="M25.6496 10.2345C25.8132 9.98236 25.9593 9.71936 26.087 9.44736C26.0237 9.46622 25.9639 9.49502 25.9097 9.5327C25.8008 9.61018 25.7179 9.71849 25.6715 9.84363C25.6251 9.96877 25.6175 10.105 25.6496 10.2345ZM19.5861 7.81694C19.3904 7.95892 19.2578 8.1714 19.2164 8.40932C19.175 8.64724 19.2282 8.89188 19.3645 9.09136C19.4286 9.19081 19.5119 9.27647 19.6097 9.34323C19.7075 9.40999 19.8176 9.45648 19.9337 9.48002C20.0498 9.50356 20.1694 9.50368 20.2855 9.48029C20.4017 9.4569 20.5119 9.41051 20.6098 9.34388C20.8052 9.20191 20.9377 8.98959 20.979 8.75188C21.0204 8.51417 20.9674 8.26973 20.8313 8.07032C20.7674 7.97079 20.6841 7.88507 20.5863 7.81823C20.4886 7.75139 20.3784 7.70474 20.2623 7.68112C20.1462 7.6575 20.0266 7.65737 19.9105 7.68069C19.7943 7.70401 19.684 7.75035 19.5861 7.81694ZM25.432 5.07084C25.312 4.88118 25.2483 4.66142 25.2483 4.43711C25.2483 4.21281 25.312 3.9931 25.432 3.80344C25.5106 3.68081 25.6125 3.57477 25.732 3.49127C25.5974 3.39613 25.4431 3.33246 25.2805 3.30498C25.1179 3.27751 24.9512 3.28694 24.7928 3.33257C24.6343 3.37819 24.4882 3.45882 24.3653 3.56852C24.2424 3.67821 24.1457 3.81414 24.0826 3.96619C23.6652 3.81588 23.3212 3.51175 23.1215 3.11627C23.4419 3.01058 23.8824 3.32145 23.8824 3.32145C23.6879 3.02087 23.4241 2.77114 23.1131 2.59314C22.8339 2.62583 22.551 2.58825 22.2901 2.48389C22.6971 2.79443 22.9834 3.23628 23.1002 3.73402C23.4113 3.86434 23.7397 3.94894 24.0751 3.98519C24.004 4.16015 23.9755 4.34947 23.9919 4.53757C24.0083 4.72567 24.0692 4.90721 24.1695 5.06728C24.1787 5.0599 24.1883 5.0531 24.1983 5.04693C24.3827 4.92724 24.5989 4.86551 24.8188 4.86977C25.0388 4.87402 25.2524 4.9441 25.432 5.07084Z" fill="white"/>
<path fill-rule="evenodd" clip-rule="evenodd" d="M26.0427 3.80598C26.2183 4.06794 26.283 4.38859 26.2226 4.69795C26.1898 4.86205 26.1217 5.0171 26.0232 5.15252C25.9619 5.07161 25.8718 5.01729 25.7715 5.00083C25.6712 4.98437 25.5684 5.00704 25.4844 5.0641C25.4736 5.07206 25.4635 5.08091 25.4542 5.0906C25.4467 5.08529 25.4405 5.07692 25.4316 5.07117C25.4369 5.07957 25.4445 5.08621 25.4489 5.09373C25.3828 5.15388 25.3379 5.23368 25.3209 5.32131C25.3039 5.40895 25.3157 5.49973 25.3545 5.58015C25.347 5.58546 25.3386 5.58764 25.331 5.59294L25.3576 5.5863C25.3653 5.6028 25.3739 5.6189 25.3833 5.63451C25.4122 5.67907 25.4496 5.71743 25.4936 5.74733C25.5375 5.77723 25.587 5.7981 25.6391 5.80865C25.6912 5.8192 25.7448 5.81922 25.797 5.80876C25.8491 5.7983 25.8986 5.77753 25.9425 5.74771C25.9957 5.70981 26.0391 5.6598 26.0689 5.6018C26.0987 5.54379 26.1142 5.47952 26.1141 5.41432C26.2845 5.43879 26.4472 5.50135 26.59 5.59737C26.6037 5.59737 26.6188 5.5921 26.6343 5.589C26.5807 5.25289 26.5012 4.92139 26.3963 4.59754C26.2624 4.18448 26.0883 3.78549 25.8765 3.40625C25.8267 3.43088 25.7787 3.45913 25.733 3.49073C25.8554 3.57524 25.9605 3.6822 26.0427 3.80598Z" fill="white"/>
<path fill-rule="evenodd" clip-rule="evenodd" d="M26.6334 5.58949C26.6187 5.59288 26.604 5.59565 26.5891 5.59786C26.605 5.60979 26.6223 5.62131 26.6382 5.63413L26.6334 5.58949ZM26.6511 6.79314C26.5002 6.75927 26.3577 6.69556 26.232 6.60578C26.1063 6.516 25.9998 6.40198 25.919 6.27045C25.8917 6.42124 25.834 6.56494 25.7493 6.69274C25.6645 6.82054 25.5547 6.92977 25.4263 7.01382C25.3055 7.09309 25.1698 7.14697 25.0274 7.17214C25.1456 7.36673 25.3196 7.52139 25.527 7.61602C25.7343 7.71065 25.9654 7.74085 26.1902 7.70277C26.3608 7.67189 26.5216 7.60116 26.6595 7.49629C26.6893 7.26741 26.7075 7.03714 26.714 6.80642L26.6511 6.79314ZM25.3301 5.59391C25.1117 5.63133 24.8871 5.60422 24.684 5.51591C24.4809 5.4276 24.308 5.28193 24.1868 5.09686C24.1802 5.08713 24.1748 5.07561 24.1673 5.06588C23.9243 5.24052 23.7575 5.50126 23.7009 5.79467C23.6443 6.08807 23.7022 6.39199 23.8629 6.64416C23.9812 6.83847 24.1553 6.99277 24.3627 7.08701C24.5701 7.18125 24.8011 7.21105 25.0256 7.17257C24.9468 7.04564 24.892 6.90533 24.8639 6.75865C24.8213 6.54033 24.8427 6.31441 24.9253 6.10786C25.008 5.90131 25.1485 5.7229 25.3301 5.59391ZM16.2528 5.60984C16.217 5.63584 16.1928 5.67465 16.1852 5.71812C16.1776 5.7616 16.1872 5.80633 16.212 5.84287C16.2239 5.86091 16.2394 5.87641 16.2574 5.88843C16.2753 5.90045 16.2955 5.90877 16.3168 5.91288C16.3381 5.917 16.3599 5.91683 16.3811 5.9124C16.4023 5.90797 16.4224 5.89936 16.4402 5.88708C16.476 5.86109 16.5002 5.82227 16.5078 5.7788C16.5154 5.73532 16.5058 5.69059 16.481 5.65405C16.4692 5.63586 16.4539 5.62024 16.4359 5.60811C16.4179 5.59599 16.3976 5.58757 16.3763 5.58344C16.355 5.57931 16.3331 5.57956 16.3119 5.58409C16.2907 5.58862 16.2705 5.59738 16.2528 5.60984ZM16.0321 6.19353C16.0227 6.17896 16.0106 6.16641 15.9962 6.15666C15.9819 6.14691 15.9658 6.14013 15.9488 6.13674C15.9318 6.13336 15.9142 6.13343 15.8973 6.13696C15.8803 6.14048 15.8642 6.14739 15.85 6.15725C15.8355 6.16728 15.8232 6.18006 15.8137 6.19488C15.8042 6.2097 15.7978 6.2263 15.7948 6.24362C15.7918 6.26095 15.7922 6.27868 15.7962 6.29582C15.8001 6.31296 15.8074 6.32913 15.8176 6.34343C15.827 6.358 15.8392 6.37055 15.8535 6.3803C15.8678 6.39005 15.884 6.39684 15.901 6.40022C15.918 6.4036 15.9355 6.40353 15.9524 6.4C15.9694 6.39648 15.9855 6.38958 15.9998 6.37971C16.0281 6.35881 16.0474 6.32775 16.0534 6.29307C16.0594 6.25839 16.0518 6.22274 16.0321 6.19353ZM23.2783 4.79171C23.2401 4.81919 23.214 4.86048 23.2058 4.9068C23.1975 4.95311 23.2076 5.00083 23.234 5.03981C23.2465 5.0593 23.2627 5.07612 23.2819 5.0892C23.301 5.10228 23.3225 5.11134 23.3452 5.11592C23.3679 5.1205 23.3913 5.12051 23.414 5.11586C23.4367 5.11122 23.4583 5.10201 23.4773 5.08887C23.5157 5.06124 23.5417 5.01982 23.55 4.97336C23.5582 4.92689 23.5481 4.87904 23.5216 4.83992C23.5089 4.82068 23.4925 4.80419 23.4734 4.79133C23.4543 4.77848 23.4327 4.76953 23.4101 4.76505C23.3874 4.76056 23.3642 4.76063 23.3415 4.76521C23.3189 4.76979 23.2974 4.77877 23.2783 4.79171ZM18.6041 3.45672C18.5658 3.48436 18.5397 3.52578 18.5315 3.57224C18.5232 3.6187 18.5333 3.66656 18.5598 3.70568C18.5723 3.72513 18.5886 3.74186 18.6077 3.75491C18.6268 3.76795 18.6483 3.77705 18.671 3.78163C18.6937 3.78621 18.7171 3.78619 18.7398 3.78158C18.7625 3.77696 18.784 3.76782 18.8031 3.75475C18.8413 3.72704 18.8673 3.68561 18.8755 3.63918C18.8838 3.59275 18.8737 3.54494 18.8474 3.50579C18.8347 3.48653 18.8184 3.46995 18.7992 3.45705C18.7801 3.44414 18.7586 3.43516 18.736 3.4306C18.7134 3.42603 18.6901 3.42601 18.6674 3.43049C18.6448 3.43497 18.6233 3.44389 18.6041 3.45672ZM15.9085 5.39138C15.9468 5.36374 15.9728 5.32227 15.9811 5.27581C15.9894 5.22935 15.9792 5.18154 15.9528 5.14242C15.9401 5.12316 15.9237 5.10659 15.9046 5.09368C15.8855 5.08077 15.864 5.07179 15.8414 5.06723C15.8188 5.06266 15.7955 5.06258 15.7728 5.06707C15.7502 5.07155 15.7287 5.08046 15.7095 5.0933C15.6715 5.12115 15.6456 5.16256 15.6373 5.20893C15.6291 5.25529 15.6391 5.30304 15.6652 5.34226C15.6778 5.36161 15.6941 5.3783 15.7132 5.39127C15.7323 5.40425 15.7538 5.41326 15.7765 5.41783C15.7991 5.4224 15.8225 5.42243 15.8452 5.41788C15.8678 5.41334 15.8893 5.40433 15.9085 5.39138ZM16.6033 5.16364C16.565 5.19111 16.539 5.23241 16.5307 5.27872C16.5225 5.32504 16.5326 5.37275 16.559 5.41173C16.5715 5.43118 16.5878 5.44792 16.6069 5.46096C16.626 5.47401 16.6475 5.48305 16.6702 5.48763C16.6929 5.49221 16.7163 5.49219 16.739 5.48757C16.7617 5.48296 16.7832 5.47387 16.8023 5.4608C16.8406 5.43332 16.8666 5.39203 16.8749 5.34571C16.8831 5.2994 16.873 5.25169 16.8466 5.21271C16.8341 5.19326 16.8178 5.17652 16.7987 5.16347C16.7796 5.15043 16.7581 5.14133 16.7354 5.13675C16.7127 5.13218 16.6893 5.1322 16.6666 5.13681C16.6439 5.14142 16.6224 5.15056 16.6033 5.16364ZM17.6553 4.60688C17.6267 4.62758 17.6073 4.65858 17.6011 4.69331C17.5949 4.72803 17.6024 4.76377 17.6221 4.79306C17.6315 4.80759 17.6437 4.8201 17.6579 4.82988C17.6722 4.83965 17.6883 4.84651 17.7053 4.85001C17.7222 4.85351 17.7397 4.8536 17.7567 4.85028C17.7737 4.84696 17.7899 4.84026 17.8042 4.83063C17.8328 4.8097 17.8522 4.77861 17.8584 4.74378C17.8646 4.70894 17.8571 4.67305 17.8375 4.64359C17.8282 4.62894 17.816 4.61634 17.8017 4.6065C17.7874 4.59667 17.7713 4.5898 17.7543 4.58637C17.7372 4.58294 17.7197 4.58301 17.7027 4.58653C17.6857 4.59006 17.6696 4.59697 17.6553 4.60688ZM19.2121 3.98778C19.1835 4.00848 19.164 4.03948 19.1578 4.0742C19.1516 4.10893 19.1592 4.14467 19.1789 4.17396C19.1882 4.18853 19.2004 4.20108 19.2147 4.21083C19.229 4.22058 19.2452 4.22736 19.2622 4.23075C19.2792 4.23413 19.2967 4.23405 19.3137 4.23053C19.3307 4.22701 19.3467 4.2201 19.361 4.21023C19.3755 4.20021 19.3878 4.18743 19.3973 4.17261C19.4067 4.15779 19.4132 4.14124 19.4162 4.12392C19.4192 4.1066 19.4187 4.08881 19.4148 4.07167C19.4109 4.05453 19.4036 4.03836 19.3933 4.02406C19.3841 4.00947 19.372 3.99691 19.3578 3.98713C19.3435 3.97735 19.3274 3.97055 19.3105 3.96716C19.2935 3.96377 19.2761 3.96383 19.2592 3.96738C19.2423 3.97092 19.2262 3.97787 19.2121 3.98778ZM16.4176 1.09929L16.4305 1.10593L16.4176 1.09929ZM16.781 0.963096C16.793 0.924624 16.8058 0.886173 16.8196 0.851681C16.8089 0.856987 16.7992 0.863627 16.7886 0.869818C16.7863 0.90033 16.7841 0.931257 16.781 0.963096ZM16.3782 1.24126C16.3386 1.23125 16.2995 1.21914 16.2612 1.20498L16.2045 1.24347C16.2622 1.2373 16.3204 1.23656 16.3782 1.24126ZM16.5302 1.02544C16.5665 1.00289 16.6029 0.981212 16.6405 0.959102C16.602 0.979443 16.5665 1.00289 16.5302 1.02544ZM16.4154 1.09799C16.4292 1.08959 16.442 1.07849 16.4562 1.07009C16.4442 1.07981 16.4292 1.08871 16.4154 1.09799ZM16.2023 1.24347C16.1606 1.27354 16.1199 1.30314 16.0791 1.33454L16.2045 1.24034C16.2045 1.24034 16.2032 1.24347 16.2023 1.24347ZM16.4132 1.09929C16.3618 1.13334 16.3104 1.16874 16.259 1.20412C16.3095 1.16874 16.3609 1.13334 16.4123 1.09929H16.4132ZM16.6397 0.955593V0.95867C16.6889 0.9286 16.7371 0.897667 16.7877 0.87025C16.7371 0.898109 16.6889 0.92685 16.6397 0.955593ZM16.8196 0.852113C16.8794 0.818063 16.9419 0.787121 17.0039 0.75484V0.751709C16.9419 0.784875 16.8816 0.818063 16.8196 0.852113ZM16.8209 1.49907C16.876 1.45927 16.9135 1.39961 16.9253 1.33275C16.9371 1.2659 16.9224 1.19708 16.8843 1.14085C16.8663 1.11286 16.8428 1.08873 16.8153 1.06992C16.7878 1.05111 16.7568 1.038 16.7241 1.03133C16.6915 1.02465 16.6578 1.02455 16.6251 1.03106C16.5924 1.03757 16.5613 1.05055 16.5337 1.06922C16.4785 1.10926 16.4411 1.16911 16.4293 1.23618C16.4174 1.30326 16.4322 1.3723 16.4704 1.42873C16.4885 1.45657 16.5121 1.48053 16.5396 1.49918C16.5672 1.51782 16.5982 1.53079 16.6308 1.53734C16.6635 1.54389 16.6971 1.54386 16.7297 1.53729C16.7624 1.53071 16.7934 1.51774 16.8209 1.49907Z" fill="white"/>
<path fill-rule="evenodd" clip-rule="evenodd" d="M15.4778 3.2573C15.58 3.3281 15.6957 3.37719 15.8177 3.40148C15.8595 3.40805 15.9017 3.41203 15.944 3.41341C15.8548 3.50114 15.7965 3.61541 15.778 3.73902C15.7594 3.86262 15.7816 3.9889 15.8412 4.09885C15.9859 4.05057 16.1092 3.95356 16.19 3.82447C16.2709 3.69538 16.3042 3.54221 16.2843 3.39128C16.4117 3.36146 16.5325 3.30889 16.6411 3.23608C16.5934 3.38265 16.6022 3.54166 16.6658 3.68207C16.7294 3.82248 16.8432 3.93421 16.9849 3.99537C17.0661 3.84967 17.0924 3.67975 17.059 3.5164C17.0256 3.35306 16.9347 3.20706 16.8028 3.10475C16.9742 2.93789 17.0882 2.72116 17.1285 2.48565C17.143 2.39974 17.1502 2.31274 17.1498 2.22562C17.2526 2.35829 17.3545 2.42461 17.4294 2.34546C17.5375 2.23004 17.3824 1.98818 17.187 1.76398C17.4462 1.97049 17.7227 2.12659 17.7808 1.95545C17.8331 1.80377 17.5956 1.64588 17.3297 1.52339C17.6457 1.60343 17.9585 1.63129 17.9439 1.44955C17.9302 1.28681 17.6523 1.24307 17.3629 1.24086C17.6811 1.18204 17.9749 1.07501 17.8889 0.914493C17.8118 0.771218 17.5429 0.848149 17.2801 0.967987C17.5362 0.784913 17.7538 0.569998 17.6381 0.456793C17.4839 0.517817 17.3306 0.58416 17.1817 0.656682C17.1529 0.686752 17.125 0.718597 17.097 0.750878L17.1378 0.678328C17.0935 0.700881 17.0465 0.726523 17.0018 0.74996C16.9959 0.846722 16.9633 0.939961 16.9074 1.01927C17.004 0.906948 17.1121 0.814106 17.1764 0.864075C17.2482 0.920678 17.1347 1.03299 16.9991 1.12939C17.1321 1.06748 17.2681 1.02901 17.3093 1.10153C17.3536 1.1829 17.2043 1.23729 17.0434 1.26736C17.1901 1.26736 17.3319 1.29083 17.3381 1.37219C17.3457 1.46506 17.187 1.45131 17.0279 1.41063C17.1609 1.47386 17.2832 1.55302 17.257 1.63173C17.2269 1.72017 17.0869 1.63926 16.9548 1.53446C17.0532 1.64766 17.132 1.77059 17.078 1.82941C17.0159 1.89574 16.9184 1.76442 16.8391 1.61451C16.8834 1.75867 16.9087 1.90325 16.8338 1.93332C16.7501 1.96648 16.7137 1.80818 16.7009 1.63837C16.6849 1.78828 16.6495 1.92805 16.5679 1.92495C16.4793 1.91965 16.5081 1.76041 16.5635 1.6021C16.4895 1.73034 16.3995 1.8427 16.3277 1.80512C16.2475 1.76089 16.3375 1.62822 16.4518 1.51103C16.3317 1.59638 16.2054 1.66094 16.154 1.59637C16.096 1.52385 16.2325 1.44248 16.3854 1.38234C16.2409 1.40887 16.1004 1.41329 16.0778 1.33414C16.0091 1.38632 15.9396 1.43807 15.8722 1.49246C15.9383 1.48572 16.004 1.47643 16.0694 1.46461C15.7681 1.58312 15.4995 1.74364 15.613 1.88603C15.7136 2.01206 15.9635 1.88603 16.1992 1.71799C15.9732 1.95325 15.7951 2.21499 15.9537 2.29769C16.0964 2.37154 16.2719 2.15 16.4177 1.89661C16.3082 2.20881 16.2507 2.52326 16.4275 2.53299C16.5848 2.54139 16.6557 2.26455 16.6867 1.96959C16.7093 2.26587 16.7704 2.54444 16.899 2.55771C16.8368 2.77575 16.6947 2.9625 16.501 3.08094C16.3073 3.19938 16.0761 3.24087 15.8531 3.19716C15.6618 3.15509 15.4941 3.04081 15.3852 2.87819C15.2764 2.71558 15.2348 2.51722 15.2691 2.32468C15.274 2.29811 15.2684 2.2707 15.2534 2.24819C15.2384 2.22567 15.2153 2.20983 15.1889 2.20398C15.1753 2.20085 15.1612 2.20084 15.1476 2.20398C15.134 2.20712 15.1213 2.21334 15.1104 2.22211L15.0838 2.25218C15.078 2.26277 15.0739 2.27425 15.0719 2.28619C15.0453 2.43929 15.0555 2.59653 15.1017 2.74491C15.148 2.8933 15.2289 3.0286 15.3378 3.13967C15.213 3.11735 15.0845 3.14483 14.9799 3.21622C14.8753 3.28761 14.8029 3.39721 14.7785 3.52132C14.9069 3.57434 15.0506 3.57652 15.1806 3.52747C15.3105 3.47842 15.4168 3.38181 15.4778 3.2573ZM17.0018 2.00101H16.9858L16.9632 1.92274C16.9739 1.95148 16.9894 1.97625 17.0018 2.00101ZM20.6524 0.0884304C20.6772 0.0711843 20.7016 0.0521798 20.7242 0.0327226C20.3019 -0.00937347 19.8766 -0.0108586 19.4541 0.0282962C19.6194 0.168375 19.8264 0.250188 20.043 0.26106C20.2596 0.271931 20.4738 0.211249 20.6524 0.0884304ZM21.6933 1.73964C21.5881 1.28581 21.6297 0.810427 21.8121 0.381652C21.7787 0.321898 21.744 0.262911 21.7079 0.204758L21.6193 0.182194C21.5626 0.168339 21.5058 0.155499 21.4491 0.143706C21.5086 0.399323 21.5097 0.665051 21.4522 0.921132C21.1363 0.78847 20.9927 0.26133 20.9927 0.26133C20.9656 0.53053 20.9845 0.802366 21.0485 1.06526C21.3187 1.23014 21.5409 1.46262 21.6933 1.73964ZM23.6498 1.55481C23.7372 1.44301 23.818 1.32621 23.8917 1.20502C23.8474 1.17406 23.8031 1.14402 23.7588 1.11395C23.5376 1.27721 23.2783 1.38132 23.0054 1.4164C23.0362 1.19442 23.1485 0.99175 23.3205 0.847719C23.296 0.834256 23.2714 0.821141 23.2465 0.808367C23.0201 0.887718 22.8091 1.0056 22.623 1.15681C22.5649 1.419 22.4468 1.6642 22.2778 1.87319C22.6821 1.6064 23.169 1.49342 23.6498 1.55481Z" fill="white"/>
<path fill-rule="evenodd" clip-rule="evenodd" d="M21.7903 2.57782C21.8626 2.57497 21.9325 2.55167 21.992 2.51061C22.08 2.44702 22.1398 2.3517 22.1585 2.24486C22.1773 2.13803 22.1536 2.02812 22.0925 1.93842C22.0637 1.89385 22.0262 1.85545 21.9823 1.82554C21.9384 1.79564 21.8889 1.77482 21.8368 1.76428C21.7847 1.75373 21.731 1.75371 21.6789 1.76417C21.6268 1.77463 21.5773 1.79534 21.5333 1.82517C21.5056 1.8452 21.4804 1.86856 21.4584 1.89464C21.2648 1.65034 21.1253 1.3679 21.0489 1.06593C20.596 0.800717 20.0851 0.649824 19.5604 0.62637C19.7859 0.687614 19.9966 0.794073 20.1794 0.939294C20.3623 1.08452 20.5135 1.26547 20.624 1.471C20.3067 1.58774 19.8578 1.28833 19.8578 1.28833C19.9661 1.44243 20.0924 1.58315 20.234 1.70754C20.6476 1.64773 21.0694 1.7243 21.4353 1.92557C21.3762 2.01147 21.3516 2.1165 21.3667 2.21966C20.9461 2.16655 20.5513 1.98805 20.234 1.70754C19.8567 1.75432 19.4902 1.86533 19.1505 2.03569C19.3739 1.97934 19.6067 1.97049 19.8338 2.00973C20.0608 2.04896 20.277 2.13541 20.4684 2.26343C20.2468 2.52213 19.7151 2.47747 19.7151 2.47747C19.9485 2.59545 20.201 2.67107 20.4609 2.70078C20.7087 2.45769 21.0242 2.2948 21.3662 2.23337C21.3763 2.29169 21.3982 2.34735 21.4305 2.39698C21.4668 2.45208 21.5161 2.49747 21.574 2.52929C21.6319 2.56111 21.6967 2.5784 21.7628 2.5796C21.5908 3.03947 21.2628 3.42469 20.8358 3.66833C20.7507 4.07271 20.7357 4.48867 20.7915 4.89811C20.8051 4.66629 20.8667 4.43978 20.9724 4.23291C21.0781 4.02604 21.2256 3.8433 21.4057 3.69618C21.4943 3.95848 21.4825 4.24424 21.3724 4.49833C21.648 4.21633 21.8414 3.86468 21.9317 3.48123C21.8071 3.19734 21.7584 2.88609 21.7903 2.57782ZM22.097 1.80487C22.2285 1.55489 22.4094 1.33406 22.6287 1.1557C22.6766 0.952873 22.6997 0.744977 22.6974 0.5366C22.5915 0.49238 22.4843 0.448142 22.3748 0.408343C22.3111 0.545837 22.2276 0.673383 22.1271 0.786908C22.0272 0.638401 21.9804 0.460667 21.9942 0.282353C21.9543 0.270332 21.9143 0.258968 21.8741 0.248291C21.8515 0.292512 21.8346 0.3367 21.8151 0.380921C22.0733 0.807971 22.173 1.31194 22.097 1.80487ZM22.3877 2.34171C22.6423 2.38098 22.8877 2.46573 23.1122 2.59196C23.6482 2.51036 24.1529 2.2882 24.5746 1.94813V2.78435L25.315 2.56103C25.0935 2.27641 24.8491 2.01019 24.5843 1.76503L24.5724 1.75445V1.93971C24.3701 2.03618 24.1501 2.08989 23.926 2.0975C23.702 2.10511 23.4788 2.06644 23.2704 1.98392C23.4344 1.68234 23.9595 1.61383 23.9595 1.61383C23.8575 1.58782 23.7539 1.56889 23.6493 1.55721C23.5012 1.76446 23.3134 1.94047 23.0969 2.0751C22.8804 2.20972 22.6394 2.30034 22.3877 2.34171Z" fill="white"/>
<path fill-rule="evenodd" clip-rule="evenodd" d="M21.5054 2.54468C21.1774 2.68658 20.8179 2.74041 20.4627 2.70079C20.1169 3.04657 19.8513 3.46374 19.6845 3.92301C19.8054 3.72735 19.9667 3.55972 20.1578 3.43136C20.3489 3.303 20.5652 3.21689 20.7924 3.17879C20.8021 3.52725 20.3882 3.8611 20.3882 3.8611C20.5453 3.81397 20.6966 3.74948 20.8393 3.66877C20.9197 3.22671 21.156 2.82796 21.5054 2.54468Z" fill="white"/>
<path fill-rule="evenodd" clip-rule="evenodd" d="M21.9578 2.56046C22.0127 2.86602 22.005 3.1795 21.9352 3.48201C22.0198 3.67347 22.1282 3.8535 22.2578 4.01793C22.1967 4.18685 22.1284 4.35227 22.0531 4.51412C22.0259 4.50018 21.9972 4.48936 21.9676 4.48184C21.4198 4.34917 20.9967 5.26588 20.7011 6.27102C20.8243 5.09475 20.7645 3.95383 20.148 4.07234C19.5986 4.17936 19.5822 5.20263 19.7173 6.25067C19.3584 5.11817 18.8483 4.09271 18.3383 4.46284C17.9802 4.72285 18.1486 5.36534 18.5 6.06978C17.8934 5.39718 17.2947 4.97178 17.0182 5.40647C16.7137 5.88361 17.4094 6.62874 18.2292 7.28099C17.1972 6.73133 16.1354 6.37092 16.0388 7.00726C15.9807 7.39021 16.3858 7.69269 16.9623 7.92795C16.4897 7.94649 16.0166 7.90849 15.5531 7.81475C15.4073 7.78468 15.2646 7.74839 15.1246 7.70549C15.37 7.22097 15.5053 6.68848 15.5211 6.14584C15.5369 5.6032 15.4327 5.06374 15.2159 4.56583C15.3792 4.64691 15.5525 4.70639 15.7312 4.74272C16.0669 4.80509 16.4117 4.80064 16.7456 4.72966C17.0796 4.65868 17.3962 4.52258 17.6773 4.32913C17.9584 4.13567 18.1984 3.88869 18.3835 3.60239C18.5687 3.31609 18.6953 2.99609 18.7561 2.66081C18.7709 2.77447 18.8082 2.88403 18.8661 2.98302C18.924 3.082 19.0012 3.16836 19.0931 3.23705C19.1851 3.30574 19.2899 3.35534 19.4013 3.3829C19.5128 3.41046 19.6287 3.41545 19.7421 3.39753C19.7238 3.1578 19.6138 2.93431 19.4348 2.7733C19.2559 2.61229 19.0218 2.52606 18.7809 2.53255C18.7885 2.49187 18.7947 2.4503 18.8004 2.4105C18.8676 2.45124 18.9423 2.47818 19.02 2.48969C19.0977 2.50119 19.177 2.49708 19.2531 2.47754C19.3292 2.45801 19.4006 2.42346 19.4631 2.37595C19.5257 2.32845 19.578 2.26891 19.6172 2.20089C19.5082 2.10687 19.371 2.05183 19.2271 2.04446C19.0833 2.03709 18.9411 2.07785 18.8231 2.16025C18.8475 1.48315 18.6663 0.814471 18.3032 0.241943C18.2359 0.260074 18.1703 0.28042 18.1016 0.301646C18.5404 0.979716 18.7062 1.79827 18.5656 2.59317C18.5154 2.90704 18.4023 3.20758 18.2331 3.47688C18.0639 3.74618 17.8421 3.97869 17.5808 4.16054C17.3196 4.3424 17.0243 4.46988 16.7127 4.53533C16.401 4.60079 16.0792 4.6029 15.7667 4.54154C15.5118 4.48991 15.2704 4.38613 15.0577 4.23682C15.02 4.16828 14.9956 4.13118 14.9956 4.13118C14.9805 4.13828 14.9657 4.14609 14.9513 4.15461C14.673 3.93095 14.4589 3.6377 14.3309 3.30469C14.2875 3.37707 14.2465 3.45081 14.2077 3.52579C14.3387 3.80382 14.526 4.05177 14.7577 4.25409C14.2879 4.49493 13.8829 4.84479 13.5767 5.27427C13.5541 5.38128 13.535 5.48919 13.5178 5.59621C13.6853 5.69555 13.8169 5.8452 13.894 6.02379C14.1255 5.50366 14.4461 5.02782 14.8414 4.6176C14.5525 5.19243 14.3058 5.78744 14.1032 6.39793C14.4439 6.06142 14.8859 5.84576 15.3612 5.78411C14.8234 5.95238 14.349 6.27868 13.9999 6.7203C13.9529 6.88391 13.9086 7.05058 13.8714 7.21729C14.1756 6.79126 14.6093 6.47446 15.1082 6.31388C14.5449 6.59085 14.085 7.04017 13.7956 7.59629C13.7347 7.93167 13.7156 8.27333 13.7389 8.61339C13.9539 9.29652 14.2777 9.94064 14.6979 10.5211C15.0437 10.8733 15.425 11.189 15.8358 11.463C14.7182 10.4118 15.3205 8.53287 15.5163 8.01372C16.1471 8.14158 16.7942 8.168 17.4334 8.09199C17.5791 8.13621 17.7289 8.18045 17.8814 8.21804C16.7292 8.14728 15.6214 8.26225 15.7897 8.88842C15.9386 9.4456 16.9353 9.41552 17.9425 9.22758C16.8719 9.649 15.9174 10.2199 16.3189 10.7245C16.6769 11.1746 17.565 10.7245 18.4016 10.1301C17.6 10.9672 16.9659 11.8945 17.5295 12.1895C18.0334 12.4526 18.6578 11.6668 19.1776 10.766C18.7876 11.8715 18.5829 12.9926 19.2117 13.0266C19.7722 13.0567 20.024 12.0705 20.1334 11.0238C20.222 12.2063 20.4848 13.3233 21.0667 13.0876C21.5865 12.8802 21.4212 11.8676 21.0999 10.858C21.3255 11.3107 21.6043 11.7349 21.9303 12.1218C21.8962 12.419 21.8683 12.7184 21.8488 13.016C21.9197 12.9965 21.9893 12.9753 22.0589 12.9541C22.0748 12.7383 22.0943 12.5198 22.1178 12.3027C22.1927 12.3683 22.2787 12.4201 22.3717 12.4557C22.2908 12.5335 22.2358 12.6343 22.2144 12.7445C22.2144 12.7445 22.6943 12.9585 22.9828 12.354C22.9218 12.3378 22.8593 12.3281 22.7963 12.3252C22.8577 12.224 22.892 12.1086 22.8957 11.9902C22.8994 11.8718 22.8725 11.7545 22.8175 11.6496C22.8183 11.6259 22.814 11.6023 22.805 11.5803C22.796 11.5584 22.7824 11.5386 22.7652 11.5222C22.6439 11.2709 22.4967 11.0329 22.3261 10.812C22.3359 10.753 22.3462 10.694 22.3571 10.6351C23.1264 11.1782 23.8465 11.4864 24.0211 10.9783C24.1656 10.5582 23.6847 10.1283 23.02 9.7507C23.0831 9.7113 23.1388 9.66134 23.1849 9.60301C23.5524 9.6844 23.9335 9.6826 24.3003 9.59772C24.3388 9.70164 24.3858 9.81483 24.443 9.93467C24.3463 10.0635 24.2921 10.2191 24.2879 10.38C24.2837 10.5409 24.3297 10.6991 24.4195 10.8328C24.4775 10.9221 24.5507 11.0007 24.6357 11.065C24.6357 11.0703 24.6304 11.0747 24.6282 11.08C24.6159 11.1224 24.6208 11.1679 24.6419 11.2067C24.6629 11.2455 24.6985 11.2745 24.7408 11.2874C24.7565 11.2917 24.7727 11.294 24.789 11.2941C24.8267 11.2565 24.8617 11.218 24.8985 11.1795C24.9083 11.1698 24.9167 11.1592 24.9251 11.1494C24.9335 11.1397 24.9402 11.1344 24.9477 11.126C25.0044 11.065 25.0601 11.0029 25.1148 10.9398C25.1591 10.8885 25.2034 10.8359 25.2446 10.7837C25.2769 10.7444 25.3102 10.7055 25.3412 10.6652C25.2513 10.5194 25.1943 10.3557 25.1743 10.1856C25.1543 10.0155 25.1718 9.84308 25.2256 9.68042C25.1215 9.64876 25.0115 9.64112 24.904 9.65813C24.7965 9.67514 24.6943 9.71637 24.6051 9.77861C24.6007 9.78171 24.5976 9.7861 24.5932 9.78919C24.5471 9.68748 24.5085 9.59226 24.4775 9.50353C24.5238 9.46467 24.5594 9.41481 24.5812 9.35854C24.603 9.30226 24.6101 9.24137 24.602 9.18159C24.5577 8.65978 23.7406 8.48249 22.8211 8.45021C22.8264 8.42677 22.833 8.406 22.8383 8.383C23.8456 8.1619 24.6867 7.80237 24.4084 7.28277C24.1363 6.77468 23.1791 7.0466 22.2472 7.47289C23.1871 6.80251 23.979 6.01361 23.4743 5.61872C23.024 5.26495 22.2676 5.91814 21.5949 6.70394C22.0686 5.88143 22.4222 5.02706 22.2078 4.65517C22.2804 4.50503 22.3469 4.35206 22.4072 4.1966C22.6096 4.42072 22.8396 4.61832 23.0918 4.78472C22.9254 4.61784 22.7942 4.41936 22.7061 4.20098C22.6179 3.9826 22.5746 3.74877 22.5787 3.51337C22.9141 3.57882 23.1574 4.06613 23.1574 4.06613C23.1451 3.95338 23.1254 3.84158 23.0985 3.7314C22.8333 3.63266 22.5935 3.47642 22.3962 3.27392C22.1989 3.07141 22.0492 2.82773 21.9578 2.56046ZM14.3278 9.24086C14.3672 9.29514 14.4181 9.34 14.477 9.37214C14.5359 9.40428 14.6013 9.42289 14.6683 9.42666C14.7353 9.43043 14.8023 9.41928 14.8645 9.39395C14.9266 9.36861 14.9824 9.32973 15.0276 9.28021C15.0276 9.28021 14.6021 9.77637 14.3234 9.24086C14.2138 9.23529 14.1056 9.21401 14.0021 9.17765C14.2459 9.20437 14.4923 9.16409 14.7148 9.06121C14.9373 8.95834 15.1275 8.79675 15.2646 8.5939C15.1889 8.78129 15.0598 8.94246 14.8934 9.05743C14.7269 9.17241 14.5302 9.23616 14.3278 9.24086ZM14.2326 8.89107C14.5407 8.59368 14.8068 8.25583 15.0236 7.88681C15.181 7.9365 15.3409 7.97798 15.5026 8.01108C14.8649 9.26695 14.2326 8.89198 14.2326 8.89198V8.89107ZM22.1604 10.5936C22.0802 10.4942 21.9981 10.3964 21.914 10.3004C22.0026 10.3698 22.0885 10.4375 22.1763 10.5025L22.1604 10.594V10.5936ZM22.6983 9.5093C22.6825 9.523 22.6677 9.53777 22.654 9.55351C22.6283 9.54069 22.6035 9.52788 22.5769 9.51594C22.5769 9.504 22.5822 9.49249 22.5844 9.48188C22.623 9.49382 22.6607 9.50222 22.6983 9.50974V9.5093ZM22.6212 8.42721C22.6212 8.43252 22.6181 8.43913 22.6168 8.44443H22.5406L22.6212 8.42721ZM21.8754 7.10674C22.1315 7.30662 21.7296 7.70773 21.255 8.04778C21.7287 7.83066 22.2131 7.69401 22.3522 7.95137C22.5078 8.24014 21.9782 8.43384 21.4039 8.54041C21.9259 8.5435 22.4271 8.62264 22.451 8.91449C22.4781 9.24173 21.9144 9.19355 21.3432 9.04718C21.8213 9.26828 22.2507 9.55171 22.1564 9.82676C22.0513 10.1363 21.551 9.85335 21.0849 9.48145C21.4354 9.88474 21.7172 10.3216 21.5209 10.5295C21.2993 10.7639 20.9541 10.2986 20.6732 9.76577C20.8349 10.2778 20.9196 10.7921 20.6559 10.8983C20.3612 11.0168 20.2274 10.4503 20.1822 9.85024C20.1263 10.3809 19.9991 10.8823 19.7138 10.8673C19.3942 10.85 19.4984 10.2823 19.6965 9.71977C19.4328 10.1766 19.1155 10.5763 18.8594 10.4428C18.5722 10.2929 18.8948 9.8237 19.3025 9.39697C18.8771 9.69944 18.4269 9.92762 18.2447 9.69856C18.0413 9.44296 18.5244 9.15199 19.069 8.93841C18.5567 9.03348 18.052 9.04938 17.9758 8.76637C17.8911 8.44887 18.4517 8.39092 19.0393 8.42629C18.5301 8.29673 18.0586 8.0982 18.103 7.81032C18.1513 7.48751 18.6901 7.67013 19.2144 7.94916C18.7987 7.61883 18.445 7.24164 18.6001 6.99754C18.7406 6.77644 19.0433 6.99313 19.3535 7.3354C19.1762 6.9781 19.0898 6.65088 19.2711 6.51954C19.5303 6.33249 19.7895 6.85207 19.9708 7.42739C19.9021 6.89674 19.9109 6.37537 20.1892 6.32187C20.5021 6.26217 20.5331 6.84142 20.4702 7.4384C20.6191 6.92853 20.8345 6.46203 21.1119 6.52969C21.4221 6.60664 21.22 7.14437 20.9244 7.65777C21.2634 7.2589 21.6468 6.92858 21.8754 7.10723V7.10674ZM24.1354 2.64002C24.1068 2.66094 24.0874 2.69215 24.0814 2.72704C24.0753 2.76193 24.0831 2.79778 24.1031 2.82707C24.1124 2.84163 24.1246 2.85418 24.1389 2.86393C24.1533 2.87369 24.1694 2.88047 24.1864 2.88385C24.2034 2.88724 24.2209 2.88716 24.2379 2.88364C24.2549 2.88012 24.271 2.87321 24.2852 2.86334C24.3138 2.84264 24.3333 2.8117 24.3395 2.77697C24.3457 2.74225 24.3381 2.70645 24.3184 2.67716C24.299 2.6482 24.2688 2.62808 24.2346 2.62113C24.2003 2.61418 24.1647 2.62096 24.1354 2.64002Z" fill="white"/>
<path fill-rule="evenodd" clip-rule="evenodd" d="M19.178 1.10587C19.2163 1.07846 19.2424 1.03719 19.2507 0.990835C19.259 0.944486 19.2488 0.896719 19.2223 0.857774C19.2097 0.838422 19.1934 0.821789 19.1743 0.808813C19.1551 0.795838 19.1336 0.786826 19.111 0.782255C19.0883 0.777684 19.065 0.777654 19.0423 0.782201C19.0197 0.786748 18.9981 0.795751 18.979 0.808705C18.9408 0.836413 18.9148 0.877848 18.9065 0.924277C18.8983 0.970707 18.9083 1.01851 18.9347 1.05766C18.9473 1.07699 18.9637 1.09359 18.9828 1.10652C19.0019 1.11944 19.0235 1.12842 19.0461 1.13291C19.0688 1.1374 19.0922 1.13734 19.1148 1.1327C19.1374 1.12805 19.1589 1.11892 19.178 1.10587ZM25.148 2.79821C25.1097 2.82569 25.0837 2.86698 25.0754 2.91329C25.0671 2.95961 25.0773 3.00732 25.1037 3.0463C25.1161 3.0658 25.1324 3.08256 25.1515 3.09564C25.1706 3.10872 25.1921 3.11783 25.2148 3.12241C25.2376 3.127 25.261 3.12695 25.2837 3.12231C25.3063 3.11766 25.3279 3.1085 25.3469 3.09537C25.3853 3.06796 25.4114 3.02669 25.4197 2.98034C25.428 2.93399 25.4178 2.88622 25.3912 2.84728C25.3786 2.82802 25.3622 2.81144 25.3431 2.79853C25.324 2.78562 25.3025 2.77665 25.2799 2.77208C25.2572 2.76752 25.2339 2.76749 25.2113 2.77197C25.1887 2.77645 25.1671 2.78537 25.148 2.79821ZM18.2062 3.16214C18.2243 2.83403 17.9607 2.85967 17.9363 2.86277C17.9252 2.8178 17.9018 2.77681 17.8687 2.74433C17.8356 2.71186 17.7941 2.68915 17.7488 2.6788C17.5575 2.79685 17.3717 2.92347 17.1918 3.05823C17.1797 3.12141 17.192 3.18681 17.2262 3.24133C17.2604 3.29586 17.314 3.33545 17.3762 3.35226C17.3648 3.38639 17.3603 3.42247 17.3631 3.45833C17.3659 3.4942 17.3758 3.52914 17.3923 3.56111C17.4089 3.59309 17.4316 3.62145 17.4593 3.64451C17.4869 3.66758 17.5189 3.68488 17.5534 3.69542C17.7307 3.7476 17.7431 3.67597 17.7967 3.60036C17.8299 3.61938 17.8673 3.63019 17.9055 3.63183C17.9438 3.63346 17.9819 3.62587 18.0167 3.60975C18.0514 3.59363 18.0818 3.5694 18.1052 3.53914C18.1286 3.50888 18.1444 3.47349 18.1512 3.43588C18.1641 3.38717 18.1587 3.33545 18.1361 3.2904C18.1749 3.25803 18.1999 3.21219 18.2062 3.16214ZM17.8073 3.30098C17.7892 3.31343 17.7688 3.32213 17.7473 3.32651C17.7258 3.3309 17.7036 3.33089 17.6821 3.32651C17.6606 3.32214 17.6402 3.31348 17.6221 3.30103C17.604 3.28859 17.5887 3.27264 17.5769 3.25413C17.5518 3.21713 17.542 3.17189 17.5496 3.12787C17.5572 3.08385 17.5816 3.04445 17.6177 3.01796C17.6358 3.00557 17.6562 2.99694 17.6777 2.99259C17.6992 2.98824 17.7213 2.98827 17.7428 2.99264C17.7643 2.99702 17.7848 3.00566 17.8028 3.01807C17.8209 3.03048 17.8363 3.0464 17.8481 3.06487C17.8739 3.10165 17.884 3.14707 17.8764 3.19129C17.8688 3.23551 17.8439 3.27492 17.8073 3.30098Z" fill="white"/>
</svg>
