<svg width="54" height="21" viewBox="0 0 54 21" fill="none" xmlns="http://www.w3.org/2000/svg">
<path d="M10.0349 15.7713C9.41473 16.1654 8.68626 16.3553 7.95217 16.3144H6.17341V11.9219H7.95395C8.68767 11.8811 9.41583 12.07 10.0367 12.4623C10.2872 12.6597 10.4896 12.9111 10.6287 13.1977C10.7679 13.4843 10.8402 13.7986 10.8402 14.1171C10.8402 14.4355 10.7679 14.7498 10.6287 15.0364C10.4896 15.323 10.2872 15.5744 10.0367 15.7718L10.0349 15.7713ZM6.17295 4.37208H7.68762C8.30307 4.33841 8.91194 4.51275 9.41588 4.86692C9.62881 5.05368 9.79937 5.28362 9.91623 5.54135C10.0331 5.79909 10.0935 6.0787 10.0935 6.36159C10.0935 6.64447 10.0331 6.92414 9.91623 7.18187C9.79937 7.43961 9.62881 7.6695 9.41588 7.85625C8.91178 8.20977 8.30274 8.38294 7.68762 8.34758H6.17295V4.37208ZM13.3518 10.0404C14.3419 9.46105 15.1133 8.57259 15.5471 7.51223C15.9808 6.45188 16.0527 5.27857 15.7517 4.17338C15.4507 3.06819 14.7934 2.09259 13.8815 1.39722C12.9695 0.701859 11.8535 0.325402 10.7058 0.325928C10.5503 0.325928 10.3957 0.336079 10.2446 0.349788C10.0624 0.338732 9.88117 0.328582 9.68043 0.325928H0V20.5662H6.54653C6.54464 20.567 6.54287 20.5681 6.54123 20.5693L7.63445 20.5662H9.65162C9.72785 20.5662 9.79341 20.5609 9.86697 20.5591L11.7038 20.5538C12.9904 20.5536 14.2346 20.0947 15.2121 19.2599C16.1896 18.425 16.836 17.2692 17.0348 16.0007C17.2336 14.7322 16.9717 13.4345 16.2963 12.3418C15.6209 11.249 14.5765 10.433 13.3514 10.0408" fill="white"/>
<path d="M26.8567 0.325684V20.5655H34.4344L40.0623 20.5695H41.5246V15.0773H33.5038V0.325684H26.8567Z" fill="white"/>
<path d="M18.0781 0.325684V20.5695L24.73 20.5655V0.325684H18.0781Z" fill="white"/>
<path d="M43.6548 0.322021H38.7567V0.325098H35.6353V12.9554H41.529V6.38203C42.1002 6.22523 42.6971 6.18416 43.2844 6.26127C43.8717 6.33838 44.4376 6.5321 44.9487 6.83098C45.4598 7.12986 45.9057 7.5279 46.2602 8.00155C46.6147 8.47519 46.8705 9.01484 47.0125 9.58873C47.1546 10.1626 47.1801 10.7591 47.0874 11.343C46.9947 11.9269 46.7858 12.4863 46.473 12.9883C46.1601 13.4902 45.7497 13.9246 45.2659 14.2658C44.7821 14.6069 44.2347 14.8479 43.6561 14.9746V20.5716C46.3142 20.522 48.8466 19.4335 50.7088 17.5401C52.5711 15.6467 53.6144 13.0998 53.6144 10.4468C53.6144 7.79385 52.5711 5.24682 50.7088 3.35345C48.8466 1.46009 46.3142 0.371605 43.6561 0.322021" fill="white"/>
</svg>
