<svg width="99" height="38" fill="none" xmlns="http://www.w3.org/2000/svg"><path d="M18.435 28.643a6.465 6.465 0 01-3.826.998h-3.268v-8.07h3.271a6.49 6.49 0 013.827.993 3.875 3.875 0 011.476 3.04 3.867 3.867 0 01-1.476 3.04h-.004zM11.34 7.702h2.783a5.043 5.043 0 013.175.909 3.656 3.656 0 01.92 4.253 3.656 3.656 0 01-.92 1.239 5.028 5.028 0 01-3.175.902H11.34V7.702zM24.53 18.115a9.587 9.587 0 004.033-4.644 9.562 9.562 0 00.375-6.134 9.58 9.58 0 00-3.435-5.1A9.614 9.614 0 0019.668.269c-.286 0-.57.018-.848.043-.334-.02-.667-.039-1.036-.043H0v37.183h12.027a.046.046 0 00-.01.006l2.008-.006h3.706c.14 0 .26-.01.396-.013l3.374-.01c2.364 0 4.65-.843 6.445-2.377a9.876 9.876 0 001.992-12.71 9.91 9.91 0 00-5.41-4.226M49.338.268V37.45h13.92l10.34.008h2.686v-10.09H61.55V.268H49.338zM33.211.268v37.19l12.22-.008V.268h-12.22z" fill="#F27A31"/><path d="M80.198.261H71.2v.006h-5.735V23.47h10.828V11.394a8.167 8.167 0 016.282.825 8.145 8.145 0 013.792 5.066 8.117 8.117 0 01-3.21 8.593 8.158 8.158 0 01-2.956 1.302v10.282a18.662 18.662 0 0012.956-5.57 18.583 18.583 0 005.338-13.03c0-4.874-1.917-9.553-5.338-13.032A18.662 18.662 0 0080.201.261" fill="#F27A31"/></svg>