<svg width="139" height="37" fill="none" xmlns="http://www.w3.org/2000/svg"><g opacity=".2" fill="#fff"><path d="M10.035 27.771a3.518 3.518 0 01-2.083.543H6.173v-4.392h1.78a3.532 3.532 0 012.084.54 2.109 2.109 0 010 3.31h-.002zM6.173 16.372h1.515a2.745 2.745 0 011.728.495 1.99 1.99 0 01.5 2.315 1.991 1.991 0 01-.5.674 2.737 2.737 0 01-1.728.492H6.173v-3.976zm7.179 5.668a5.205 5.205 0 00.53-8.643 5.234 5.234 0 00-3.176-1.071c-.156 0-.31.01-.461.024a11.577 11.577 0 00-.565-.024H0v20.24h6.547a.027.027 0 00-.006.003l1.093-.003h2.018c.076 0 .141-.005.215-.007l1.837-.005c1.286 0 2.53-.46 3.508-1.294a5.382 5.382 0 001.084-6.918 5.395 5.395 0 00-2.945-2.301M26.857 12.326v20.24h7.577l5.628.003h1.463v-5.492h-8.021V12.326h-6.647zM18.078 12.326v20.243l6.652-.004v-20.24h-6.652z"/><path d="M43.655 12.322h-4.898v.003h-3.122v12.63h5.894v-6.573a4.446 4.446 0 014.731 1.62 4.421 4.421 0 01-2.604 6.973v5.597a10.158 10.158 0 007.053-3.032 10.115 10.115 0 000-14.186 10.158 10.158 0 00-7.053-3.032"/><path fill-rule="evenodd" clip-rule="evenodd" d="M92.078 19.677a27.173 27.173 0 001.462-3.817c.31-.99 1.463-1.642 2.837-1.642 1.027 0 1.837.84 1.432 1.487a70.003 70.003 0 00-1.245 2.078c-1.526 2.697-1.712 3.04-4.08 7.848l-.934 1.865a39.464 39.464 0 00-1.028 2.045c-.467.933-1.772 1.492-3.146 1.492-1.34 0-2.46-.747-2.585-1.741-.093-.809-.218-1.585-.343-2.388a88.585 88.585 0 00-.436-2.605c-.155-.864-.28-1.705-.436-2.544l-.124-.714c-.187-1.146-.25-1.456-.62-3.228-.032-.162-.468-2.11-.437-2.079-.28-.803.686-1.517 1.745-1.486h.746c1.246-.031 2.181.745 2.212 1.673.031.62.093 1.523.249 2.823.25 2.75.647 5.483 1.186 8.19l3.545-7.257zm10.309 3.787l.903-5.025c.187-1.025.342-1.772.468-2.331a2.33 2.33 0 01.062-.492c.062-.808-.842-1.585-1.9-1.368-.343.062-.655.125-1.091.187a1.511 1.511 0 00-1.444 1.07c-.062.205-.08.422-.05.634.03 1.119-.25 3.135-.997 7.231l-.53 3.04c-.218 1.27-.436 2.14-.592 2.793a1.346 1.346 0 01-.03.155 1.595 1.595 0 001.04 1.511c.205.077.423.11.64.1h.25c1.183 0 2.304-.62 2.366-1.518.096-1.056.344-2.883.905-5.986v-.001zm9.063-9.68a21.07 21.07 0 01.716-3.108c.218-.809-.934-1.399-2.024-1.18-1.34.309-2.273 1.18-2.367 2.174a19.939 19.939 0 01-.281 2.051 1.423 1.423 0 00-1.495 1.118c-.093.498.405.933 1.028 1.057l-1.963 10.318a13.114 13.114 0 00-.279 2.144 3.27 3.27 0 00.715 1.865c.467.652 1.807 1.248 3.893 1.248.271.005.541-.006.81-.031 1.121-.156 1.932-.844 2.118-1.622.093-.528-.717-1.056-1.557-.932a2.761 2.761 0 01-.654.093c-.685 0-1.184-.466-1.184-1.616.079-1.32.277-2.63.591-3.916.094-.466.25-1.12.374-1.834.156-.84.343-1.772.499-2.609.186-.932.374-1.864.529-2.609.031-.186.062-.28.093-.435.436 0 .935 0 1.526.031 1.028 0 1.931-.435 2.117-1.118.125-.62-.62-1.244-1.557-1.15-.31.031-.686.031-1.09.031-.155 0-.31.03-.467.03h-.092.001zm9.094 0h.093c.156 0 .31-.032.467-.032.405 0 .779 0 1.09-.03.935-.094 1.681.528 1.557 1.149-.186.683-1.089 1.118-2.117 1.118-.592-.03-1.09-.03-1.526-.03-.031.155-.062.248-.093.434-.156.746-.343 1.678-.529 2.61-.156.84-.343 1.771-.499 2.609-.124.714-.279 1.367-.374 1.833a22.043 22.043 0 00-.591 3.916c0 1.15.498 1.616 1.183 1.616.221-.005.44-.036.654-.093.842-.124 1.651.404 1.557.933-.187.777-.997 1.466-2.117 1.62-.27.027-.54.037-.811.032-2.086 0-3.426-.596-3.893-1.248a3.27 3.27 0 01-.715-1.865c.034-.721.128-1.438.281-2.144l1.962-10.318c-.62-.124-1.121-.56-1.028-1.056a1.42 1.42 0 011.495-1.118c.128-.679.222-1.364.281-2.052.093-.994 1.028-1.864 2.367-2.175 1.09-.217 2.243.374 2.025 1.181a20.947 20.947 0 00-.718 3.107l-.001.002zm14.109 2.485a6.304 6.304 0 00-1.994-.404c-4.734 0-5.98 6.651-5.98 9.198 0 2.113.592 3.636 2.149 3.636.903 0 2.055-.497 3.114-2.051.842-1.15 1.37-2.953 1.899-6.058l.811-4.32h.001zm2.367-2.02l-.498.186a8.653 8.653 0 00-3.332-.652 8.882 8.882 0 00-5.451 1.741c-4.547 3.605-5.388 9.262-5.388 10.691 0 3.543 2.553 5.227 5.14 5.227 2.43 0 4.08-1.901 5.357-3.64-.121.626-.204 1.259-.249 1.895-.062.777.872 1.43 1.963 1.399 1.058-.031 2.086-.59 2.086-1.368a43.31 43.31 0 01.686-5.595l.56-3.045c.53-2.86.873-4.445 1.09-5.47.154-.84-.842-1.711-1.963-1.37l-.001.001z"/><path d="M113.32 34.154c-.022.101-.059.2-.108.291a1.14 1.14 0 01-.715.57c.096.02.186.062.261.125a.465.465 0 01.133.207.767.767 0 01.031.269c-.005.105-.02.21-.045.312l-.173.744h-.564l.154-.647a1.63 1.63 0 00.044-.334.482.482 0 00-.052-.247.342.342 0 00-.177-.152.876.876 0 00-.33-.05h-.433l-.333 1.432h-.576l.804-3.46h1.213c.141-.001.281.017.417.053.114.03.219.087.305.168.082.08.138.181.161.293a.947.947 0 01-.017.426zm-.592.072a.446.446 0 00-.071-.41.712.712 0 00-.525-.148h-.42l-.27 1.159h.424c.089-.001.178-.011.266-.031a.967.967 0 00.257-.1.71.71 0 00.339-.47zm2.686 1.94a1.362 1.362 0 01-.705.502 1.518 1.518 0 01-.443.065 1.09 1.09 0 01-.481-.099.838.838 0 01-.481-.672 1.366 1.366 0 01.028-.502c.041-.184.111-.36.207-.524a1.682 1.682 0 01.809-.703c.175-.07.361-.105.549-.104.132-.002.264.018.39.058a.787.787 0 01.301.173.682.682 0 01.18.286c.04.126.049.26.029.391l-1.974.663a.892.892 0 00.014.248.455.455 0 00.262.341.732.732 0 00.513.006.816.816 0 00.399-.305.886.886 0 00.12-.237h.501a1.507 1.507 0 01-.221.413h.003zm-.266-1.54a.506.506 0 00-.332-.102.821.821 0 00-.599.242 1.102 1.102 0 00-.192.257 1.456 1.456 0 00-.124.304l-.013.058 1.4-.47a.394.394 0 00-.139-.287l-.001-.001zm2.877 1.32a.84.84 0 01-.183.374 1.064 1.064 0 01-.305.243 1.336 1.336 0 01-.378.132c-.13.026-.262.038-.395.039a1.681 1.681 0 01-.423-.05.79.79 0 01-.32-.159.563.563 0 01-.178-.276.808.808 0 010-.408h.501a.412.412 0 00.081.418.609.609 0 00.429.132c.065 0 .13-.008.195-.021a.846.846 0 00.197-.067.575.575 0 00.164-.12.402.402 0 00.094-.181.282.282 0 00-.005-.177.25.25 0 00-.108-.117.749.749 0 00-.2-.08c-.08-.02-.171-.044-.274-.065a3.487 3.487 0 01-.363-.096.849.849 0 01-.266-.133.418.418 0 01-.143-.202.56.56 0 01.005-.299.71.71 0 01.149-.3.989.989 0 01.27-.222 1.44 1.44 0 01.352-.137 1.834 1.834 0 01.786-.01c.11.022.213.067.303.133a.527.527 0 01.177.245c.038.121.041.25.008.373h-.481a.355.355 0 00-.089-.36.545.545 0 00-.365-.116.797.797 0 00-.263.038.648.648 0 00-.18.094.412.412 0 00-.108.116.327.327 0 00-.044.108.207.207 0 00-.001.113c.011.037.032.07.061.096.066.056.143.1.226.127.093.032.189.058.286.077.1.02.181.038.245.058.081.025.159.054.236.088.072.03.139.072.195.125a.432.432 0 01.114.19.546.546 0 01-.006.278l.004-.001zm.786.74c-.077 0-.153-.007-.228-.022a.335.335 0 01-.279-.272.735.735 0 01.018-.309l.266-1.138a.688.688 0 00.019-.181.183.183 0 00-.036-.108.159.159 0 00-.089-.054.5.5 0 00-.127-.015l.303-.418c.076 0 .153.007.228.021a.37.37 0 01.18.089c.051.05.086.114.098.184a.748.748 0 01-.017.313l-.266 1.133a.526.526 0 00-.021.185.191.191 0 00.038.108.153.153 0 00.089.053c.042.01.085.014.128.013l-.304.417zm.725-3.253a.276.276 0 01-.026.123.273.273 0 01-.08.098.384.384 0 01-.474 0 .282.282 0 01-.108-.221.28.28 0 01.108-.221.386.386 0 01.474 0 .272.272 0 01.106.22zm2.226 3.253a.533.533 0 01-.355-.097.375.375 0 01-.125-.265 1.32 1.32 0 01-.968.409 1.09 1.09 0 01-.481-.099.831.831 0 01-.325-.269.895.895 0 01-.156-.403 1.366 1.366 0 01.028-.502c.041-.184.111-.36.207-.524.093-.159.211-.301.35-.422.136-.119.291-.214.459-.281.175-.07.361-.105.549-.104.143-.002.285.026.417.081.118.05.22.134.291.24l.116-.498c.032-.133.026-.225-.02-.272a.279.279 0 00-.216-.065l.303-.418a.977.977 0 01.253.028.386.386 0 01.178.097c.048.05.079.115.088.185.011.099.003.199-.025.295l-.471 2.027a.63.63 0 00-.012.34c.027.068.102.102.224.102l-.306.414h-.003zm-.251-1.648a.405.405 0 00-.15-.379.558.558 0 00-.19-.1.743.743 0 00-.224-.033 1.05 1.05 0 00-.39.07.944.944 0 00-.303.194 1.096 1.096 0 00-.216.295 1.693 1.693 0 00-.133.372 1.203 1.203 0 00-.031.353.6.6 0 00.085.28c.05.08.122.144.207.184.105.048.22.071.336.068a.977.977 0 00.52-.154.88.88 0 00.207-.185.621.621 0 00.12-.247l.165-.718h-.003zm2.901 1.129a1.417 1.417 0 01-.315.309c-.118.085-.25.15-.39.192a1.518 1.518 0 01-.443.065 1.09 1.09 0 01-.481-.099.83.83 0 01-.325-.269.895.895 0 01-.156-.403 1.345 1.345 0 01.028-.502c.041-.184.111-.36.207-.524.093-.159.211-.301.35-.422.136-.119.291-.214.459-.281.175-.07.361-.105.549-.104.132-.002.264.018.39.058a.796.796 0 01.301.173.68.68 0 01.179.286c.04.126.05.26.029.391l-1.973.663a.891.891 0 00.013.248.512.512 0 00.089.204.44.44 0 00.174.137.736.736 0 00.513.006.828.828 0 00.399-.305.916.916 0 00.12-.237h.5a1.55 1.55 0 01-.222.413h.005zm-.266-1.54a.508.508 0 00-.332-.103.821.821 0 00-.599.242 1.102 1.102 0 00-.192.257 1.456 1.456 0 00-.124.304l-.013.058 1.4-.47a.39.39 0 00-.139-.286l-.001-.002zm3.003 2.06a1.056 1.056 0 01-.253-.027.348.348 0 01-.177-.097.34.34 0 01-.089-.185.745.745 0 01.025-.293l.193-.826a1.32 1.32 0 00.036-.266.55.55 0 00-.038-.223.333.333 0 00-.133-.154.48.48 0 00-.253-.058.699.699 0 00-.299.062.778.778 0 00-.238.168 1.01 1.01 0 00-.174.24c-.047.09-.082.186-.104.284l-.313 1.36h-.523l.399-1.726c.032-.147.026-.243-.018-.288a.28.28 0 00-.214-.068l.303-.417a.69.69 0 01.251.038.355.355 0 01.149.104.37.37 0 01.072.158.947.947 0 01.015.2c.108-.174.26-.316.44-.412.174-.088.366-.134.561-.132a.674.674 0 01.576.235.73.73 0 01.088.629l-.192.836a.612.612 0 00-.012.34c.027.068.102.101.223.097l-.302.422.001-.002zm2.65-.52a1.438 1.438 0 01-.315.309c-.119.085-.25.15-.39.192a1.522 1.522 0 01-.443.065 1.09 1.09 0 01-.481-.099.831.831 0 01-.325-.269.908.908 0 01-.157-.403 1.366 1.366 0 01.029-.502c.041-.184.111-.36.207-.524a1.657 1.657 0 01.809-.703 1.46 1.46 0 01.549-.104c.132-.002.263.018.389.058a.789.789 0 01.301.173.682.682 0 01.18.286c.04.126.05.26.029.391h-.5a.458.458 0 00-.106-.38.494.494 0 00-.375-.132.838.838 0 00-.646.288c-.079.089-.144.19-.193.297a1.928 1.928 0 00-.12.346 1.405 1.405 0 00-.036.33.66.66 0 00.06.283c.037.081.097.15.173.197.094.054.202.08.31.075a.816.816 0 00.65-.349.887.887 0 00.12-.238h.5a1.546 1.546 0 01-.221.413h.002zm1.022.519a1.19 1.19 0 01-.228-.022.378.378 0 01-.18-.088.333.333 0 01-.098-.183.752.752 0 01.017-.31l.266-1.138a.649.649 0 00.019-.181.183.183 0 00-.036-.108.158.158 0 00-.089-.054.5.5 0 00-.127-.015l.303-.418c.076 0 .153.007.228.021a.37.37 0 01.18.089c.051.05.086.114.098.184a.748.748 0 01-.017.313l-.266 1.133a.526.526 0 00-.021.185.2.2 0 00.038.108.153.153 0 00.089.053c.042.01.085.014.128.013l-.304.417zm.728-3.253a.263.263 0 01-.106.221.384.384 0 01-.474 0 .276.276 0 01-.107-.221.276.276 0 01.107-.221.386.386 0 01.474 0 .262.262 0 01.106.22zm2.225 3.253a.534.534 0 01-.355-.094.371.371 0 01-.123-.262 1.604 1.604 0 01-.45.303 1.305 1.305 0 01-.522.1 1.093 1.093 0 01-.482-.098.835.835 0 01-.324-.27.908.908 0 01-.157-.403 1.345 1.345 0 01.029-.501c.041-.185.111-.361.207-.524a1.656 1.656 0 01.809-.704c.174-.07.36-.105.548-.104.143-.002.285.026.417.082.119.05.22.133.292.24l.058-.265h.525l-.404 1.758c-.032.132-.025.218.025.261.06.047.136.068.212.06l-.307.42.002.001zm-.251-1.648a.405.405 0 00-.15-.379.551.551 0 00-.19-.1.744.744 0 00-.223-.033 1.042 1.042 0 00-.39.07.921.921 0 00-.303.194 1.08 1.08 0 00-.217.295 1.695 1.695 0 00-.133.373 1.203 1.203 0 00-.031.353.624.624 0 00.085.28c.05.08.122.143.207.184.105.048.22.071.336.068a.975.975 0 00.52-.154.84.84 0 00.207-.185.62.62 0 00.12-.247l.165-.718h-.003zm1.246 1.648a1.19 1.19 0 01-.228-.022.379.379 0 01-.18-.088.34.34 0 01-.099-.183.735.735 0 01.018-.31l.491-2.114a.55.55 0 00.021-.185.202.202 0 00-.039-.108.147.147 0 00-.088-.05.578.578 0 00-.128-.012l.303-.418c.077 0 .153.007.228.021a.332.332 0 01.279.273.748.748 0 01-.017.313l-.491 2.109a.576.576 0 00-.021.185.2.2 0 00.039.108.142.142 0 00.088.05.567.567 0 00.128.012l-.303.42-.001-.001z"/><path fill-rule="evenodd" clip-rule="evenodd" d="M95.56 7.925a4.001 4.001 0 01.252-1.709 1.091 1.091 0 00-.298-.614 6.563 6.563 0 00.047 2.323zm.178.698v-.008a3.747 3.747 0 01-.034-.114c.011.04.022.081.035.122zm-.226-3.021v-.008.008zm.063 2.397a1.425 1.425 0 01-.014-.06c.004.02.01.04.013.06zM97.62 9.88a.17.17 0 00.005.278.163.163 0 00.183-.001.17.17 0 00-.064-.303.163.163 0 00-.124.026zm.767 1.415a.17.17 0 00.063.303.162.162 0 00.19-.134.169.169 0 00-.028-.125.16.16 0 00-.225-.044zm-.734-.554a.135.135 0 00-.033.186.131.131 0 00.135.057.129.129 0 00.047-.02.136.136 0 00-.05-.243.13.13 0 00-.1.02zm.007-3.197a.174.174 0 00.243.05.182.182 0 00-.067-.326.173.173 0 00-.132.027.181.181 0 00-.044.25zm.666 2.174a.173.173 0 00-.243-.05.182.182 0 00.067.326.174.174 0 00.206-.143.18.18 0 00-.03-.133zm8.041 1.598c-.262.163-.516.337-.763.522a.349.349 0 00.115.331c.31-.203.603-.431.875-.683a.342.342 0 00-.227-.17zm1.278-2.201c.162-.113.353-.179.55-.19a.78.78 0 00-.123-.558.733.733 0 00-1.033-.209.77.77 0 00.251 1.369c.082-.165.205-.306.355-.412z"/><path fill-rule="evenodd" clip-rule="evenodd" d="M107.414 10.574c.044-.061.089-.123.133-.187a.817.817 0 01.279-.976.746.746 0 01.336-.133c.031-.07.06-.14.089-.212a.959.959 0 00-.539.172 1.03 1.03 0 00-.298 1.336z"/><path fill-rule="evenodd" clip-rule="evenodd" d="M107.65 10.235c.163-.253.309-.516.437-.788a.62.62 0 00-.177.086.66.66 0 00-.26.702zm-6.064-2.418a.926.926 0 00-.221 1.274.881.881 0 00.921.39.888.888 0 00.324-.137.929.929 0 00.221-1.274.882.882 0 00-.921-.39.887.887 0 00-.324.137zm5.846-2.746a1.186 1.186 0 010-1.268c.079-.122.181-.228.3-.312a1.103 1.103 0 00-1.367.078c-.123.11-.219.245-.282.397a1.736 1.736 0 01-.962-.85c.321-.105.761.205.761.205-.194-.3-.458-.55-.769-.728a1.688 1.688 0 01-.823-.11c.407.311.693.753.81 1.251.311.13.64.215.975.251a1.186 1.186 0 00.095 1.082 1.103 1.103 0 011.262.004z"/><path fill-rule="evenodd" clip-rule="evenodd" d="M108.043 3.806c.175.262.24.583.18.892-.033.164-.101.32-.2.455a.394.394 0 00-.569-.062l-.022-.02c.005.009.012.015.017.023a.415.415 0 00-.094.486l-.024.013.027-.007a.402.402 0 00.585.161.411.411 0 00.171-.333c.171.025.333.087.476.183.014 0 .029-.005.044-.008a6.708 6.708 0 00-.757-2.183c-.05.025-.098.053-.144.085.122.084.227.191.31.315z"/><path fill-rule="evenodd" clip-rule="evenodd" d="M108.633 5.59a.497.497 0 01-.044.008c.016.012.033.023.049.036l-.005-.045zm.018 1.203a1.158 1.158 0 01-.732-.523 1.119 1.119 0 01-.892.902 1.144 1.144 0 001.163.53 1.1 1.1 0 00.47-.206c.029-.229.048-.459.054-.69l-.063-.013zm-1.321-1.2a1.138 1.138 0 01-1.143-.496c-.007-.01-.012-.021-.02-.031a1.167 1.167 0 00-.304 1.578 1.13 1.13 0 001.163.529 1.214 1.214 0 01-.162-.414 1.158 1.158 0 01.466-1.165zm-9.077.017a.17.17 0 00.064.303.163.163 0 00.123-.026.17.17 0 00-.064-.304.161.161 0 00-.123.027zm-.22.584a.128.128 0 00-.183-.037.133.133 0 00-.032.186.13.13 0 00.182.037.137.137 0 00.032-.186zm7.245-1.402a.18.18 0 00-.044.248.168.168 0 00.111.076.174.174 0 00.132-.027.178.178 0 00.073-.116.185.185 0 00-.028-.133.17.17 0 00-.049-.049.17.17 0 00-.131-.026.175.175 0 00-.064.027zm-4.674-1.335a.18.18 0 00-.044.249c.012.02.029.036.048.049a.169.169 0 00.132.027.176.176 0 00.063-.027.18.18 0 00.044-.249.17.17 0 00-.18-.075.177.177 0 00-.063.026zM97.909 5.39a.182.182 0 00-.004-.297.175.175 0 00-.195 0 .184.184 0 00.003.297.173.173 0 00.196 0zm.694-.227a.18.18 0 00.067.324.173.173 0 00.132-.027.18.18 0 00-.067-.324.174.174 0 00-.132.027zm1.052-.557a.136.136 0 00.05.243.13.13 0 00.1-.02.137.137 0 00-.05-.244.129.129 0 00-.1.02zm1.557-.62a.135.135 0 00-.033.186.117.117 0 00.036.038.125.125 0 00.099.02.132.132 0 00.102-.107.131.131 0 00-.023-.1.126.126 0 00-.134-.057.126.126 0 00-.047.02zM98.418 1.1l.012.007-.012-.007zm.363-.136c.012-.038.025-.077.039-.111-.011.005-.02.012-.031.018l-.008.093zm-.403.278a1.151 1.151 0 01-.117-.036l-.056.038a.927.927 0 01.173-.002zm.152-.216l.11-.066c-.038.02-.073.044-.11.066zm-.115.073c.014-.008.027-.02.041-.028-.012.01-.027.019-.04.028zm-.213.145c-.041.03-.082.06-.123.092l.126-.095-.003.003zm.211-.144l-.154.105.153-.105h.001zm.227-.143v.003c.049-.03.097-.061.148-.089l-.148.086zm.18-.104c.06-.034.122-.065.184-.097V.752l-.184.1zm0 .647a.261.261 0 00-.096-.468.25.25 0 00-.19.038.262.262 0 00.097.468.251.251 0 00.19-.038z"/><path fill-rule="evenodd" clip-rule="evenodd" d="M97.478 3.257c.102.071.218.12.34.144.041.007.084.011.126.012a.576.576 0 00-.103.686.657.657 0 00.443-.708c.128-.03.248-.082.357-.155a.618.618 0 00.344.76.697.697 0 00-.182-.891 1.13 1.13 0 00.326-.62 1.52 1.52 0 00.02-.26c.104.133.206.2.28.12.108-.115-.047-.357-.242-.581.26.206.536.363.594.191.052-.151-.185-.31-.451-.432.316.08.629.108.614-.073-.014-.163-.292-.207-.581-.21.318-.058.612-.165.526-.326-.077-.143-.346-.066-.609.054.256-.183.474-.398.358-.511a6.54 6.54 0 00-.456.2 2.58 2.58 0 00-.085.094l.04-.073-.135.072a.523.523 0 01-.095.27c.097-.113.205-.206.27-.156.071.057-.042.169-.178.265.133-.062.27-.1.31-.027.045.08-.105.135-.266.165.147 0 .289.024.295.105.008.093-.151.08-.31.039.133.063.255.142.229.22-.03.09-.17.008-.302-.097.098.114.177.237.123.295-.062.067-.16-.065-.239-.214.044.144.07.288-.005.318-.084.033-.12-.125-.133-.295-.016.15-.051.29-.133.287-.089-.005-.06-.165-.004-.323-.074.128-.164.24-.236.203-.08-.044.01-.177.124-.294-.12.085-.247.15-.298.085-.058-.072.079-.154.231-.214-.144.027-.285.031-.307-.048-.069.052-.138.104-.206.158a2.58 2.58 0 00.197-.027c-.3.118-.57.279-.456.421.1.126.35 0 .586-.168-.226.235-.404.497-.245.58.142.074.318-.148.464-.401-.11.312-.167.626.01.636.157.008.228-.268.259-.563.022.296.083.574.212.588a.904.904 0 01-1.046.64.76.76 0 01-.584-.873.104.104 0 00-.121-.121.093.093 0 00-.038.018l-.026.03a.108.108 0 00-.012.034.98.98 0 00.266.854.484.484 0 00-.56.381.547.547 0 00.7-.264zm1.524-1.256h-.016l-.023-.078c.01.028.026.053.039.078zm3.65-1.913a.771.771 0 00.072-.055 6.632 6.632 0 00-1.27-.005.986.986 0 001.198.06zm1.041 1.652a2.204 2.204 0 01.119-1.358 4.132 4.132 0 00-.104-.177l-.089-.023a4.538 4.538 0 00-.17-.038c.06.255.061.521.003.777-.316-.133-.459-.66-.459-.66-.027.27-.009.541.056.804.27.165.492.398.644.675zm1.957-.185c.087-.112.168-.229.242-.35l-.133-.091a1.616 1.616 0 01-.754.302.901.901 0 01.316-.568l-.074-.04c-.227.08-.438.198-.624.349a1.735 1.735 0 01-.345.716c.404-.267.891-.38 1.372-.318z"/><path fill-rule="evenodd" clip-rule="evenodd" d="M103.79 2.578a.379.379 0 00.202-.067.419.419 0 00-.155-.747.4.4 0 00-.304.061.446.446 0 00-.075.07 2.207 2.207 0 01-.409-.83 3.232 3.232 0 00-1.489-.439 1.71 1.71 0 011.064.845c-.317.117-.766-.183-.766-.183.108.154.234.295.376.42a1.92 1.92 0 011.201.218.414.414 0 00-.068.294 2.108 2.108 0 01-1.133-.512 3.326 3.326 0 00-1.083.328 1.646 1.646 0 011.317.227c-.221.26-.753.214-.753.214.233.118.486.194.746.224a1.73 1.73 0 01.905-.468.412.412 0 00.397.346c-.172.46-.5.846-.927 1.09-.085.404-.1.82-.045 1.23a1.688 1.688 0 01.615-1.202c.088.261.077.547-.034.801a2.17 2.17 0 00.56-1.017 1.784 1.784 0 01-.142-.903zm.307-.773c.132-.25.312-.47.532-.65a2.53 2.53 0 00.068-.618 7.168 7.168 0 00-.322-.129 1.557 1.557 0 01-.248.379.792.792 0 01-.133-.505 4.012 4.012 0 00-.12-.034c-.023.045-.039.089-.059.133.258.427.358.93.282 1.424zm.291.537c.254.039.5.124.724.25a3.068 3.068 0 001.463-.644v.836l.74-.223a6.682 6.682 0 00-.731-.796l-.012-.01v.185a1.627 1.627 0 01-1.302.044c.164-.302.689-.37.689-.37a2.237 2.237 0 00-.31-.057 1.938 1.938 0 01-1.261.785z"/><path fill-rule="evenodd" clip-rule="evenodd" d="M103.505 2.545a2.05 2.05 0 01-1.042.156 3.328 3.328 0 00-.778 1.222 1.604 1.604 0 011.107-.744c.01.348-.404.682-.404.682.157-.047.309-.112.451-.192.081-.442.317-.841.666-1.124z"/><path fill-rule="evenodd" clip-rule="evenodd" d="M103.958 2.56c.055.306.047.62-.023.922.085.191.193.371.323.536-.061.169-.13.334-.205.496a.412.412 0 00-.085-.032c-.548-.133-.971.784-1.267 1.789.123-1.176.063-2.317-.553-2.199-.549.107-.566 1.13-.431 2.179-.359-1.133-.869-2.158-1.379-1.788-.358.26-.189.902.162 1.607-.607-.673-1.205-1.098-1.482-.664-.304.478.391 1.223 1.211 1.875-1.032-.55-2.094-.91-2.19-.274-.058.383.347.686.923.921a5.935 5.935 0 01-1.409-.113 4.704 4.704 0 01-.428-.11 3.69 3.69 0 00.09-3.14 2.1 2.1 0 00.516.178 2.597 2.597 0 002.653-1.14c.185-.287.311-.607.372-.942a.859.859 0 00.986.737.934.934 0 00-.961-.865c.007-.041.014-.083.019-.123a.596.596 0 00.663-.034.58.58 0 00.154-.175.647.647 0 00-.794-.04 3.352 3.352 0 00-.52-1.92 5.464 5.464 0 00-.201.06 3.2 3.2 0 01.464 2.292 2.38 2.38 0 01-.985 1.568 2.373 2.373 0 01-1.814.38 1.886 1.886 0 01-.71-.304c-.037-.069-.061-.106-.061-.106a.53.53 0 00-.045.024 2.02 2.02 0 01-.62-.85 4.042 4.042 0 00-.123.22c.13.279.318.527.55.73-.47.24-.875.59-1.181 1.02a6.72 6.72 0 00-.06.321c.168.1.3.25.377.428.231-.52.552-.996.947-1.406-.288.574-.535 1.17-.738 1.78.34-.337.783-.552 1.258-.614A2.802 2.802 0 0096 6.72a8.56 8.56 0 00-.129.497 2.437 2.437 0 011.237-.903 2.944 2.944 0 00-1.312 1.282c-.061.336-.08.677-.057 1.017.215.684.539 1.328.959 1.908.346.352.727.668 1.138.942-1.118-1.051-.516-2.93-.32-3.45.631.129 1.278.155 1.917.079.146.044.296.088.448.126-1.152-.07-2.26.044-2.091.67.149.558 1.145.528 2.152.34-1.07.421-2.025.992-1.623 1.497.358.45 1.246 0 2.083-.595-.802.837-1.436 1.764-.873 2.06.504.263 1.129-.523 1.649-1.424-.39 1.105-.595 2.227.034 2.26.56.03.812-.956.921-2.002.089 1.182.352 2.3.934 2.064.519-.208.354-1.22.033-2.23.226.453.504.877.83 1.264-.034.297-.062.596-.081.894.071-.02.14-.04.21-.062.016-.216.035-.434.059-.651a.844.844 0 00.254.153.55.55 0 00-.158.289s.48.214.769-.391a.89.89 0 00-.187-.029.685.685 0 00.022-.675.173.173 0 00-.053-.127 3.982 3.982 0 00-.439-.711l.031-.177c.769.543 1.489.851 1.664.343.145-.42-.336-.85-1.001-1.227a.647.647 0 00.165-.148c.367.081.749.08 1.115-.005.039.104.086.217.143.337a.772.772 0 00-.024.898c.058.09.132.168.217.232 0 .005-.006.01-.008.015a.17.17 0 00.113.207.189.189 0 00.048.007c.038-.037.073-.076.11-.114a.642.642 0 00.026-.03l.023-.024a6.511 6.511 0 00.297-.342c.032-.04.065-.078.096-.119a1.174 1.174 0 01-.115-.985.721.721 0 00-.621.099l-.012.01a3.481 3.481 0 01-.115-.285.361.361 0 00.124-.322c-.044-.522-.861-.7-1.781-.732l.017-.067c1.008-.221 1.849-.58 1.57-1.1-.272-.508-1.229-.236-2.161.19.94-.67 1.732-1.46 1.227-1.854-.45-.354-1.206.3-1.879 1.085.474-.823.827-1.677.613-2.049.072-.15.139-.303.199-.458.203.224.433.421.685.588a1.749 1.749 0 01-.513-1.272c.335.066.578.553.578.553a2.533 2.533 0 00-.059-.335 1.91 1.91 0 01-1.14-1.17zm-7.63 6.68a.452.452 0 00.7.04s-.426.496-.705-.04a1.145 1.145 0 01-.32-.062 1.348 1.348 0 001.262-.584 1.035 1.035 0 01-.937.647zm-.095-.349c.308-.297.574-.635.79-1.004.158.05.318.091.48.124-.638 1.256-1.27.881-1.27.881zm7.927 1.703c-.08-.1-.162-.198-.246-.294.089.07.175.137.262.202l-.016.092zm.538-1.085a.604.604 0 00-.044.045l-.077-.038c0-.012.005-.024.007-.034.039.012.077.02.114.028zm-.077-1.082c0 .006-.003.012-.004.017h-.076l.08-.017zm-.746-1.32c.257.2-.145.6-.62.94.474-.216.958-.353 1.097-.096.156.29-.374.483-.948.59.522.002 1.023.082 1.047.373.027.328-.537.28-1.108.133.478.221.908.505.813.78-.105.31-.605.026-1.071-.346.35.404.632.84.436 1.049-.222.234-.567-.231-.848-.764.162.512.247 1.026-.017 1.132-.295.119-.429-.448-.474-1.048-.056.53-.183 1.032-.468 1.017-.32-.017-.216-.585-.018-1.147-.263.457-.58.856-.837.723-.287-.15.036-.62.444-1.046-.426.302-.876.53-1.058.302-.204-.256.279-.547.824-.76-.512.094-1.017.11-1.093-.173-.085-.317.476-.375 1.063-.34-.509-.13-.98-.328-.936-.616.048-.322.587-.14 1.111.14-.415-.331-.769-.708-.614-.952.141-.222.443-.005.753.337-.177-.357-.263-.684-.082-.815.259-.188.519.332.7.907-.069-.53-.06-1.052.218-1.105.313-.06.344.52.281 1.116.149-.51.364-.976.642-.908.31.077.108.614-.188 1.128.339-.4.723-.73.951-.55v-.001zm2.26-4.467a.136.136 0 00-.032.187.129.129 0 00.236-.05.131.131 0 00-.021-.1.13.13 0 00-.083-.056.135.135 0 00-.1.019z"/><path fill-rule="evenodd" clip-rule="evenodd" d="M101.178 1.106a.18.18 0 00.044-.248.17.17 0 00-.18-.076.176.176 0 00-.063.027.181.181 0 00-.072.115.175.175 0 00.028.134.169.169 0 00.18.075.177.177 0 00.063-.027zm5.97 1.692a.18.18 0 00-.044.248.165.165 0 00.111.076.174.174 0 00.132-.027.18.18 0 00.044-.248.177.177 0 00-.18-.075.177.177 0 00-.063.026zm-6.942.364c.018-.328-.245-.302-.27-.3a.25.25 0 00-.187-.183 7.489 7.489 0 00-.557.38.254.254 0 00.184.293.269.269 0 00.177.343c.178.053.19-.019.244-.095a.24.24 0 00.354-.164.204.204 0 00-.015-.146.197.197 0 00.07-.128zm-.399.139a.163.163 0 01-.23-.047.173.173 0 01.04-.236.164.164 0 01.231.047.17.17 0 01-.04.236z"/><path d="M68.086 14.11a.443.443 0 00-.886 0v16.803a.443.443 0 00.886 0V14.11z"/></g></svg>