<svg width="24" height="15" viewBox="0 0 24 15" fill="#fff" xmlns="http://www.w3.org/2000/svg">
<path fill-rule="evenodd" clip-rule="evenodd" d="M13.4634 7.5C13.4634 11.6421 10.4495 15 6.73171 15C3.01389 15 0 11.6421 0 7.5C0 3.35786 3.01389 0 6.73171 0C10.4495 0 13.4634 3.35786 13.4634 7.5ZM20.7805 7.5C20.7805 11.6421 19.2735 15 17.4146 15C15.5557 15 14.0488 11.6421 14.0488 7.5C14.0488 3.35786 15.5557 0 17.4146 0C19.2735 0 20.7805 3.35786 20.7805 7.5ZM22.8293 14.0217C23.4758 14.0217 24 11.1019 24 7.5C24 3.89814 23.4758 0.978261 22.8293 0.978261C22.1827 0.978261 21.6585 3.89814 21.6585 7.5C21.6585 11.1019 22.1827 14.0217 22.8293 14.0217Z" fill="white"/>
</svg>
