<svg width="208" height="86" viewBox="0 0 208 86" fill="none" xmlns="http://www.w3.org/2000/svg">
<path d="M42.5454 41.1491C42.5454 44.8711 39.3939 47.6626 35.5071 47.6626C33.0909 47.6626 30.9899 46.5253 29.6242 44.7677L17.7535 28.9491C15.7576 26.3643 11.5556 27.7084 11.5556 30.9135V42.2863C11.5556 45.2846 8.92929 47.6626 5.77778 47.6626C2.52121 47.6626 0 45.2846 0 42.2863V6.51355C0 2.89491 3.15151 0 7.03838 0C9.45454 0 11.5556 1.24067 12.9212 2.99829L24.897 18.8169C26.8929 21.4016 31.0949 20.0576 31.0949 16.7491V5.47965C31.0949 2.48135 33.6162 0 36.8727 0C40.0242 0 42.6505 2.48135 42.6505 5.47965V41.1491H42.5454Z" fill="#fff"/>
<path d="M67.9674 38.6677L66.3916 43.7338C65.6563 46.2152 63.7654 47.6626 60.4038 47.6626C56.727 47.6626 54.626 45.0779 54.626 42.183C54.626 41.4592 54.9411 40.3219 55.1512 39.7016L66.8118 6.30677C67.9674 2.79153 70.3836 0 75.426 0C80.4684 0 82.9896 2.89492 84.1452 6.30677L95.4906 39.7016C95.7007 40.3219 96.0159 41.5626 96.0159 42.183C96.0159 45.6982 93.3896 47.6626 89.8179 47.6626C86.8765 47.6626 84.7755 46.2152 84.0401 43.7338L82.5694 38.6677L79.628 29.0525L78.0522 23.7796C77.3169 21.1949 73.5351 21.0915 72.6947 23.7796L71.0139 29.0525L67.9674 38.6677Z" fill="#fff"/>
<path d="M130.787 3.92879C131.733 1.44744 134.149 0 136.775 0C140.137 0 143.078 2.27456 143.078 5.78981C143.078 6.51354 142.973 7.13387 142.658 7.8576L129.422 41.4592C128.056 44.8711 125.22 47.6626 120.598 47.6626C115.87 47.6626 113.139 44.8711 111.773 41.4592L99.0622 7.8576C98.8521 7.23726 98.7471 6.51354 98.7471 5.8932C98.7471 2.58474 101.478 0 105.155 0C107.781 0 110.093 1.44745 110.933 4.03219L118.076 24.7101C118.917 27.1915 122.488 27.1915 123.434 24.7101L130.787 3.92879Z" fill="#fff"/>
<path d="M181.422 36.8585H166.19C165.664 36.8585 165.244 36.6517 164.929 36.2381C164.194 35.1008 164.719 33.9636 165.664 33.55H165.769L174.068 30.2415L175.854 29.5178H175.959L176.064 29.4144C178.165 28.5873 179.741 26.5195 179.741 24.0382V23.9348V23.8314C179.741 21.4534 178.27 19.3856 176.064 18.4551L175.959 18.3517H175.854L174.068 17.628L165.769 14.3195H165.664C164.719 13.906 164.194 12.7687 164.929 11.6314C165.244 11.2178 165.664 11.0111 166.19 11.0111H181.422C184.468 11.0111 186.99 8.52971 186.99 5.53141C186.99 2.53311 184.468 0.0517578 181.422 0.0517578H163.458C163.353 0.0517578 163.353 0.0517578 163.248 0.0517578C156.63 0.155147 151.272 5.42802 151.272 11.9416C151.272 17.0077 154.424 21.2466 158.836 23.0043C159.571 23.3144 159.571 24.3483 158.836 24.6585C154.424 26.4161 151.272 30.7585 151.272 35.7212C151.272 42.2347 156.63 47.5076 163.248 47.611C163.353 47.611 163.353 47.611 163.458 47.611H181.422C184.468 47.611 186.99 45.1296 186.99 42.1313C186.885 39.3398 184.468 36.8585 181.422 36.8585Z" fill="#fff"/>
<path d="M202.748 0C199.874 0 197.495 2.34599 197.495 5.18072C197.495 8.01545 199.874 10.3614 202.748 10.3614C205.622 10.3614 208 8.01545 208 5.18072C208 2.34599 205.721 0 202.748 0Z" fill="#F26E36"/>
<path opacity="0.5" d="M0 58.6808C0 58.3524 0.119913 58.0239 0.119913 58.0239H187.92C188.04 58.0239 188.04 58.3524 188.04 58.3524C188.04 58.6808 187.92 58.6808 187.92 58.6808H0.119913C0.119913 59.3377 0 59.0093 0 58.6808Z" fill="#9EA5AC"/>
<path d="M61.5024 83.2523C61.1424 83.4779 60.7195 83.5867 60.2933 83.5632H59.2607V81.0481H60.2943C60.7203 81.0247 61.143 81.1329 61.5035 81.3575C61.6489 81.4705 61.7664 81.6145 61.8472 81.7786C61.9279 81.9427 61.9699 82.1227 61.9699 82.305C61.9699 82.4874 61.9279 82.6674 61.8472 82.8315C61.7664 82.9956 61.6489 83.1395 61.5035 83.2525L61.5024 83.2523ZM59.2604 76.725H60.1397C60.497 76.7058 60.8505 76.8056 61.143 77.0084C61.2667 77.1153 61.3657 77.247 61.4335 77.3946C61.5014 77.5421 61.5364 77.7023 61.5364 77.8642C61.5364 78.0262 61.5014 78.1864 61.4335 78.3339C61.3657 78.4815 61.2667 78.6131 61.143 78.7201C60.8504 78.9225 60.4968 79.0217 60.1397 79.0014H59.2604V76.725ZM63.428 79.9707C64.0028 79.639 64.4506 79.1303 64.7024 78.5231C64.9542 77.9159 64.996 77.2441 64.8212 76.6113C64.6465 75.9784 64.2649 75.4198 63.7355 75.0216C63.2061 74.6235 62.5582 74.4079 61.8919 74.4082C61.8016 74.4082 61.7118 74.414 61.6241 74.4219C61.5184 74.4155 61.4132 74.4097 61.2966 74.4082H55.6768V85.9978H59.4773C59.4762 85.9983 59.4752 85.9989 59.4742 85.9996L60.1089 85.9978H61.2799C61.3242 85.9978 61.3622 85.9948 61.4049 85.9938L62.4713 85.9907C63.2182 85.9906 63.9405 85.7279 64.508 85.2498C65.0755 84.7718 65.4507 84.11 65.5661 83.3836C65.6815 82.6573 65.5295 81.9142 65.1374 81.2885C64.7453 80.6628 64.139 80.1955 63.4278 79.971" fill="#BBC4CD"/>
<path d="M71.2676 74.4067V85.9961H75.6667L78.9339 85.9984H79.7829V82.8535H75.1265V74.4067H71.2676Z" fill="#BBC4CD"/>
<path d="M66.1709 74.4067V85.9984L70.0326 85.9961V74.4067H66.1709Z" fill="#BBC4CD"/>
<path d="M81.0199 74.4048H78.1764V74.4065H76.3643V81.6387H79.7858V77.8748C80.1174 77.785 80.4639 77.7615 80.8049 77.8056C81.1458 77.8498 81.4744 77.9607 81.7711 78.1318C82.0678 78.303 82.3267 78.5309 82.5324 78.8021C82.7382 79.0733 82.8867 79.3823 82.9692 79.7109C83.0517 80.0395 83.0665 80.3811 83.0127 80.7154C82.9589 81.0497 82.8376 81.3701 82.656 81.6575C82.4743 81.9449 82.2361 82.1937 81.9552 82.389C81.6744 82.5843 81.3566 82.7224 81.0207 82.7949V85.9997C82.5638 85.9713 84.034 85.3481 85.1151 84.2639C86.1961 83.1798 86.8018 81.7213 86.8018 80.2023C86.8018 78.6832 86.1961 77.2247 85.1151 76.1406C84.034 75.0564 82.5638 74.4332 81.0207 74.4048" fill="#BBC4CD"/>
<path fill-rule="evenodd" clip-rule="evenodd" d="M105.939 78.6161C106.277 77.9095 106.561 77.1788 106.788 76.4302C106.968 75.8638 107.637 75.4903 108.434 75.4903C109.031 75.4903 109.501 75.9714 109.266 76.3413C109.031 76.7113 108.814 77.0711 108.543 77.5314C107.658 79.076 107.549 79.2722 106.175 82.0251L105.632 83.0929C105.422 83.4776 105.223 83.8682 105.036 84.2642C104.765 84.7982 104.007 85.1183 103.209 85.1183C102.432 85.1183 101.781 84.6909 101.709 84.1214C101.655 83.6586 101.582 83.2139 101.51 82.7541C101.437 82.273 101.346 81.7572 101.256 81.2624C101.166 80.7677 101.093 80.2863 101.003 79.8057L100.931 79.3968C100.823 78.741 100.787 78.5635 100.571 77.5484C100.553 77.456 100.3 76.3408 100.318 76.3583C100.155 75.8984 100.716 75.4895 101.33 75.5072H101.764C102.487 75.4895 103.03 75.9339 103.048 76.4654C103.066 76.8199 103.102 77.3372 103.192 78.0819C103.338 79.656 103.568 81.2215 103.881 82.7718L105.939 78.6161ZM111.924 80.7844L112.448 77.9072C112.557 77.32 112.647 76.8926 112.719 76.5723C112.721 76.4774 112.733 76.383 112.755 76.2907C112.791 75.8278 112.267 75.3832 111.653 75.5075C111.453 75.5429 111.272 75.5786 111.019 75.6141C110.894 75.6142 110.771 75.6405 110.657 75.6913C110.544 75.7421 110.443 75.8161 110.36 75.9085C110.278 76.001 110.217 76.1096 110.181 76.2272C110.145 76.3447 110.135 76.4685 110.151 76.5902C110.169 77.2306 110.007 78.385 109.573 80.7307L109.265 82.4715C109.139 83.1982 109.012 83.6968 108.922 84.0703C108.918 84.1002 108.912 84.1299 108.904 84.1592C108.903 84.2839 108.927 84.4075 108.977 84.5225C109.026 84.6375 109.098 84.7413 109.19 84.8277C109.281 84.9141 109.389 84.9811 109.508 85.0247C109.627 85.0684 109.753 85.0876 109.88 85.0813H110.024C110.712 85.0813 111.362 84.7268 111.399 84.2126C111.454 83.6082 111.598 82.5619 111.924 80.7849V80.7844ZM117.185 75.2411C117.278 74.6385 117.417 74.0437 117.601 73.4618C117.727 72.999 117.058 72.6609 116.426 72.7857C115.648 72.963 115.106 73.4618 115.051 74.0313C115.018 74.4253 114.964 74.8173 114.888 75.2057C114.69 75.1912 114.492 75.2482 114.333 75.3659C114.173 75.4836 114.062 75.6541 114.021 75.846C113.967 76.1306 114.256 76.3801 114.617 76.451L113.478 82.3591C113.39 82.7632 113.335 83.1737 113.316 83.5866C113.338 83.9764 113.483 84.3497 113.731 84.6544C114.002 85.0279 114.78 85.369 115.991 85.369C116.148 85.3719 116.305 85.366 116.462 85.3512C117.112 85.2624 117.583 84.8681 117.691 84.423C117.745 84.1204 117.274 83.8181 116.787 83.889C116.663 83.9217 116.535 83.9395 116.407 83.9422C116.01 83.9422 115.72 83.6753 115.72 83.0169C115.766 82.2609 115.881 81.5105 116.063 80.7747C116.117 80.5079 116.208 80.1336 116.28 79.7247C116.371 79.2436 116.48 78.7101 116.57 78.2308C116.678 77.6967 116.787 77.163 116.877 76.7368C116.895 76.6302 116.913 76.5763 116.931 76.4877C117.184 76.4877 117.474 76.4877 117.817 76.5054C118.413 76.5054 118.938 76.2562 119.046 75.865C119.118 75.5105 118.686 75.153 118.142 75.2067C117.962 75.2244 117.744 75.2244 117.509 75.2244C117.419 75.2244 117.329 75.2421 117.238 75.2421H117.185L117.185 75.2411ZM122.465 75.2411H122.519C122.609 75.2411 122.699 75.2234 122.79 75.2234C123.025 75.2234 123.242 75.2234 123.422 75.2057C123.965 75.1525 124.399 75.5083 124.326 75.864C124.218 76.2552 123.694 76.5044 123.097 76.5044C122.754 76.4867 122.465 76.4867 122.212 76.4867C122.194 76.5755 122.176 76.6292 122.158 76.7358C122.067 77.1625 121.958 77.6965 121.85 78.2297C121.76 78.7108 121.651 79.2444 121.561 79.7237C121.489 80.1326 121.399 80.5069 121.344 80.7738C121.161 81.5095 121.047 82.2599 121 83.0159C121 83.6743 121.29 83.9411 121.687 83.9411C121.815 83.9385 121.943 83.9206 122.067 83.888C122.555 83.8168 123.025 84.1194 122.971 84.422C122.862 84.8671 122.392 85.2614 121.742 85.3503C121.585 85.365 121.428 85.3709 121.271 85.368C120.06 85.368 119.282 85.0269 119.011 84.6534C118.763 84.3488 118.618 83.9755 118.596 83.5856C118.615 83.1727 118.67 82.7621 118.759 82.3581L119.898 76.4499C119.538 76.3788 119.247 76.1296 119.301 75.845C119.343 75.6531 119.454 75.4826 119.613 75.3648C119.773 75.2471 119.97 75.1902 120.169 75.2047C120.244 74.8162 120.298 74.4242 120.332 74.0303C120.386 73.4608 120.929 72.9625 121.707 72.7848C122.339 72.6604 123.009 72.9984 122.882 73.4608C122.697 74.0427 122.558 74.6375 122.465 75.2401L122.465 75.2411ZM130.655 76.6647C130.285 76.5263 129.894 76.4481 129.498 76.4332C126.749 76.4332 126.026 80.2418 126.026 81.7C126.026 82.9098 126.37 83.7819 127.274 83.7819C127.798 83.7819 128.467 83.4973 129.081 82.6075C129.57 81.9491 129.877 80.9168 130.184 79.1385L130.655 76.6649L130.655 76.6647ZM132.03 75.508L131.74 75.6146C131.127 75.3654 130.469 75.2384 129.806 75.2411C128.668 75.2201 127.555 75.5707 126.642 76.238C124.002 78.3022 123.514 81.5412 123.514 82.3598C123.514 84.3883 124.996 85.3528 126.498 85.3528C127.908 85.3528 128.866 84.264 129.608 83.2679C129.537 83.6265 129.489 83.989 129.463 84.3534C129.427 84.7985 129.97 85.172 130.602 85.1543C131.217 85.1365 131.814 84.8162 131.814 84.3711C131.876 83.2958 132.009 82.2257 132.212 81.1675L132.537 79.4236C132.845 77.7864 133.044 76.8789 133.17 76.2917C133.259 75.8106 132.681 75.312 132.03 75.5067L132.03 75.508Z" fill="#BBC4CD"/>
<path fill-rule="evenodd" clip-rule="evenodd" d="M107.961 71.8867C107.937 71.554 107.987 71.2201 108.107 70.9083C108.089 70.7759 108.028 70.6528 107.934 70.5568C107.863 70.9982 107.872 71.4485 107.961 71.8867ZM108.064 72.2865V72.2817C108.057 72.2601 108.051 72.2385 108.045 72.2168C108.051 72.2391 108.057 72.2632 108.064 72.2865ZM107.933 70.5565C107.933 70.5551 107.933 70.5537 107.933 70.5522V70.5565ZM107.969 71.9289C107.966 71.9149 107.964 71.9008 107.961 71.8867C107.961 71.8895 107.961 71.8924 107.961 71.8953C107.964 71.9061 107.967 71.9173 107.969 71.9289ZM109.158 73.0066C109.137 73.0215 109.123 73.0437 109.118 73.0686C109.114 73.0935 109.119 73.1191 109.134 73.14C109.141 73.1503 109.15 73.1592 109.16 73.1661C109.171 73.1729 109.182 73.1776 109.195 73.18C109.207 73.1824 109.22 73.1823 109.232 73.1798C109.244 73.1773 109.256 73.1723 109.266 73.1653C109.287 73.1505 109.301 73.1282 109.306 73.1033C109.31 73.0785 109.304 73.0528 109.29 73.0319C109.283 73.0216 109.274 73.0128 109.264 73.0059C109.253 72.9991 109.241 72.9943 109.229 72.9919C109.217 72.9896 109.204 72.9897 109.192 72.9922C109.18 72.9947 109.168 72.9996 109.158 73.0066ZM109.602 73.8171C109.581 73.8318 109.567 73.854 109.563 73.879C109.558 73.9039 109.564 73.9296 109.578 73.9506C109.585 73.9609 109.594 73.9697 109.604 73.9766C109.615 73.9835 109.627 73.9883 109.639 73.9906C109.651 73.993 109.664 73.9929 109.676 73.9904C109.689 73.9878 109.7 73.9829 109.711 73.9759C109.731 73.961 109.745 73.9387 109.75 73.9138C109.754 73.8888 109.748 73.8632 109.734 73.8424C109.727 73.8322 109.718 73.8233 109.708 73.8165C109.697 73.8096 109.686 73.8048 109.673 73.8025C109.661 73.8001 109.649 73.8002 109.636 73.8027C109.624 73.8052 109.613 73.8101 109.602 73.8171ZM109.176 73.4996C109.16 73.5115 109.148 73.5292 109.145 73.5491C109.141 73.569 109.146 73.5895 109.158 73.6062C109.163 73.6146 109.17 73.6217 109.178 73.6274C109.187 73.633 109.196 73.6369 109.206 73.6389C109.216 73.6409 109.226 73.641 109.236 73.639C109.246 73.6371 109.255 73.6333 109.263 73.6277C109.28 73.6158 109.291 73.5979 109.295 73.5779C109.298 73.5579 109.294 73.5374 109.282 73.5206C109.277 73.5123 109.269 73.5052 109.261 73.4996C109.253 73.494 109.244 73.4902 109.234 73.4882C109.224 73.4862 109.214 73.4862 109.204 73.4882C109.194 73.4902 109.185 73.494 109.176 73.4996ZM109.18 71.6694C109.188 71.6805 109.197 71.69 109.208 71.6974C109.219 71.7049 109.232 71.7101 109.245 71.7127C109.258 71.7153 109.272 71.7153 109.285 71.7127C109.298 71.7101 109.311 71.7049 109.322 71.6975C109.344 71.6816 109.359 71.6579 109.364 71.6313C109.369 71.6047 109.363 71.5774 109.347 71.5549C109.34 71.5438 109.331 71.5342 109.32 71.5268C109.308 71.5193 109.296 71.5141 109.283 71.5115C109.27 71.5088 109.256 71.5088 109.243 71.5115C109.23 71.5141 109.217 71.5194 109.206 71.5268C109.184 71.5427 109.169 71.5664 109.164 71.593C109.159 71.6196 109.165 71.647 109.18 71.6694ZM109.567 72.9139C109.56 72.9028 109.551 72.8931 109.54 72.8857C109.528 72.8782 109.516 72.8729 109.503 72.8703C109.49 72.8677 109.476 72.8677 109.463 72.8704C109.45 72.873 109.437 72.8783 109.426 72.8858C109.404 72.9017 109.389 72.9254 109.384 72.952C109.379 72.9786 109.385 73.0059 109.4 73.0284C109.408 73.0395 109.417 73.0491 109.428 73.0565C109.439 73.064 109.452 73.0692 109.465 73.0718C109.478 73.0745 109.492 73.0745 109.505 73.0718C109.518 73.0692 109.531 73.064 109.542 73.0565C109.564 73.0409 109.579 73.0171 109.584 72.9904C109.589 72.9637 109.583 72.9362 109.567 72.9139ZM114.235 73.829C114.083 73.9226 113.935 74.0223 113.792 74.1278C113.785 74.1625 113.788 74.1982 113.8 74.2315C113.812 74.2648 113.832 74.2945 113.859 74.3177C114.039 74.2015 114.209 74.0706 114.367 73.9265C114.353 73.902 114.334 73.8806 114.312 73.8638C114.289 73.847 114.263 73.8352 114.235 73.829ZM114.977 72.5688C115.071 72.5042 115.182 72.4665 115.296 72.4599C115.315 72.3483 115.289 72.2341 115.225 72.1404C115.194 72.093 115.154 72.0523 115.107 72.0206C115.06 71.9888 115.007 71.9667 114.951 71.9556C114.895 71.9444 114.837 71.9444 114.781 71.9557C114.725 71.9669 114.672 71.989 114.625 72.0208C114.531 72.088 114.467 72.1888 114.447 72.3018C114.427 72.4148 114.452 72.531 114.518 72.6258C114.577 72.7138 114.667 72.7774 114.771 72.8045C114.819 72.7105 114.89 72.6295 114.977 72.5688Z" fill="#BBC4CD"/>
<path fill-rule="evenodd" clip-rule="evenodd" d="M114.842 73.4035C114.868 73.3685 114.894 73.3331 114.919 73.2969C114.879 73.1993 114.873 73.0912 114.902 72.9897C114.931 72.8883 114.994 72.7996 115.081 72.7378C115.139 72.6971 115.206 72.671 115.277 72.6618C115.295 72.6213 115.311 72.5811 115.328 72.54C115.216 72.5411 115.107 72.5755 115.015 72.6385C114.896 72.723 114.813 72.8476 114.781 72.9887C114.749 73.1297 114.771 73.2773 114.842 73.4035Z" fill="#BBC4CD"/>
<path fill-rule="evenodd" clip-rule="evenodd" d="M114.979 73.2095C115.074 73.0651 115.159 72.9145 115.233 72.7588C115.196 72.7696 115.161 72.7861 115.13 72.8076C115.067 72.852 115.019 72.914 114.992 72.9857C114.965 73.0573 114.96 73.1353 114.979 73.2095ZM111.459 71.8252C111.345 71.9065 111.268 72.0282 111.244 72.1644C111.22 72.3006 111.251 72.4407 111.33 72.5549C111.367 72.6119 111.416 72.6609 111.473 72.6991C111.529 72.7374 111.593 72.764 111.661 72.7775C111.728 72.7909 111.798 72.791 111.865 72.7776C111.932 72.7642 111.996 72.7377 112.053 72.6995C112.167 72.6182 112.244 72.4966 112.268 72.3605C112.292 72.2244 112.261 72.0845 112.182 71.9703C112.145 71.9133 112.096 71.8642 112.04 71.8259C111.983 71.7877 111.919 71.7609 111.851 71.7474C111.784 71.7339 111.715 71.7338 111.647 71.7472C111.58 71.7605 111.516 71.7871 111.459 71.8252ZM114.853 70.2528C114.783 70.1442 114.746 70.0183 114.746 69.8899C114.746 69.7615 114.783 69.6357 114.853 69.5271C114.898 69.4568 114.957 69.3961 115.027 69.3483C114.949 69.2938 114.859 69.2574 114.765 69.2416C114.67 69.2259 114.574 69.2313 114.482 69.2574C114.39 69.2836 114.305 69.3297 114.233 69.3925C114.162 69.4554 114.106 69.5332 114.069 69.6203C113.827 69.5342 113.627 69.36 113.511 69.1336C113.697 69.0731 113.953 69.2511 113.953 69.2511C113.84 69.079 113.687 68.936 113.506 68.834C113.344 68.8528 113.18 68.8312 113.029 68.7715C113.265 68.9493 113.431 69.2023 113.499 69.4873C113.68 69.5619 113.87 69.6104 114.065 69.6311C114.024 69.7313 114.007 69.8397 114.017 69.9474C114.026 70.0551 114.062 70.1591 114.12 70.2507C114.125 70.2465 114.131 70.2426 114.136 70.2391C114.244 70.1705 114.369 70.1352 114.497 70.1376C114.624 70.1401 114.748 70.1802 114.853 70.2528Z" fill="#BBC4CD"/>
<path fill-rule="evenodd" clip-rule="evenodd" d="M115.208 69.5282C115.31 69.6782 115.347 69.8618 115.312 70.0389C115.293 70.1329 115.253 70.2217 115.196 70.2992C115.161 70.2529 115.108 70.2218 115.05 70.2124C114.992 70.2029 114.932 70.2159 114.883 70.2486C114.877 70.2532 114.871 70.2582 114.866 70.2638C114.862 70.2607 114.858 70.2559 114.853 70.2527C114.856 70.2575 114.86 70.2613 114.863 70.2656C114.825 70.3 114.798 70.3457 114.789 70.3959C114.779 70.4461 114.786 70.498 114.808 70.5441C114.804 70.5471 114.799 70.5484 114.794 70.5514L114.81 70.5476C114.814 70.5571 114.819 70.5663 114.825 70.5752C114.842 70.6007 114.863 70.6227 114.889 70.6398C114.914 70.6569 114.943 70.6689 114.973 70.6749C115.004 70.681 115.035 70.681 115.065 70.675C115.095 70.669 115.124 70.6571 115.149 70.64C115.18 70.6183 115.205 70.5897 115.223 70.5565C115.24 70.5233 115.249 70.4865 115.249 70.4491C115.348 70.4631 115.442 70.499 115.525 70.554C115.533 70.554 115.542 70.5509 115.551 70.5492C115.52 70.3567 115.474 70.1669 115.413 69.9815C115.335 69.7449 115.234 69.5165 115.111 69.2993C115.082 69.3134 115.054 69.3296 115.028 69.3477C115.099 69.3961 115.16 69.4573 115.208 69.5282Z" fill="#BBC4CD"/>
<path fill-rule="evenodd" clip-rule="evenodd" d="M115.55 70.5494C115.542 70.5514 115.533 70.5529 115.525 70.5542C115.534 70.561 115.544 70.5676 115.553 70.575L115.55 70.5494ZM115.561 71.2386C115.473 71.2192 115.39 71.1828 115.317 71.1313C115.244 71.0799 115.182 71.0147 115.136 70.9393C115.12 71.0257 115.086 71.108 115.037 71.1811C114.988 71.2543 114.924 71.3169 114.85 71.365C114.779 71.4104 114.701 71.4412 114.618 71.4556C114.687 71.5671 114.788 71.6556 114.908 71.7098C115.028 71.764 115.163 71.7813 115.293 71.7595C115.392 71.7418 115.485 71.7013 115.565 71.6413C115.583 71.5102 115.593 71.3783 115.597 71.2462L115.561 71.2386ZM114.794 70.552C114.667 70.5734 114.537 70.5579 114.419 70.5073C114.301 70.4567 114.2 70.3733 114.13 70.2673C114.126 70.2618 114.123 70.2552 114.119 70.2496C113.978 70.3496 113.881 70.4989 113.848 70.6669C113.815 70.8349 113.849 71.0089 113.942 71.1533C114.011 71.2646 114.112 71.3529 114.232 71.4069C114.352 71.4609 114.487 71.4779 114.617 71.4559C114.571 71.3832 114.539 71.3029 114.523 71.2189C114.498 71.0939 114.511 70.9645 114.559 70.8462C114.607 70.728 114.688 70.6258 114.794 70.552ZM109.524 70.5611C109.503 70.576 109.489 70.5982 109.485 70.6231C109.48 70.648 109.486 70.6736 109.5 70.6945C109.507 70.7048 109.516 70.7137 109.527 70.7206C109.537 70.7275 109.549 70.7322 109.561 70.7346C109.573 70.737 109.586 70.7369 109.598 70.7343C109.611 70.7318 109.622 70.7269 109.633 70.7198C109.654 70.7049 109.668 70.6827 109.672 70.6578C109.676 70.6329 109.671 70.6073 109.656 70.5864C109.65 70.576 109.641 70.567 109.63 70.5601C109.62 70.5531 109.608 70.5483 109.596 70.546C109.583 70.5436 109.571 70.5437 109.558 70.5463C109.546 70.5489 109.534 70.5539 109.524 70.5611ZM109.396 70.8953C109.39 70.887 109.383 70.8798 109.375 70.8742C109.367 70.8686 109.357 70.8647 109.347 70.8628C109.338 70.8608 109.327 70.8609 109.318 70.8629C109.308 70.8649 109.298 70.8689 109.29 70.8745C109.282 70.8803 109.275 70.8876 109.269 70.8961C109.264 70.9046 109.26 70.9141 109.258 70.924C109.256 70.9339 109.257 70.9441 109.259 70.9539C109.261 70.9637 109.265 70.9729 109.271 70.9811C109.277 70.9895 109.284 70.9967 109.292 71.0022C109.3 71.0078 109.31 71.0117 109.32 71.0136C109.33 71.0156 109.34 71.0155 109.35 71.0135C109.359 71.0115 109.369 71.0075 109.377 71.0019C109.394 70.9899 109.405 70.9721 109.408 70.9523C109.412 70.9324 109.407 70.912 109.396 70.8953ZM113.603 70.0926C113.58 70.1083 113.565 70.132 113.56 70.1585C113.556 70.185 113.562 70.2123 113.577 70.2347C113.584 70.2458 113.594 70.2555 113.605 70.263C113.616 70.2704 113.628 70.2756 113.641 70.2783C113.655 70.2809 113.668 70.2809 113.681 70.2782C113.695 70.2756 113.707 70.2703 113.718 70.2628C113.74 70.2469 113.755 70.2232 113.76 70.1966C113.765 70.17 113.759 70.1426 113.744 70.1202C113.736 70.1092 113.727 70.0998 113.716 70.0924C113.705 70.085 113.692 70.0799 113.679 70.0773C113.666 70.0748 113.652 70.0748 113.639 70.0774C113.626 70.0801 113.614 70.0852 113.603 70.0926ZM110.889 69.3282C110.867 69.344 110.852 69.3677 110.847 69.3943C110.842 69.4209 110.848 69.4483 110.863 69.4707C110.871 69.4819 110.88 69.4915 110.891 69.4989C110.902 69.5064 110.915 69.5116 110.928 69.5142C110.941 69.5169 110.955 69.5168 110.968 69.5142C110.981 69.5116 110.993 69.5063 111.004 69.4988C111.027 69.483 111.042 69.4593 111.047 69.4327C111.051 69.4061 111.046 69.3787 111.03 69.3563C111.023 69.3453 111.013 69.3358 111.002 69.3284C110.991 69.321 110.979 69.3158 110.966 69.3132C110.952 69.3106 110.939 69.3106 110.926 69.3132C110.913 69.3157 110.9 69.3208 110.889 69.3282ZM109.324 70.436C109.346 70.4202 109.361 70.3964 109.366 70.3698C109.371 70.3432 109.365 70.3158 109.35 70.2934C109.342 70.2824 109.333 70.2729 109.322 70.2655C109.311 70.2581 109.298 70.253 109.285 70.2504C109.272 70.2478 109.258 70.2477 109.245 70.2503C109.232 70.2528 109.22 70.2579 109.209 70.2653C109.186 70.2812 109.171 70.305 109.167 70.3315C109.162 70.3581 109.168 70.3854 109.183 70.4079C109.19 70.4189 109.2 70.4285 109.211 70.4359C109.222 70.4433 109.234 70.4485 109.247 70.4511C109.261 70.4537 109.274 70.4538 109.287 70.4512C109.3 70.4486 109.313 70.4434 109.324 70.436ZM109.727 70.3056C109.705 70.3213 109.69 70.345 109.685 70.3715C109.681 70.398 109.686 70.4253 109.702 70.4476C109.709 70.4588 109.718 70.4684 109.73 70.4758C109.741 70.4833 109.753 70.4885 109.766 70.4911C109.779 70.4937 109.793 70.4937 109.806 70.4911C109.819 70.4884 109.832 70.4832 109.843 70.4757C109.865 70.46 109.88 70.4364 109.885 70.4098C109.89 70.3833 109.884 70.356 109.869 70.3337C109.861 70.3225 109.852 70.313 109.841 70.3055C109.83 70.298 109.817 70.2928 109.804 70.2902C109.791 70.2876 109.777 70.2876 109.764 70.2902C109.751 70.2929 109.739 70.2981 109.727 70.3056ZM110.338 69.9868C110.322 69.9986 110.31 70.0164 110.307 70.0363C110.303 70.0561 110.307 70.0766 110.319 70.0934C110.324 70.1017 110.331 70.1089 110.34 70.1145C110.348 70.1201 110.357 70.124 110.367 70.126C110.377 70.128 110.387 70.128 110.397 70.1261C110.407 70.1242 110.416 70.1204 110.425 70.1149C110.441 70.1029 110.452 70.0851 110.456 70.0652C110.46 70.0452 110.455 70.0247 110.444 70.0078C110.439 69.9994 110.431 69.9922 110.423 69.9866C110.415 69.9809 110.406 69.977 110.396 69.975C110.386 69.9731 110.376 69.9731 110.366 69.9751C110.356 69.9771 110.346 69.9811 110.338 69.9868ZM111.242 69.6323C111.225 69.6441 111.214 69.6619 111.21 69.6818C111.207 69.7016 111.211 69.7221 111.223 69.7389C111.228 69.7472 111.235 69.7544 111.243 69.76C111.252 69.7656 111.261 69.7695 111.271 69.7714C111.281 69.7733 111.291 69.7733 111.301 69.7713C111.311 69.7693 111.32 69.7653 111.328 69.7597C111.337 69.7539 111.344 69.7466 111.349 69.7381C111.355 69.7296 111.359 69.7201 111.36 69.7102C111.362 69.7003 111.362 69.6901 111.36 69.6803C111.357 69.6705 111.353 69.6612 111.347 69.653C111.342 69.6447 111.335 69.6375 111.327 69.6319C111.318 69.6263 111.309 69.6224 111.299 69.6205C111.289 69.6185 111.279 69.6186 111.269 69.6206C111.259 69.6226 111.25 69.6266 111.242 69.6323ZM109.62 67.9783L109.627 67.9821L109.62 67.9783ZM109.831 67.9003C109.838 67.8783 109.845 67.8563 109.853 67.8365C109.847 67.8396 109.841 67.8434 109.835 67.8469C109.834 67.8644 109.832 67.8821 109.831 67.9003ZM109.597 68.0596C109.574 68.0539 109.551 68.0469 109.529 68.0388L109.496 68.0609C109.529 68.0573 109.563 68.0569 109.597 68.0596ZM109.685 67.936C109.706 67.9231 109.727 67.9107 109.749 67.8981C109.727 67.9097 109.706 67.9231 109.685 67.936ZM109.618 67.9776C109.626 67.9728 109.634 67.9664 109.642 67.9616C109.635 67.9672 109.626 67.9723 109.618 67.9776ZM109.495 68.0609C109.47 68.0781 109.447 68.095 109.423 68.113L109.496 68.0591C109.496 68.0591 109.495 68.0609 109.495 68.0609ZM109.617 67.9783C109.587 67.9978 109.557 68.0181 109.528 68.0383C109.557 68.0181 109.587 67.9978 109.617 67.9783H109.617ZM109.749 67.896V67.8978C109.777 67.8806 109.805 67.8629 109.834 67.8472C109.805 67.8631 109.777 67.8796 109.749 67.896ZM109.853 67.8368C109.888 67.8173 109.924 67.7996 109.96 67.7811V67.7793C109.924 67.7983 109.889 67.8173 109.853 67.8368ZM109.854 68.2072C109.886 68.1844 109.908 68.1503 109.914 68.112C109.921 68.0737 109.913 68.0343 109.891 68.0021C109.88 67.9861 109.866 67.9723 109.851 67.9615C109.835 67.9507 109.817 67.9432 109.798 67.9394C109.779 67.9356 109.759 67.9355 109.74 67.9393C109.721 67.943 109.703 67.9504 109.687 67.9611C109.655 67.984 109.633 68.0183 109.626 68.0567C109.62 68.0951 109.628 68.1346 109.65 68.167C109.661 68.1829 109.675 68.1966 109.69 68.2073C109.706 68.218 109.724 68.2254 109.743 68.2292C109.762 68.2329 109.782 68.2329 109.801 68.2291C109.82 68.2254 109.838 68.2179 109.854 68.2072Z" fill="#BBC4CD"/>
<path fill-rule="evenodd" clip-rule="evenodd" d="M109.074 69.2143C109.133 69.2548 109.2 69.2829 109.271 69.2968C109.296 69.3006 109.32 69.3029 109.345 69.3036C109.293 69.3539 109.259 69.4193 109.248 69.4901C109.237 69.5609 109.25 69.6332 109.285 69.6961C109.369 69.6685 109.44 69.6129 109.487 69.539C109.534 69.4651 109.554 69.3774 109.542 69.291C109.616 69.2739 109.686 69.2438 109.749 69.2021C109.722 69.286 109.727 69.3771 109.764 69.4575C109.801 69.5379 109.867 69.6019 109.949 69.6369C109.996 69.5534 110.011 69.4561 109.992 69.3626C109.972 69.2691 109.92 69.1855 109.843 69.1269C109.943 69.0314 110.009 68.9073 110.032 68.7724C110.041 68.7232 110.045 68.6734 110.045 68.6235C110.104 68.6995 110.163 68.7375 110.207 68.6921C110.27 68.626 110.18 68.4876 110.066 68.3592C110.217 68.4774 110.377 68.5668 110.411 68.4688C110.441 68.382 110.303 68.2916 110.149 68.2214C110.332 68.2672 110.514 68.2832 110.506 68.1791C110.498 68.086 110.336 68.0609 110.168 68.0596C110.353 68.026 110.524 67.9647 110.474 67.8728C110.429 67.7907 110.273 67.8348 110.12 67.9034C110.269 67.7986 110.395 67.6755 110.328 67.6107C110.239 67.6456 110.15 67.6836 110.063 67.7251C110.046 67.7424 110.03 67.7606 110.014 67.7791L110.038 67.7375C110.012 67.7504 109.985 67.7651 109.959 67.7785C109.955 67.834 109.936 67.8873 109.904 67.9328C109.96 67.8684 110.023 67.8153 110.06 67.8439C110.102 67.8763 110.036 67.9406 109.957 67.9958C110.034 67.9604 110.113 67.9383 110.137 67.9799C110.163 68.0265 110.076 68.0576 109.983 68.0748C110.068 68.0748 110.15 68.0883 110.154 68.1348C110.158 68.188 110.066 68.1801 109.974 68.1568C110.051 68.1931 110.122 68.2384 110.107 68.2835C110.089 68.3341 110.008 68.2878 109.931 68.2278C109.988 68.2926 110.034 68.363 110.003 68.3966C109.967 68.4346 109.91 68.3594 109.864 68.2736C109.89 68.3561 109.905 68.4389 109.861 68.4561C109.813 68.4751 109.791 68.3845 109.784 68.2873C109.775 68.3731 109.754 68.4531 109.707 68.4514C109.655 68.4483 109.672 68.3571 109.704 68.2665C109.661 68.3399 109.609 68.4043 109.567 68.3827C109.521 68.3574 109.573 68.2814 109.639 68.2143C109.57 68.2632 109.496 68.3002 109.467 68.2632C109.433 68.2217 109.512 68.1751 109.601 68.1407C109.517 68.1558 109.435 68.1584 109.422 68.113C109.382 68.1429 109.342 68.1726 109.303 68.2037C109.341 68.1998 109.379 68.1945 109.417 68.1878C109.242 68.2556 109.087 68.3475 109.152 68.4291C109.211 68.5012 109.356 68.4291 109.493 68.3328C109.362 68.4676 109.258 68.6174 109.35 68.6648C109.433 68.7071 109.535 68.5802 109.62 68.4351C109.556 68.6139 109.523 68.7939 109.625 68.7995C109.717 68.8043 109.758 68.6458 109.776 68.4769C109.789 68.6466 109.824 68.8061 109.899 68.8137C109.863 68.9385 109.78 69.0455 109.668 69.1133C109.555 69.1811 109.421 69.2048 109.292 69.1798C109.181 69.1557 109.083 69.0903 109.02 68.9972C108.957 68.9041 108.933 68.7905 108.953 68.6802C108.956 68.665 108.952 68.6493 108.944 68.6364C108.935 68.6235 108.922 68.6145 108.906 68.6111C108.898 68.6093 108.89 68.6093 108.882 68.6111C108.874 68.6129 108.867 68.6165 108.861 68.6215L108.845 68.6387C108.842 68.6448 108.839 68.6514 108.838 68.6582C108.823 68.7459 108.829 68.8359 108.856 68.9209C108.882 69.0058 108.929 69.0833 108.993 69.1469C108.92 69.1341 108.846 69.1499 108.785 69.1907C108.724 69.2316 108.682 69.2944 108.668 69.3654C108.742 69.3958 108.826 69.397 108.901 69.369C108.977 69.3409 109.038 69.2856 109.074 69.2143ZM109.959 68.4949H109.949L109.936 68.4501C109.942 68.4665 109.951 68.4807 109.959 68.4949ZM112.078 67.3998C112.092 67.3899 112.107 67.379 112.12 67.3679C111.875 67.3438 111.628 67.3429 111.382 67.3653C111.478 67.4455 111.598 67.4924 111.724 67.4986C111.85 67.5048 111.974 67.4701 112.078 67.3998ZM112.682 68.3452C112.621 68.0854 112.645 67.8132 112.751 67.5677C112.732 67.5334 112.712 67.4997 112.691 67.4664L112.639 67.4534C112.606 67.4455 112.573 67.4382 112.541 67.4314C112.575 67.5778 112.576 67.7299 112.542 67.8766C112.359 67.8006 112.276 67.4988 112.276 67.4988C112.26 67.6529 112.271 67.8086 112.308 67.9591C112.465 68.0535 112.594 68.1866 112.682 68.3452ZM113.818 68.2394C113.869 68.1754 113.916 68.1085 113.959 68.0391C113.933 68.0214 113.907 68.0042 113.881 67.987C113.753 68.0805 113.602 68.1401 113.444 68.1602C113.462 68.033 113.527 67.917 113.627 67.8345C113.613 67.8268 113.598 67.8193 113.584 67.812C113.453 67.8574 113.33 67.9249 113.222 68.0115C113.188 68.1616 113.12 68.302 113.022 68.4217C113.256 68.2689 113.539 68.2043 113.818 68.2394Z" fill="#BBC4CD"/>
<path fill-rule="evenodd" clip-rule="evenodd" d="M112.739 68.8251C112.78 68.8235 112.821 68.8101 112.856 68.7866C112.907 68.7502 112.941 68.6956 112.952 68.6345C112.963 68.5733 112.949 68.5103 112.914 68.459C112.897 68.4335 112.876 68.4115 112.85 68.3943C112.825 68.3772 112.796 68.3653 112.766 68.3593C112.735 68.3532 112.704 68.3532 112.674 68.3592C112.644 68.3652 112.615 68.3771 112.589 68.3941C112.573 68.4056 112.559 68.419 112.546 68.4339C112.433 68.294 112.352 68.1323 112.308 67.9594C112.045 67.8075 111.749 67.7211 111.444 67.7077C111.575 67.7428 111.697 67.8037 111.803 67.8869C111.91 67.97 111.997 68.0736 112.061 68.1913C111.877 68.2582 111.617 68.0867 111.617 68.0867C111.68 68.175 111.753 68.2556 111.835 68.3268C112.075 68.2925 112.32 68.3364 112.532 68.4516C112.498 68.5008 112.484 68.5609 112.493 68.62C112.248 68.5896 112.019 68.4874 111.835 68.3268C111.616 68.3536 111.403 68.4171 111.206 68.5147C111.336 68.4824 111.471 68.4773 111.603 68.4998C111.735 68.5223 111.86 68.5718 111.971 68.6451C111.843 68.7932 111.534 68.7676 111.534 68.7676C111.669 68.8352 111.816 68.8785 111.967 68.8955C112.111 68.7563 112.294 68.663 112.492 68.6279C112.498 68.6613 112.511 68.6931 112.53 68.7216C112.551 68.7531 112.579 68.7791 112.613 68.7973C112.647 68.8155 112.684 68.8254 112.723 68.8261C112.623 69.0894 112.432 69.31 112.184 69.4495C112.135 69.6811 112.126 69.9193 112.159 70.1537C112.167 70.021 112.202 69.8913 112.264 69.7728C112.325 69.6544 112.411 69.5497 112.515 69.4655C112.567 69.6157 112.56 69.7793 112.496 69.9248C112.656 69.7633 112.768 69.562 112.821 69.3424C112.748 69.1798 112.72 69.0016 112.739 68.8251ZM112.917 68.3825C112.993 68.2394 113.098 68.1129 113.225 68.0108C113.253 67.8947 113.266 67.7756 113.265 67.6563C113.204 67.631 113.141 67.6056 113.078 67.5829C113.041 67.6616 112.992 67.7346 112.934 67.7996C112.876 67.7146 112.849 67.6128 112.857 67.5107C112.834 67.5038 112.811 67.4973 112.787 67.4912C112.774 67.5165 112.764 67.5418 112.753 67.5672C112.903 67.8117 112.961 68.1003 112.917 68.3825ZM113.085 68.6899C113.233 68.7124 113.376 68.7609 113.506 68.8332C113.817 68.7865 114.11 68.6593 114.355 68.4645V68.9434L114.785 68.8155C114.656 68.6525 114.514 68.5001 114.361 68.3597L114.354 68.3536V68.4597C114.236 68.515 114.108 68.5457 113.978 68.5501C113.848 68.5544 113.719 68.5323 113.598 68.485C113.693 68.3123 113.998 68.2731 113.998 68.2731C113.939 68.2582 113.878 68.2474 113.818 68.2407C113.732 68.3594 113.623 68.4602 113.497 68.5372C113.371 68.6143 113.231 68.6662 113.085 68.6899Z" fill="#BBC4CD"/>
<path fill-rule="evenodd" clip-rule="evenodd" d="M112.573 68.8062C112.382 68.8874 112.174 68.9182 111.967 68.8955C111.767 69.0935 111.612 69.3324 111.516 69.5954C111.586 69.4833 111.679 69.3874 111.79 69.3139C111.901 69.2404 112.027 69.1911 112.159 69.1692C112.164 69.3688 111.924 69.5599 111.924 69.5599C112.015 69.5329 112.103 69.496 112.186 69.4498C112.233 69.1967 112.37 68.9684 112.573 68.8062Z" fill="#BBC4CD"/>
<path fill-rule="evenodd" clip-rule="evenodd" d="M112.835 68.8149C112.867 68.9899 112.863 69.1694 112.822 69.3426C112.871 69.4522 112.934 69.5553 113.01 69.6494C112.974 69.7462 112.934 69.8409 112.891 69.9336C112.875 69.9256 112.858 69.9194 112.841 69.9151C112.523 69.8391 112.277 70.364 112.106 70.9396C112.177 70.266 112.143 69.6127 111.785 69.6806C111.466 69.7419 111.456 70.3278 111.535 70.9279C111.326 70.2794 111.03 69.6923 110.734 69.9042C110.526 70.0531 110.624 70.421 110.828 70.8243C110.476 70.4392 110.128 70.1956 109.968 70.4445C109.791 70.7177 110.195 71.1444 110.671 71.5179C110.072 71.2031 109.455 70.9968 109.399 71.3611C109.365 71.5804 109.601 71.7536 109.935 71.8883C109.661 71.8989 109.386 71.8772 109.117 71.8235C109.033 71.8063 108.95 71.7855 108.868 71.7609C109.011 71.4835 109.089 71.1786 109.099 70.8679C109.108 70.5572 109.047 70.2483 108.921 69.9632C109.016 70.0096 109.117 70.0437 109.221 70.0645C109.415 70.1002 109.616 70.0976 109.809 70.057C110.003 70.0163 110.187 69.9384 110.35 69.8276C110.513 69.7169 110.653 69.5754 110.76 69.4115C110.868 69.2476 110.941 69.0643 110.977 68.8724C110.985 68.9374 111.007 69.0002 111.04 69.0568C111.074 69.1135 111.119 69.163 111.172 69.2023C111.226 69.2416 111.286 69.27 111.351 69.2858C111.416 69.3016 111.483 69.3045 111.549 69.2942C111.538 69.1569 111.475 69.029 111.371 68.9368C111.267 68.8446 111.131 68.7952 110.991 68.7989C110.995 68.7756 110.999 68.7518 111.002 68.729C111.041 68.7524 111.085 68.7678 111.13 68.7744C111.175 68.781 111.221 68.7786 111.265 68.7674C111.309 68.7562 111.351 68.7364 111.387 68.7092C111.423 68.682 111.454 68.6479 111.476 68.609C111.413 68.5552 111.334 68.5236 111.25 68.5194C111.167 68.5152 111.084 68.5385 111.015 68.5857C111.03 68.198 110.924 67.8151 110.714 67.4873C110.675 67.4977 110.637 67.5093 110.597 67.5215C110.851 67.9098 110.948 68.3785 110.866 68.8336C110.837 69.0133 110.771 69.1854 110.673 69.3396C110.575 69.4938 110.446 69.627 110.294 69.7311C110.143 69.8352 109.971 69.9082 109.79 69.9457C109.609 69.9832 109.423 69.9844 109.241 69.9493C109.093 69.9197 108.953 69.8603 108.83 69.7748C108.808 69.7355 108.794 69.7143 108.794 69.7143C108.785 69.7184 108.776 69.7228 108.768 69.7277C108.606 69.5996 108.482 69.4317 108.408 69.241C108.382 69.2825 108.359 69.3247 108.336 69.3676C108.412 69.5268 108.521 69.6688 108.655 69.7847C108.383 69.9226 108.148 70.1229 107.97 70.3688C107.957 70.4301 107.946 70.4919 107.936 70.5532C108.033 70.61 108.109 70.6957 108.154 70.798C108.288 70.5002 108.474 70.2277 108.704 69.9928C108.536 70.322 108.393 70.6627 108.275 71.0122C108.473 70.8195 108.73 70.6961 109.006 70.6608C108.694 70.7571 108.418 70.9439 108.215 71.1968C108.188 71.2905 108.162 71.3859 108.141 71.4814C108.317 71.2375 108.569 71.0561 108.859 70.9641C108.532 71.1227 108.265 71.38 108.097 71.6984C108.061 71.8905 108.05 72.0861 108.064 72.2808C108.189 72.672 108.377 73.0408 108.621 73.3731C108.821 73.5748 109.043 73.7556 109.281 73.9125C108.632 73.3106 108.982 72.2347 109.096 71.9374C109.462 72.0107 109.838 72.0258 110.209 71.9823C110.293 72.0076 110.38 72.0329 110.469 72.0544C109.8 72.0139 109.157 72.0797 109.255 72.4383C109.341 72.7573 109.92 72.7401 110.504 72.6325C109.883 72.8738 109.329 73.2007 109.562 73.4896C109.77 73.7474 110.285 73.4896 110.771 73.1493C110.305 73.6286 109.937 74.1596 110.265 74.3285C110.557 74.4791 110.92 74.0292 111.221 73.5134C110.995 74.1464 110.876 74.7883 111.241 74.8078C111.567 74.825 111.713 74.2604 111.776 73.661C111.828 74.3381 111.98 74.9777 112.318 74.8428C112.62 74.724 112.524 74.1442 112.337 73.5661C112.468 73.8253 112.63 74.0682 112.819 74.2898C112.8 74.4599 112.783 74.6313 112.772 74.8017C112.813 74.7906 112.854 74.7784 112.894 74.7663C112.903 74.6427 112.915 74.5176 112.928 74.3933C112.972 74.4309 113.022 74.4605 113.076 74.4809C113.029 74.5255 112.997 74.5832 112.984 74.6463C112.984 74.6463 113.263 74.7688 113.43 74.4227C113.395 74.4134 113.359 74.4079 113.322 74.4062C113.358 74.3482 113.378 74.2821 113.38 74.2144C113.382 74.1466 113.366 74.0794 113.334 74.0193C113.335 74.0058 113.332 73.9922 113.327 73.9797C113.322 73.9671 113.314 73.9558 113.304 73.9464C113.234 73.8025 113.148 73.6662 113.049 73.5397C113.055 73.5059 113.061 73.4722 113.067 73.4385C113.514 73.7494 113.932 73.9259 114.033 73.6349C114.117 73.3944 113.838 73.1483 113.452 72.932C113.489 72.9095 113.521 72.8809 113.548 72.8475C113.761 72.8941 113.982 72.893 114.195 72.8444C114.218 72.9039 114.245 72.9688 114.278 73.0374C114.222 73.1112 114.19 73.2003 114.188 73.2924C114.186 73.3845 114.212 73.4751 114.264 73.5516C114.298 73.6028 114.341 73.6478 114.39 73.6846C114.39 73.6876 114.387 73.6902 114.386 73.6932C114.378 73.7175 114.381 73.7435 114.394 73.7658C114.406 73.788 114.426 73.8046 114.451 73.812C114.46 73.8144 114.469 73.8157 114.479 73.8158C114.501 73.7942 114.521 73.7722 114.543 73.7502C114.548 73.7446 114.553 73.7385 114.558 73.733C114.563 73.7274 114.567 73.7244 114.571 73.7195C114.604 73.6846 114.636 73.6491 114.668 73.6129C114.694 73.5836 114.72 73.5534 114.743 73.5235C114.762 73.501 114.782 73.4787 114.8 73.4557C114.747 73.3722 114.714 73.2784 114.703 73.181C114.691 73.0836 114.701 72.9849 114.732 72.8918C114.672 72.8737 114.608 72.8693 114.546 72.879C114.483 72.8888 114.424 72.9124 114.372 72.948C114.37 72.9498 114.368 72.9523 114.365 72.9541C114.339 72.8958 114.316 72.8413 114.298 72.7905C114.325 72.7683 114.346 72.7397 114.358 72.7075C114.371 72.6753 114.375 72.6404 114.37 72.6062C114.345 72.3074 113.87 72.2059 113.336 72.1874C113.34 72.174 113.343 72.1621 113.347 72.1489C113.931 72.0223 114.42 71.8164 114.258 71.5189C114.1 71.228 113.544 71.3837 113.003 71.6278C113.549 71.2439 114.009 70.7922 113.716 70.5661C113.454 70.3635 113.015 70.7375 112.625 71.1875C112.9 70.7165 113.105 70.2273 112.98 70.0143C113.023 69.9284 113.061 69.8408 113.096 69.7518C113.214 69.8801 113.347 69.9932 113.494 70.0885C113.397 69.993 113.321 69.8793 113.27 69.7543C113.219 69.6292 113.193 69.4953 113.196 69.3605C113.391 69.398 113.532 69.677 113.532 69.677C113.525 69.6125 113.513 69.5485 113.498 69.4854C113.344 69.4288 113.204 69.3394 113.09 69.2234C112.975 69.1075 112.888 68.9679 112.835 68.8149ZM108.406 72.6401C108.429 72.6712 108.458 72.6969 108.492 72.7153C108.527 72.7337 108.565 72.7443 108.603 72.7465C108.642 72.7486 108.681 72.7423 108.717 72.7278C108.753 72.7133 108.786 72.691 108.812 72.6626C108.812 72.6626 108.565 72.9467 108.403 72.6401C108.34 72.6369 108.277 72.6247 108.217 72.6039C108.358 72.6192 108.501 72.5961 108.63 72.5372C108.76 72.4783 108.87 72.3858 108.95 72.2697C108.906 72.3769 108.831 72.4692 108.734 72.5351C108.637 72.6009 108.523 72.6374 108.406 72.6401ZM108.351 72.4398C108.529 72.2695 108.684 72.0761 108.81 71.8648C108.901 71.8932 108.994 71.917 109.088 71.9359C108.718 72.655 108.351 72.4403 108.351 72.4403V72.4398ZM112.953 73.4147C112.906 73.3577 112.859 73.3018 112.81 73.2468C112.861 73.2865 112.911 73.3253 112.962 73.3625L112.953 73.4149V73.4147ZM113.265 72.7938C113.256 72.8017 113.247 72.8101 113.239 72.8191C113.225 72.8118 113.21 72.8045 113.195 72.7976C113.195 72.7908 113.198 72.7842 113.199 72.7781C113.221 72.7849 113.243 72.7898 113.265 72.7941V72.7938ZM113.22 72.1742C113.22 72.1772 113.219 72.181 113.218 72.1841H113.174L113.22 72.1742ZM112.787 71.4181C112.936 71.5326 112.703 71.7622 112.427 71.9569C112.702 71.8326 112.984 71.7544 113.064 71.9017C113.155 72.0671 112.847 72.178 112.514 72.239C112.817 72.2408 113.108 72.2861 113.122 72.4532C113.137 72.6406 112.81 72.613 112.479 72.5292C112.756 72.6558 113.005 72.8181 112.951 72.9756C112.89 73.1528 112.599 72.9908 112.329 72.7779C112.532 73.0088 112.696 73.259 112.582 73.378C112.453 73.5122 112.253 73.2458 112.09 72.9407C112.183 73.2339 112.233 73.5284 112.08 73.5891C111.908 73.657 111.831 73.3326 111.804 72.989C111.772 73.2929 111.698 73.58 111.533 73.5714C111.347 73.5615 111.408 73.2364 111.523 72.9143C111.369 73.1759 111.185 73.4048 111.037 73.3283C110.87 73.2425 111.057 72.9738 111.294 72.7295C111.047 72.9027 110.785 73.0333 110.68 72.9022C110.562 72.7558 110.842 72.5892 111.158 72.4669C110.861 72.5214 110.568 72.5305 110.524 72.3684C110.474 72.1866 110.8 72.1534 111.141 72.1737C110.845 72.0995 110.572 71.9858 110.597 71.821C110.625 71.6361 110.938 71.7407 111.243 71.9005C111.001 71.7113 110.796 71.4953 110.886 71.3556C110.968 71.229 111.143 71.353 111.323 71.549C111.221 71.3444 111.17 71.1571 111.276 71.0819C111.426 70.9748 111.577 71.2723 111.682 71.6017C111.642 71.2979 111.647 70.9993 111.809 70.9687C111.99 70.9345 112.008 71.2662 111.972 71.608C112.058 71.3161 112.183 71.0489 112.344 71.0877C112.524 71.1317 112.407 71.4396 112.235 71.7336C112.432 71.5052 112.655 71.3161 112.787 71.4184V71.4181ZM114.1 68.8605C114.083 68.8724 114.072 68.8903 114.068 68.9103C114.065 68.9303 114.069 68.9508 114.081 68.9676C114.086 68.9759 114.093 68.9831 114.102 68.9887C114.11 68.9942 114.119 68.9981 114.129 69.0001C114.139 69.002 114.149 69.002 114.159 68.9999C114.169 68.9979 114.178 68.994 114.186 68.9883C114.203 68.9765 114.214 68.9587 114.218 68.9389C114.222 68.919 114.217 68.8985 114.206 68.8817C114.194 68.8651 114.177 68.8536 114.157 68.8496C114.137 68.8457 114.117 68.8495 114.1 68.8605Z" fill="#BBC4CD"/>
<path fill-rule="evenodd" clip-rule="evenodd" d="M111.221 67.9822C111.243 67.9665 111.259 67.9429 111.263 67.9163C111.268 67.8898 111.262 67.8624 111.247 67.8401C111.24 67.8291 111.23 67.8195 111.219 67.8121C111.208 67.8047 111.195 67.7995 111.182 67.7969C111.169 67.7943 111.156 67.7943 111.142 67.7969C111.129 67.7995 111.117 67.8046 111.106 67.812C111.083 67.8279 111.068 67.8516 111.064 67.8782C111.059 67.9048 111.065 67.9322 111.08 67.9546C111.087 67.9657 111.097 67.9752 111.108 67.9826C111.119 67.99 111.131 67.9951 111.145 67.9977C111.158 68.0003 111.171 68.0002 111.184 67.9976C111.198 67.9949 111.21 67.9897 111.221 67.9822ZM114.687 68.9512C114.665 68.967 114.65 68.9906 114.645 69.0171C114.64 69.0437 114.646 69.071 114.661 69.0933C114.668 69.1045 114.678 69.1141 114.689 69.1215C114.7 69.129 114.713 69.1343 114.726 69.1369C114.739 69.1395 114.752 69.1395 114.766 69.1368C114.779 69.1342 114.791 69.1289 114.802 69.1214C114.825 69.1057 114.84 69.0821 114.845 69.0555C114.849 69.029 114.844 69.0016 114.828 68.9793C114.821 68.9683 114.811 68.9588 114.8 68.9514C114.789 68.944 114.777 68.9389 114.763 68.9363C114.75 68.9337 114.737 68.9336 114.724 68.9362C114.711 68.9388 114.698 68.9439 114.687 68.9512ZM110.657 69.1596C110.667 68.9717 110.514 68.9864 110.5 68.9882C110.494 68.9625 110.48 68.939 110.461 68.9204C110.442 68.9018 110.418 68.8888 110.391 68.8829C110.28 68.9505 110.172 69.023 110.068 69.1001C110.061 69.1363 110.068 69.1737 110.088 69.205C110.108 69.2362 110.139 69.2589 110.175 69.2685C110.168 69.288 110.166 69.3087 110.167 69.3292C110.169 69.3498 110.175 69.3698 110.184 69.3881C110.194 69.4064 110.207 69.4226 110.223 69.4358C110.239 69.449 110.258 69.4589 110.278 69.465C110.381 69.4949 110.388 69.4538 110.419 69.4105C110.439 69.4214 110.46 69.4276 110.482 69.4286C110.505 69.4295 110.527 69.4252 110.547 69.4159C110.567 69.4067 110.585 69.3928 110.598 69.3755C110.612 69.3582 110.621 69.3379 110.625 69.3164C110.633 69.2885 110.629 69.2589 110.616 69.2331C110.639 69.2145 110.653 69.1883 110.657 69.1596ZM110.425 69.2391C110.415 69.2463 110.403 69.2512 110.391 69.2537C110.378 69.2563 110.365 69.2562 110.353 69.2537C110.34 69.2512 110.328 69.2463 110.318 69.2392C110.307 69.232 110.298 69.2229 110.292 69.2123C110.277 69.1911 110.271 69.1652 110.276 69.14C110.28 69.1148 110.294 69.0922 110.315 69.0771C110.326 69.07 110.338 69.065 110.35 69.0625C110.363 69.06 110.375 69.0601 110.388 69.0626C110.4 69.0651 110.412 69.07 110.423 69.0771C110.433 69.0842 110.442 69.0934 110.449 69.1039C110.464 69.125 110.47 69.151 110.465 69.1763C110.461 69.2016 110.447 69.2242 110.425 69.2391Z" fill="#BBC4CD"/>
</svg>
