<svg width="208" height="48" viewBox="0 0 208 48" fill="none" xmlns="http://www.w3.org/2000/svg">
<path d="M42.5454 41.1491C42.5454 44.8711 39.3939 47.6626 35.5071 47.6626C33.0909 47.6626 30.9899 46.5253 29.6242 44.7677L17.7535 28.9491C15.7576 26.3643 11.5556 27.7084 11.5556 30.9135V42.2863C11.5556 45.2846 8.92929 47.6626 5.77778 47.6626C2.52121 47.6626 0 45.2846 0 42.2863V6.51355C0 2.89491 3.15151 0 7.03838 0C9.45454 0 11.5556 1.24067 12.9212 2.99829L24.897 18.8169C26.8929 21.4016 31.0949 20.0576 31.0949 16.7491V5.47965C31.0949 2.48135 33.6162 0 36.8727 0C40.0242 0 42.6505 2.48135 42.6505 5.47965V41.1491H42.5454Z" fill="#005D8B"/>
<path d="M67.9674 38.6677L66.3916 43.7338C65.6563 46.2152 63.7654 47.6626 60.4038 47.6626C56.727 47.6626 54.626 45.0779 54.626 42.183C54.626 41.4592 54.9411 40.3219 55.1512 39.7016L66.8118 6.30677C67.9674 2.79153 70.3836 0 75.426 0C80.4684 0 82.9896 2.89492 84.1452 6.30677L95.4906 39.7016C95.7007 40.3219 96.0159 41.5626 96.0159 42.183C96.0159 45.6982 93.3896 47.6626 89.8179 47.6626C86.8765 47.6626 84.7755 46.2152 84.0401 43.7338L82.5694 38.6677L79.628 29.0525L78.0522 23.7796C77.3169 21.1949 73.5351 21.0915 72.6947 23.7796L71.0139 29.0525L67.9674 38.6677Z" fill="#005D8B"/>
<path d="M130.787 3.92879C131.733 1.44744 134.149 0 136.775 0C140.137 0 143.078 2.27456 143.078 5.78981C143.078 6.51354 142.973 7.13387 142.658 7.8576L129.422 41.4592C128.056 44.8711 125.22 47.6626 120.598 47.6626C115.87 47.6626 113.139 44.8711 111.773 41.4592L99.0622 7.8576C98.8521 7.23726 98.7471 6.51354 98.7471 5.8932C98.7471 2.58474 101.478 0 105.155 0C107.781 0 110.093 1.44745 110.933 4.03219L118.076 24.7101C118.917 27.1915 122.488 27.1915 123.434 24.7101L130.787 3.92879Z" fill="#005D8B"/>
<path d="M181.422 36.8585H166.19C165.664 36.8585 165.244 36.6517 164.929 36.2381C164.194 35.1008 164.719 33.9636 165.664 33.55H165.769L174.068 30.2415L175.854 29.5178H175.959L176.064 29.4144C178.165 28.5873 179.741 26.5195 179.741 24.0382V23.9348V23.8314C179.741 21.4534 178.27 19.3856 176.064 18.4551L175.959 18.3517H175.854L174.068 17.628L165.769 14.3195H165.664C164.719 13.906 164.194 12.7687 164.929 11.6314C165.244 11.2178 165.664 11.0111 166.19 11.0111H181.422C184.468 11.0111 186.99 8.52971 186.99 5.53141C186.99 2.53311 184.468 0.0517578 181.422 0.0517578H163.458C163.353 0.0517578 163.353 0.0517578 163.248 0.0517578C156.63 0.155147 151.272 5.42802 151.272 11.9416C151.272 17.0077 154.424 21.2466 158.836 23.0043C159.571 23.3144 159.571 24.3483 158.836 24.6585C154.424 26.4161 151.272 30.7585 151.272 35.7212C151.272 42.2347 156.63 47.5076 163.248 47.611C163.353 47.611 163.353 47.611 163.458 47.611H181.422C184.468 47.611 186.99 45.1296 186.99 42.1313C186.885 39.3398 184.468 36.8585 181.422 36.8585Z" fill="#005D8B"/>
<path d="M200.243 0C197.369 0 194.99 2.34599 194.99 5.18072C194.99 8.01545 197.369 10.3614 200.243 10.3614C203.117 10.3614 205.495 8.01545 205.495 5.18072C205.495 2.34599 203.216 0 200.243 0Z" fill="#F26E36"/>
</svg>
