<svg width="142" height="32" fill="none" xmlns="http://www.w3.org/2000/svg"><path d="M29.045 27.433c0 2.481-2.151 4.342-4.805 4.342a5.096 5.096 0 01-4.016-1.93L12.12 19.3c-1.362-1.723-4.231-.827-4.231 1.31v7.582c0 1.999-1.793 3.584-3.945 3.584C1.721 31.775 0 30.19 0 28.191V4.342C0 1.93 2.152 0 4.805 0c1.65 0 3.084.827 4.016 1.999l8.176 10.546c1.363 1.723 4.231.827 4.231-1.379V3.653C21.228 1.654 22.95 0 25.173 0c2.151 0 3.944 1.654 3.944 3.653v23.78h-.072zM46.401 25.779l-1.076 3.377c-.502 1.654-1.792 2.62-4.087 2.62-2.51 0-3.945-1.724-3.945-3.654 0-.482.215-1.24.359-1.654l7.96-22.263C46.402 1.86 48.051 0 51.493 0c3.443 0 5.164 1.93 5.953 4.205l7.745 22.263c.144.413.359 1.24.359 1.654 0 2.343-1.793 3.653-4.232 3.653-2.008 0-3.442-.965-3.944-2.62l-1.004-3.377-2.008-6.41-1.076-3.515c-.502-1.723-3.084-1.792-3.657 0l-1.148 3.515-2.08 6.41zM89.288 2.62C89.933.964 91.583 0 93.376 0c2.295 0 4.303 1.516 4.303 3.86 0 .482-.072.896-.287 1.378L88.356 27.64c-.933 2.275-2.869 4.136-6.024 4.136-3.228 0-5.092-1.86-6.025-4.135L67.63 5.238a4.172 4.172 0 01-.215-1.31C67.414 1.724 69.28 0 71.79 0c1.793 0 3.37.965 3.945 2.688l4.876 13.785c.574 1.655 3.012 1.655 3.658 0l5.02-13.854zM123.856 24.573h-10.399c-.359 0-.646-.138-.861-.414-.502-.758-.143-1.517.502-1.792h.072l5.666-2.206 1.219-.482h.071l.072-.07c1.435-.55 2.51-1.93 2.51-3.583v-.138c0-1.586-1.004-2.964-2.51-3.584l-.072-.07h-.071l-1.219-.482-5.666-2.205h-.072c-.645-.276-1.004-1.034-.502-1.793.215-.275.502-.413.861-.413h10.399c2.08 0 3.801-1.654 3.801-3.653 0-2-1.721-3.653-3.801-3.653h-12.407c-4.518.069-8.176 3.584-8.176 7.926 0 3.378 2.151 6.204 5.164 7.375a.592.592 0 010 1.103c-3.013 1.172-5.164 4.067-5.164 7.375 0 4.343 3.658 7.858 8.176 7.927h12.407c2.08 0 3.801-1.654 3.801-3.653-.072-1.861-1.721-3.515-3.801-3.515z" fill="#005D8B"/><path d="M136.704 0c-1.962 0-3.586 1.564-3.586 3.454 0 1.89 1.624 3.454 3.586 3.454 1.962 0 3.586-1.564 3.586-3.454 0-1.89-1.556-3.454-3.586-3.454z" fill="#F26E36"/></svg>